{"glyphs":{"0":{"ha":1131,"x_min":103,"x_max":1026,"o":"m 103 253 l 103 719 q 123 818 103 772 q 177 898 143 864 q 258 952 211 932 q 356 972 304 972 l 775 972 q 873 952 828 972 q 953 898 918 932 q 1007 818 988 864 q 1026 719 1026 772 l 1026 253 q 1007 155 1026 201 q 953 74 988 108 q 873 20 918 40 q 775 0 828 0 l 356 0 q 258 20 304 0 q 177 74 211 40 q 123 155 143 108 q 103 253 103 201 m 356 186 l 775 186 q 822 206 803 186 q 840 253 840 225 l 840 719 q 822 767 840 747 q 775 786 803 786 l 356 786 q 308 767 328 786 q 289 719 289 747 l 289 253 q 308 206 289 225 q 356 186 328 186 z "},"1":{"ha":869,"x_min":53,"x_max":675,"o":"m 146 972 l 336 972 q 469 945 407 972 q 576 872 531 918 q 649 765 622 826 q 675 632 675 703 l 675 93 q 648 27 675 54 q 583 0 621 0 q 517 27 544 0 q 490 93 490 54 l 490 632 q 478 692 490 664 q 444 740 465 719 q 396 774 424 761 q 336 786 368 786 l 146 786 q 80 813 107 786 q 53 879 53 840 q 80 945 53 918 q 146 972 107 972 z "},"2":{"ha":1078,"x_min":96,"x_max":986,"o":"m 189 972 l 697 972 q 810 949 757 972 q 901 887 863 926 q 963 794 940 847 q 986 682 986 742 q 963 569 986 622 q 901 477 940 517 q 810 415 863 438 q 697 392 757 392 l 386 392 q 312 362 342 392 q 282 289 282 332 l 282 185 l 893 185 q 959 158 932 185 q 986 92 986 131 q 959 26 986 53 q 893 -1 932 -1 l 189 -1 q 123 26 150 -1 q 96 92 96 53 l 96 289 q 119 402 96 350 q 181 494 142 454 q 274 556 221 533 q 386 578 326 578 l 697 578 q 770 608 740 578 q 800 682 800 639 q 770 756 800 726 q 697 786 740 786 l 189 786 q 123 813 150 786 q 96 879 96 840 q 123 945 96 918 q 189 972 150 972 z "},"3":{"ha":1071,"x_min":82,"x_max":974,"o":"m 175 185 l 683 185 q 756 215 726 185 q 786 289 786 246 q 756 363 786 332 q 683 393 726 393 l 279 393 q 213 420 240 393 q 186 486 186 447 q 213 552 186 525 q 279 579 240 579 l 683 579 q 757 609 726 579 q 788 682 788 639 q 757 756 788 726 q 683 786 726 786 l 175 786 q 109 813 136 786 q 82 879 82 840 q 109 945 82 918 q 175 972 136 972 l 683 972 q 796 949 743 972 q 888 887 849 926 q 951 794 928 847 q 974 682 974 742 q 896 486 974 568 q 972 289 972 403 q 949 176 972 229 q 888 84 926 124 q 796 22 849 44 q 683 -1 743 -1 l 175 -1 q 109 26 136 -1 q 82 92 82 53 q 109 158 82 131 q 175 185 136 185 z "},"4":{"ha":1028,"x_min":85,"x_max":918,"o":"m 85 881 q 112 947 85 919 q 178 974 139 974 q 244 947 217 974 q 271 881 271 919 l 271 606 q 301 532 271 563 q 375 501 331 501 l 732 501 l 732 881 q 759 947 732 919 q 825 974 786 974 q 891 947 864 974 q 918 881 918 919 l 918 93 q 891 27 918 54 q 825 0 864 0 q 759 27 786 0 q 732 93 732 54 l 732 315 l 375 315 q 263 338 315 315 q 170 401 210 361 q 108 493 131 440 q 85 606 85 546 l 85 881 z "},"5":{"ha":1044,"x_min":103,"x_max":954,"o":"m 103 486 l 103 881 q 130 947 103 919 q 196 974 157 974 l 861 974 q 927 947 900 974 q 954 881 954 919 q 927 815 954 842 q 861 788 900 788 l 289 788 l 289 579 l 664 579 q 776 556 724 579 q 869 494 829 533 q 931 403 908 456 q 954 290 954 350 q 931 177 954 231 q 869 85 908 124 q 776 23 829 46 q 664 0 724 0 l 196 0 q 130 27 157 0 q 103 93 103 54 q 130 159 103 132 q 196 186 157 186 l 664 186 q 738 216 707 186 q 768 290 768 246 q 738 363 768 333 q 664 393 707 393 l 196 393 q 130 420 157 393 q 103 486 103 447 z "},"6":{"ha":1089,"x_min":103,"x_max":993,"o":"m 103 253 l 103 719 q 123 818 103 772 q 177 898 143 864 q 258 952 211 932 q 356 972 304 972 l 874 972 q 940 945 913 972 q 967 879 967 918 q 940 813 967 840 q 874 786 913 786 l 356 786 q 308 767 328 786 q 289 719 289 747 l 289 646 l 742 646 q 840 626 794 646 q 919 572 885 606 q 974 492 954 538 q 993 393 993 446 l 993 253 q 974 155 993 201 q 919 74 954 108 q 839 20 885 40 q 740 0 793 0 l 356 0 q 258 20 304 0 q 177 74 211 40 q 123 155 143 108 q 103 253 103 201 m 356 186 l 740 186 q 788 206 768 186 q 807 253 807 225 l 807 393 q 788 440 807 421 q 742 460 769 460 l 289 460 l 289 253 q 308 206 289 225 q 356 186 328 186 z "},"7":{"ha":889,"x_min":53,"x_max":831,"o":"m 53 881 q 80 947 53 919 q 146 974 107 974 l 738 974 q 803 945 775 974 q 831 879 831 917 q 819 836 831 858 l 401 50 q 367 13 389 26 q 321 0 344 0 q 254 27 282 0 q 226 93 226 54 q 238 136 226 114 l 582 788 l 146 788 q 80 815 107 788 q 53 881 53 842 z "},"8":{"ha":1086,"x_min":97,"x_max":989,"o":"m 97 289 q 117 395 97 344 q 175 486 138 446 q 97 682 97 568 q 120 794 97 742 q 183 887 143 847 q 275 949 222 926 q 388 972 328 972 l 699 972 q 811 949 758 972 q 903 887 864 926 q 966 794 943 847 q 989 682 989 742 q 911 486 989 568 q 988 289 988 403 q 965 176 988 229 q 903 84 942 124 q 811 22 864 44 q 699 -1 758 -1 l 388 -1 q 275 22 328 -1 q 183 84 222 44 q 120 176 143 124 q 97 289 97 229 m 283 289 q 314 215 283 246 q 388 185 344 185 l 699 185 q 772 215 742 185 q 801 289 801 246 q 772 363 801 332 q 699 393 742 393 l 388 393 q 314 363 344 393 q 283 289 283 332 m 283 682 q 313 609 283 639 q 388 579 343 579 l 699 579 q 772 609 742 579 q 803 682 803 639 q 772 756 803 726 q 699 786 742 786 l 388 786 q 313 756 343 786 q 283 682 283 726 z "},"9":{"ha":1089,"x_min":94,"x_max":985,"o":"m 94 718 q 115 817 94 771 q 169 898 135 864 q 249 952 203 932 q 347 972 296 972 l 733 972 q 831 952 786 972 q 911 898 876 932 q 965 818 946 864 q 985 719 985 772 l 985 253 q 965 155 985 201 q 911 74 946 108 q 831 20 876 40 q 733 0 786 0 l 214 0 q 148 27 175 0 q 121 93 121 54 q 148 159 121 132 q 214 186 175 186 l 733 186 q 780 206 761 186 q 799 253 799 225 l 799 326 l 347 326 q 249 346 296 326 q 169 400 203 365 q 115 481 135 435 q 94 579 94 526 l 94 718 m 347 513 l 799 513 l 799 719 q 780 767 799 747 q 733 786 761 786 l 347 786 q 300 766 319 786 q 281 718 281 746 l 281 579 q 300 532 281 551 q 347 513 319 513 z "},"\u0000":{"ha":0,"x_min":0,"x_max":0,"o":""},"\r":{"ha":0,"x_min":0,"x_max":0,"o":""}," ":{"ha":508,"x_min":0,"x_max":0,"o":""},"\n":{"ha":0,"x_min":0,"x_max":0,"o":""},"!":{"ha":383,"x_min":99,"x_max":285,"o":"m 99 881 q 126 947 99 919 q 192 974 153 974 q 258 947 231 974 q 285 881 285 919 l 285 372 q 258 306 285 333 q 192 279 231 279 q 126 306 153 279 q 99 372 99 333 l 99 881 m 99 93 l 99 106 q 126 172 99 144 q 192 199 153 199 q 258 172 231 199 q 285 106 285 144 l 285 93 q 258 27 285 54 q 192 0 231 0 q 126 27 153 0 q 99 93 99 54 z "},"#":{"ha":1125,"x_min":111,"x_max":1014,"o":"m 111 288 q 135 344 111 321 q 190 368 158 368 l 269 368 l 296 506 l 240 506 q 183 529 207 506 q 160 585 160 553 q 183 642 160 618 q 240 665 207 665 l 328 665 l 351 789 q 379 835 357 817 q 431 853 401 853 q 446 851 440 853 q 497 817 478 844 q 508 758 515 790 l 490 665 l 739 665 l 764 789 q 792 835 769 817 q 842 853 814 853 q 857 851 851 853 q 908 817 889 844 q 919 758 926 790 l 901 665 l 933 665 q 990 642 967 665 q 1014 585 1014 618 q 990 529 1014 553 q 933 506 967 506 l 871 506 l 843 368 l 885 368 q 941 344 918 368 q 964 288 964 321 q 941 231 964 254 q 885 208 918 208 l 813 208 l 785 64 q 756 18 778 36 q 706 0 733 0 q 690 1 696 0 q 640 36 658 10 q 628 94 621 63 l 650 208 l 401 208 l 372 64 q 344 18 367 36 q 294 0 322 0 q 279 1 285 0 q 228 36 247 10 q 217 94 210 63 l 239 208 l 190 208 q 135 231 158 208 q 111 288 111 254 m 681 368 l 708 506 l 458 506 l 432 368 l 681 368 z "},"$":{"ha":1072,"x_min":90,"x_max":981,"o":"m 183 183 l 456 183 l 456 392 l 381 392 q 267 415 321 392 q 175 476 214 438 q 113 569 136 515 q 90 682 90 622 q 113 794 90 742 q 176 886 136 847 q 268 948 215 925 q 381 971 321 971 l 457 971 q 486 1032 460 1007 q 549 1057 513 1057 q 612 1032 585 1057 q 642 971 639 1007 l 888 971 q 953 944 926 971 q 981 878 981 917 q 953 813 981 839 q 888 786 926 786 l 642 786 l 642 578 l 692 578 q 805 555 753 578 q 897 492 857 532 q 958 400 936 453 q 981 288 981 347 q 958 175 981 228 q 897 83 936 122 q 805 20 857 43 q 692 -3 753 -3 l 642 -3 q 615 -67 642 -40 q 549 -94 588 -94 q 483 -67 510 -94 q 456 -3 457 -40 l 183 -3 q 117 24 144 -3 q 90 90 90 51 q 117 156 90 129 q 183 183 144 183 m 381 578 l 456 578 l 456 786 l 381 786 q 306 756 336 786 q 276 682 276 725 q 306 608 276 638 q 381 578 336 578 m 642 392 l 642 183 l 692 183 q 765 214 735 183 q 794 288 794 244 q 765 361 794 331 q 692 392 735 392 l 642 392 z "},"%":{"ha":1133,"x_min":85,"x_max":1049,"o":"m 122 153 l 869 946 q 936 975 897 975 q 997 950 972 975 q 1026 887 1025 924 q 1001 822 1026 850 l 254 29 q 189 1 228 1 q 156 7 172 1 q 126 25 140 13 q 98 88 99 50 q 122 153 97 125 m 85 753 q 102 839 85 799 q 150 910 119 879 q 221 958 181 940 q 307 975 261 975 q 394 958 353 975 q 465 910 435 940 q 513 839 496 879 q 531 753 531 799 q 513 666 531 707 q 465 594 496 625 q 394 547 435 564 q 307 529 353 529 q 221 547 261 529 q 150 594 181 564 q 102 666 119 625 q 85 753 85 707 m 604 222 q 622 309 604 268 q 669 381 639 350 q 740 428 700 411 q 826 446 781 446 q 913 428 872 446 q 983 381 953 411 q 1031 309 1014 350 q 1049 222 1049 268 q 1031 136 1049 176 q 983 65 1014 96 q 913 17 953 35 q 826 0 872 0 q 740 17 781 0 q 669 65 700 35 q 622 136 639 96 q 604 222 604 176 m 271 753 q 281 726 271 738 q 307 715 292 715 q 333 726 322 715 q 344 753 344 738 q 333 778 344 768 q 307 789 322 789 q 281 778 292 789 q 271 753 271 768 m 826 186 q 852 197 842 186 q 863 222 863 207 q 852 249 863 238 q 826 260 842 260 q 801 249 811 260 q 790 222 790 238 q 801 197 790 207 q 826 186 811 186 z "},"&":{"ha":1075,"x_min":97,"x_max":982,"o":"m 97 683 q 120 797 97 744 q 182 889 143 850 q 274 951 221 928 q 388 974 328 974 l 836 974 q 902 947 875 974 q 929 881 929 919 q 902 815 929 842 q 836 788 875 788 l 388 788 q 313 758 343 788 q 283 683 283 728 q 313 610 283 640 q 388 579 343 579 l 890 579 q 955 552 928 579 q 982 486 982 525 l 982 290 q 959 178 982 231 q 897 85 936 125 q 806 23 858 46 q 693 0 753 0 l 388 0 q 275 23 328 0 q 183 85 222 46 q 120 178 143 125 q 97 290 97 231 q 117 397 97 346 q 175 488 138 447 q 118 576 139 526 q 97 683 97 626 m 283 290 q 313 216 283 246 q 388 186 343 186 l 693 186 q 767 216 736 186 q 797 290 797 246 l 797 394 l 388 394 q 313 364 343 394 q 283 290 283 333 z "},"'":{"ha":283,"x_min":64,"x_max":219,"o":"m 64 903 q 87 958 64 935 q 142 981 110 981 q 197 958 174 981 q 219 903 219 935 l 219 713 q 197 658 219 681 q 142 635 174 635 q 87 658 110 635 q 64 713 64 681 l 64 903 z "},"+":{"ha":919,"x_min":60,"x_max":858,"o":"m 153 599 l 367 599 l 367 811 q 394 877 367 850 q 460 904 421 904 q 526 877 499 904 q 553 811 553 850 l 553 599 l 765 599 q 831 572 804 599 q 858 506 858 544 q 831 440 858 467 q 765 413 804 413 l 553 413 l 553 199 q 526 133 553 160 q 460 106 499 106 q 394 133 421 106 q 367 199 367 160 l 367 413 l 153 413 q 87 440 114 413 q 60 506 60 467 q 87 572 60 544 q 153 599 114 599 z "},",":{"ha":256,"x_min":50,"x_max":206,"o":"m 50 126 q 73 181 50 158 q 128 204 96 204 q 183 181 160 204 q 206 126 206 158 l 206 -64 q 183 -119 206 -96 q 128 -142 160 -142 q 73 -119 96 -142 q 50 -64 50 -96 l 50 126 z "},"-":{"ha":665,"x_min":46,"x_max":619,"o":"m 139 575 l 526 575 q 592 548 565 575 q 619 482 619 521 q 592 416 619 443 q 526 389 565 389 l 139 389 q 73 416 100 389 q 46 482 46 443 q 73 548 46 521 q 139 575 100 575 z "},".":{"ha":281,"x_min":47,"x_max":233,"o":"m 47 106 q 74 172 47 144 q 140 199 101 199 q 206 172 179 199 q 233 106 233 144 l 233 93 q 206 27 233 54 q 140 0 179 0 q 74 27 101 0 q 47 93 47 54 l 47 106 z "},"/":{"ha":785,"x_min":51,"x_max":733,"o":"m 71 142 l 554 929 q 590 961 568 950 q 635 974 611 972 q 682 960 660 974 q 724 901 715 939 q 713 832 733 864 l 229 44 q 194 11 215 22 q 150 0 174 0 q 101 14 124 0 q 60 72 69 35 q 71 142 51 110 z "},":":{"ha":319,"x_min":67,"x_max":253,"o":"m 67 210 q 94 276 67 249 q 160 303 121 303 q 226 276 199 303 q 253 210 253 249 l 253 197 q 226 131 253 158 q 160 104 199 104 q 94 131 121 104 q 67 197 67 158 l 67 210 m 67 682 l 67 694 q 94 760 67 733 q 160 788 121 788 q 226 760 199 788 q 253 694 253 733 l 253 682 q 226 616 253 643 q 160 589 199 589 q 94 616 121 589 q 67 682 67 643 z "},"<":{"ha":743,"x_min":61,"x_max":668,"o":"m 61 486 q 90 554 61 525 l 511 947 q 575 972 539 972 q 610 965 593 972 q 642 943 628 958 q 667 877 668 915 q 638 813 665 839 l 289 486 l 638 160 q 667 95 665 133 q 642 29 668 57 q 610 7 628 14 q 574 0 593 0 q 511 25 539 0 l 90 419 q 61 486 61 446 z "},"=":{"ha":839,"x_min":65,"x_max":772,"o":"m 65 638 q 92 703 65 676 q 158 731 119 731 l 679 731 q 745 703 718 731 q 772 638 772 676 q 745 572 772 599 q 679 544 718 544 l 158 544 q 92 572 119 544 q 65 638 65 599 m 158 451 l 679 451 q 745 424 718 451 q 772 358 772 397 q 745 292 772 319 q 679 265 718 265 l 158 265 q 92 292 119 265 q 65 358 65 319 q 92 424 65 397 q 158 451 119 451 z "},">":{"ha":743,"x_min":76,"x_max":682,"o":"m 76 879 q 103 944 76 917 q 168 972 131 972 q 232 947 206 972 l 653 554 q 674 524 667 542 q 682 486 682 506 q 653 419 682 446 l 232 25 q 168 0 206 0 q 103 28 129 0 q 76 93 76 56 q 106 160 76 133 l 454 486 l 106 813 q 76 879 76 840 z "},"?":{"ha":971,"x_min":60,"x_max":897,"o":"m 60 879 q 87 945 60 918 q 153 972 114 972 l 607 972 q 721 949 668 972 q 813 888 774 926 q 874 796 851 849 q 897 682 897 743 q 874 569 897 622 q 812 477 851 517 q 719 415 772 438 q 606 392 667 392 l 428 392 q 402 382 413 392 q 392 357 392 372 q 365 291 392 318 q 299 264 338 264 q 233 291 260 264 q 206 357 206 318 q 223 443 206 403 q 271 513 240 483 q 342 560 301 543 q 428 578 382 578 l 606 578 q 681 608 650 578 q 711 682 711 639 q 681 756 711 725 q 607 786 650 786 l 153 786 q 87 813 114 786 q 60 879 60 840 m 293 199 q 359 172 332 199 q 386 106 386 144 l 386 93 q 359 27 386 54 q 293 0 332 0 q 227 27 254 0 q 200 93 200 54 l 200 106 q 227 172 200 144 q 293 199 254 199 z "},"A":{"ha":1104,"x_min":26,"x_max":996,"o":"m 53 160 l 836 947 q 903 975 864 975 q 968 948 940 975 q 996 882 996 921 l 996 93 q 969 27 996 54 q 903 0 942 0 q 837 27 864 0 q 810 93 810 54 l 810 657 l 185 29 q 119 3 158 3 q 53 30 81 3 q 26 96 26 57 q 53 160 26 133 z "},"B":{"ha":1106,"x_min":108,"x_max":1021,"o":"m 108 94 l 108 882 q 135 948 108 921 q 201 975 163 975 l 731 975 q 843 952 790 975 q 935 890 896 929 q 998 797 975 850 q 1021 685 1021 744 q 1001 578 1021 629 q 943 488 981 528 q 1001 397 981 447 q 1021 292 1021 346 q 998 178 1021 232 q 935 86 975 125 q 843 24 896 47 q 731 1 790 1 l 201 1 q 135 28 163 1 q 108 94 108 56 m 294 581 l 733 581 q 805 612 775 581 q 835 685 835 643 q 804 758 835 728 q 731 789 774 789 l 294 789 l 294 581 m 294 394 l 294 188 l 731 188 q 804 217 774 188 q 835 292 835 247 q 804 363 835 333 q 731 393 774 393 q 726 394 728 393 l 294 394 z "},"C":{"ha":1028,"x_min":63,"x_max":975,"o":"m 550 974 l 882 974 q 948 947 921 974 q 975 881 975 919 q 948 815 975 842 q 882 788 921 788 l 550 788 q 433 765 488 788 q 337 701 378 742 q 272 605 296 660 q 249 488 249 550 q 272 369 249 425 q 336 274 296 314 q 432 210 376 233 q 550 186 488 186 l 882 186 q 948 159 921 186 q 975 93 975 132 q 948 27 975 54 q 882 0 921 0 l 550 0 q 359 38 449 0 q 204 143 269 76 q 101 299 139 210 q 63 488 63 388 q 101 678 63 589 q 206 832 139 767 q 361 935 272 897 q 550 974 450 974 z "},"D":{"ha":1150,"x_min":108,"x_max":1088,"o":"m 108 93 l 108 881 q 135 947 108 919 q 201 974 163 974 l 600 974 q 790 935 701 974 q 945 831 879 897 q 1049 676 1011 764 q 1088 488 1088 588 q 1049 299 1088 388 q 946 143 1011 210 q 792 38 881 76 q 600 0 703 0 l 201 0 q 135 27 163 0 q 108 93 108 54 m 294 788 l 294 186 l 600 186 q 718 210 663 186 q 814 274 774 233 q 878 369 854 314 q 901 488 901 425 q 878 605 901 550 q 813 701 854 660 q 717 765 772 742 q 600 788 663 788 l 294 788 z "},"E":{"ha":1054,"x_min":92,"x_max":975,"o":"m 92 681 q 115 795 92 742 q 177 888 138 849 q 270 951 217 928 q 385 974 324 974 l 882 974 q 948 947 921 974 q 975 882 975 921 q 948 815 975 842 q 882 788 921 788 l 385 788 q 309 756 340 788 q 278 681 278 725 l 278 576 l 882 576 q 948 549 921 576 q 975 482 975 522 q 948 417 975 444 q 882 390 921 390 l 278 390 l 278 293 q 309 217 278 249 q 385 186 340 186 l 882 186 q 948 159 921 186 q 975 93 975 132 q 948 27 975 54 q 882 0 921 0 l 385 0 q 272 23 325 0 q 178 86 218 46 q 115 180 138 126 q 92 293 92 233 l 92 681 z "},"F":{"ha":1006,"x_min":107,"x_max":956,"o":"m 107 840 q 117 892 107 868 q 146 934 128 915 q 188 963 164 953 q 240 974 213 974 l 863 974 q 928 946 901 974 q 956 881 956 918 q 928 815 956 842 q 863 788 901 788 l 293 788 l 293 550 l 836 550 q 902 523 875 550 q 929 457 929 496 q 902 391 929 418 q 836 364 875 364 l 293 364 l 293 93 q 266 27 293 54 q 200 0 239 0 q 134 27 161 0 q 107 93 107 54 l 107 840 z "},"G":{"ha":1064,"x_min":63,"x_max":976,"o":"m 550 974 l 883 974 q 949 947 922 974 q 976 881 976 919 q 949 815 976 842 q 883 788 922 788 l 550 788 q 433 764 488 788 q 337 700 378 740 q 272 605 296 660 q 249 488 249 550 q 272 370 249 425 q 337 274 296 315 q 433 210 378 233 q 550 186 488 186 l 790 186 l 790 421 q 817 487 790 460 q 883 514 844 514 q 949 487 922 514 q 976 421 976 460 l 976 93 q 949 27 976 54 q 883 0 922 0 l 550 0 q 360 38 449 0 q 205 142 271 76 q 101 297 139 208 q 63 485 63 385 q 99 670 63 582 q 201 826 136 758 q 356 933 267 893 q 550 974 446 974 z "},"H":{"ha":1107,"x_min":108,"x_max":997,"o":"m 201 975 q 267 948 240 975 q 294 882 294 921 l 294 579 l 811 579 l 811 882 q 838 948 811 921 q 906 975 865 975 q 971 948 944 975 q 997 882 997 921 l 997 94 q 971 28 997 56 q 906 1 944 1 q 838 28 865 1 q 811 94 811 56 l 811 393 l 294 393 l 294 94 q 267 28 294 56 q 201 1 240 1 q 135 28 163 1 q 108 94 108 56 l 108 882 q 135 948 108 921 q 201 975 163 975 z "},"I":{"ha":403,"x_min":108,"x_max":294,"o":"m 108 94 l 108 882 q 135 947 108 919 q 201 974 163 974 q 267 947 240 974 q 294 882 294 919 l 294 94 q 267 28 294 56 q 201 1 240 1 q 135 28 163 1 q 108 94 108 56 z "},"J":{"ha":988,"x_min":39,"x_max":886,"o":"m 39 290 q 66 356 39 329 q 132 383 93 383 q 198 356 171 383 q 225 290 225 329 q 255 216 225 246 q 329 186 285 186 l 597 186 q 670 216 640 186 q 700 290 700 246 l 700 881 q 727 947 700 919 q 793 974 754 974 q 859 947 832 974 q 886 881 886 919 l 886 290 q 863 177 886 231 q 801 85 840 124 q 710 23 763 46 q 597 0 657 0 l 329 0 q 217 23 269 0 q 124 85 164 46 q 62 177 85 124 q 39 290 39 231 z "},"K":{"ha":1133,"x_min":108,"x_max":1082,"o":"m 108 882 q 135 948 108 921 q 201 975 163 975 q 267 948 240 975 q 294 882 294 921 l 294 318 l 915 946 q 982 974 943 974 q 1048 946 1021 974 q 1075 879 1075 918 q 1049 815 1075 842 l 722 486 l 1054 158 q 1082 93 1082 131 q 1055 27 1082 54 q 989 0 1028 0 q 924 26 950 0 l 590 353 l 268 26 q 201 -1 240 -1 q 136 26 164 -1 q 108 92 108 54 l 108 882 z "},"L":{"ha":967,"x_min":100,"x_max":942,"o":"m 100 289 l 100 882 q 127 948 100 921 q 193 975 154 975 q 259 948 232 975 q 286 882 286 921 l 286 289 q 316 216 286 246 q 389 186 346 186 l 849 186 q 915 159 888 186 q 942 93 942 132 q 915 27 942 54 q 849 0 888 0 l 389 0 q 276 23 329 0 q 185 85 224 46 q 123 176 146 124 q 100 289 100 229 z "},"M":{"ha":1879,"x_min":26,"x_max":1771,"o":"m 26 90 q 33 124 26 107 q 53 154 39 140 l 831 946 q 897 974 858 974 q 963 947 936 974 q 990 881 990 919 l 990 314 l 1611 946 q 1642 967 1625 961 q 1678 974 1660 974 q 1744 947 1717 974 q 1771 881 1771 919 l 1771 89 q 1744 23 1771 50 q 1678 -4 1717 -4 q 1612 23 1639 -4 q 1585 89 1585 50 l 1585 654 l 964 24 q 897 -4 936 -4 q 831 22 858 -4 q 804 89 804 49 l 804 654 l 186 24 q 155 2 172 8 q 119 -4 138 -4 q 53 23 81 -4 q 26 90 26 50 z "},"N":{"ha":1181,"x_min":108,"x_max":1072,"o":"m 200 972 q 237 966 219 972 q 268 944 254 960 l 886 319 l 886 879 q 913 945 886 918 q 979 972 940 972 q 1045 945 1018 972 q 1072 879 1072 918 l 1072 93 q 1045 27 1072 54 q 979 0 1018 0 q 944 6 961 0 q 913 28 926 13 l 294 653 l 294 93 q 267 27 294 54 q 201 0 240 0 q 135 27 163 0 q 108 93 108 54 l 108 879 q 135 944 108 917 q 200 972 163 972 z "},"O":{"ha":1281,"x_min":85,"x_max":1196,"o":"m 424 974 l 857 974 q 988 947 926 974 q 1096 874 1050 919 q 1169 766 1142 828 q 1196 635 1196 704 l 1196 339 q 1169 208 1196 269 q 1096 100 1142 146 q 988 27 1050 54 q 857 0 926 0 l 424 0 q 291 26 353 0 q 183 99 229 53 q 111 206 138 144 q 85 339 85 268 l 85 635 q 111 767 85 706 q 183 875 138 829 q 291 947 229 921 q 424 974 353 974 m 424 186 l 857 186 q 917 199 889 186 q 965 232 944 211 q 998 281 986 253 q 1010 339 1010 308 l 1010 635 q 998 694 1010 667 q 965 743 986 722 q 917 776 944 764 q 857 788 889 788 l 424 788 q 364 776 392 788 q 315 743 336 764 q 283 694 294 722 q 271 635 271 667 l 271 339 q 283 281 271 308 q 315 232 294 253 q 364 199 336 211 q 424 186 392 186 z "},"P":{"ha":1079,"x_min":108,"x_max":1025,"o":"m 108 882 q 135 948 108 921 q 201 975 163 975 l 671 975 q 809 947 744 975 q 922 871 874 919 q 997 758 969 822 q 1025 621 1025 694 q 997 484 1025 549 q 921 371 969 419 q 808 294 872 322 q 671 267 744 267 l 294 267 l 294 94 q 267 28 294 56 q 201 1 240 1 q 135 28 163 1 q 108 94 108 56 l 108 882 m 294 789 l 294 453 l 671 453 q 736 466 706 453 q 790 502 767 479 q 826 556 813 525 q 839 621 839 586 q 826 686 839 656 q 790 740 813 717 q 736 776 767 763 q 671 789 706 789 l 294 789 z "},"Q":{"ha":1382,"x_min":85,"x_max":1349,"o":"m 424 974 l 857 974 q 988 947 926 974 q 1096 874 1050 919 q 1169 766 1142 828 q 1196 635 1196 704 l 1196 339 q 1160 186 1196 258 l 1256 186 q 1322 159 1294 186 q 1349 93 1349 132 q 1322 27 1349 54 q 1256 0 1294 0 l 424 0 q 291 26 353 0 q 183 99 229 53 q 111 206 138 144 q 85 339 85 268 l 85 635 q 111 767 85 706 q 183 875 138 829 q 291 947 229 921 q 424 974 353 974 m 424 186 l 857 186 q 917 199 889 186 q 965 232 944 211 q 998 281 986 253 q 1010 339 1010 308 l 1010 635 q 998 694 1010 667 q 965 743 986 722 q 917 776 944 764 q 857 788 889 788 l 424 788 q 364 776 392 788 q 315 743 336 764 q 283 694 294 722 q 271 635 271 667 l 271 339 q 283 281 271 308 q 315 232 294 253 q 364 199 336 211 q 424 186 392 186 z "},"R":{"ha":1104,"x_min":108,"x_max":1033,"o":"m 108 93 l 108 881 q 135 947 108 919 q 201 974 163 974 l 700 974 q 828 947 768 974 q 935 876 889 921 q 1007 772 981 832 q 1033 642 1033 711 q 1018 542 1033 590 q 974 454 1003 494 q 907 382 946 414 q 821 331 868 350 l 979 154 q 1004 90 1004 128 q 977 25 1004 51 q 911 -1 950 -1 q 842 29 868 -1 l 590 308 l 294 308 l 294 93 q 267 27 294 54 q 201 0 240 0 q 135 27 163 0 q 108 93 108 54 m 294 494 l 700 494 q 757 506 731 494 q 803 538 783 518 q 835 585 824 558 q 847 642 847 611 q 835 699 847 672 q 803 745 824 725 q 757 776 783 765 q 700 788 731 788 l 294 788 l 294 494 z "},"S":{"ha":1039,"x_min":74,"x_max":964,"o":"m 364 975 l 871 975 q 937 948 910 975 q 964 882 964 921 q 937 816 964 843 q 871 789 910 789 l 364 789 q 290 758 319 789 q 260 685 260 728 q 290 610 260 640 q 364 581 319 581 l 675 581 q 788 558 735 581 q 879 496 840 535 q 941 404 918 457 q 964 292 964 351 q 941 178 964 232 q 879 86 918 125 q 788 24 840 47 q 675 1 735 1 l 167 1 q 101 28 128 1 q 74 93 74 54 q 101 160 74 133 q 167 188 128 188 l 675 188 q 748 218 718 188 q 778 292 778 249 q 748 364 778 333 q 675 394 718 394 l 364 394 q 251 417 304 394 q 158 479 197 440 q 97 572 119 518 q 74 685 74 625 q 97 797 74 744 q 159 890 119 850 q 251 952 199 929 q 364 975 304 975 z "},"T":{"ha":999,"x_min":25,"x_max":974,"o":"m 118 974 l 881 974 q 947 947 919 974 q 974 881 974 919 q 947 815 974 842 q 881 788 919 788 l 592 788 l 592 94 q 565 28 592 56 q 499 1 538 1 q 433 28 460 1 q 406 94 406 56 l 406 788 l 118 788 q 52 815 79 788 q 25 881 25 842 q 52 947 25 919 q 118 974 79 974 z "},"U":{"ha":1131,"x_min":99,"x_max":1032,"o":"m 99 882 q 126 948 99 921 q 192 975 153 975 q 258 948 231 975 q 285 882 285 921 l 285 315 q 294 265 285 289 q 319 224 303 242 q 356 197 335 207 q 401 186 378 186 l 728 186 q 774 197 753 186 q 812 224 796 207 q 837 265 828 242 q 846 315 846 289 l 846 882 q 873 948 846 921 q 939 975 900 975 q 1005 948 978 975 q 1032 882 1032 921 l 1032 315 q 1008 194 1032 251 q 944 94 985 138 q 847 26 903 51 q 728 0 792 0 l 401 0 q 282 26 338 0 q 186 94 226 51 q 122 195 146 138 q 99 315 99 253 l 99 882 z "},"V":{"ha":1104,"x_min":108,"x_max":1078,"o":"m 108 93 l 108 882 q 135 948 108 921 q 201 975 163 975 q 267 948 240 975 q 294 882 294 921 l 294 318 l 918 946 q 985 974 946 974 q 1050 947 1022 974 q 1078 881 1078 919 q 1050 815 1078 843 l 267 28 q 200 0 239 0 q 135 27 161 0 q 108 93 108 54 z "},"W":{"ha":1879,"x_min":108,"x_max":1853,"o":"m 201 974 q 267 947 240 974 q 294 881 294 919 l 294 319 l 915 946 q 982 974 943 974 q 1047 947 1019 974 q 1075 881 1075 919 l 1075 319 l 1693 946 q 1760 974 1721 974 q 1826 947 1799 974 q 1853 881 1853 919 q 1826 815 1853 842 l 1049 28 q 982 0 1021 0 q 916 26 943 0 q 889 93 889 53 l 889 654 l 268 28 q 237 6 254 13 q 201 0 219 0 q 135 27 163 0 q 108 93 108 54 l 108 881 q 135 947 108 919 q 201 974 163 974 z "},"X":{"ha":1081,"x_min":53,"x_max":1026,"o":"m 53 93 q 81 158 53 131 l 408 486 l 81 814 q 53 881 53 842 q 81 946 53 918 q 146 974 108 974 q 211 946 183 974 l 540 618 l 868 946 q 933 974 896 974 q 999 947 972 974 q 1026 881 1026 919 q 999 814 1026 842 l 671 486 l 999 158 q 1026 93 1026 131 q 999 27 1026 54 q 933 0 972 0 q 868 26 894 0 l 540 356 l 211 26 q 146 0 185 0 q 80 27 107 0 q 53 93 53 54 z "},"Y":{"ha":1044,"x_min":33,"x_max":1000,"o":"m 33 94 q 40 128 33 111 q 60 158 46 144 l 194 293 l 194 881 q 222 947 194 919 q 288 974 249 974 q 353 947 326 974 q 381 881 381 919 l 381 481 l 840 946 q 908 974 868 974 q 973 947 946 974 q 1000 882 1000 919 q 972 815 1000 843 l 193 28 q 162 6 179 13 q 126 0 144 0 q 60 27 88 0 q 33 94 33 54 z "},"Z":{"ha":1024,"x_min":46,"x_max":976,"o":"m 139 974 l 856 974 q 922 947 896 974 q 949 881 949 919 q 943 848 949 864 q 926 819 938 832 l 371 186 l 883 186 q 949 159 922 186 q 976 93 976 132 q 949 27 976 54 q 883 0 922 0 l 165 0 q 99 27 126 0 q 72 93 72 54 q 96 154 72 126 l 651 788 l 139 788 q 73 815 100 788 q 46 881 46 842 q 73 947 46 919 q 139 974 100 974 z "},"\\":{"ha":785,"x_min":57,"x_max":728,"o":"m 150 974 q 195 962 174 974 q 229 929 217 950 l 713 142 q 726 93 726 119 q 700 27 728 54 q 633 0 672 0 q 589 11 610 0 q 554 44 568 22 l 71 832 q 57 881 57 854 q 85 947 57 919 q 150 974 113 974 z "},"_":{"ha":892,"x_min":46,"x_max":844,"o":"m 139 186 l 751 186 q 817 159 790 186 q 844 93 844 132 q 817 27 844 54 q 751 0 790 0 l 139 0 q 73 27 100 0 q 46 93 46 54 q 73 159 46 132 q 139 186 100 186 z "},"a":{"ha":1076,"x_min":78,"x_max":981,"o":"m 78 292 l 78 343 q 101 457 78 404 q 165 549 125 510 q 258 611 204 589 q 372 633 313 633 l 794 633 l 794 685 q 765 758 794 729 q 690 788 735 788 l 175 788 q 108 815 135 788 q 81 882 81 843 q 108 947 81 921 q 175 974 135 974 l 690 974 q 804 951 751 974 q 896 889 857 928 q 958 797 935 850 q 981 685 981 744 l 981 254 q 960 155 981 201 q 906 74 940 108 q 826 20 872 40 q 728 0 781 0 l 372 0 q 258 23 311 0 q 164 85 204 46 q 101 178 124 125 q 78 292 78 231 m 372 186 l 728 186 q 775 206 756 186 q 794 254 794 226 l 794 447 l 372 447 q 297 417 328 447 q 267 343 267 386 l 267 292 q 297 217 267 247 q 372 186 328 186 z "},"b":{"ha":1106,"x_min":108,"x_max":1021,"o":"m 201 974 l 731 974 q 843 951 790 974 q 935 889 896 928 q 998 797 975 850 q 1021 683 1021 744 q 943 488 1021 569 q 1001 397 981 447 q 1021 290 1021 346 q 998 177 1021 231 q 936 85 975 124 q 844 23 897 46 q 731 0 792 0 l 201 0 q 135 27 163 0 q 108 93 108 54 l 108 881 q 135 947 108 919 q 201 974 163 974 m 731 186 q 804 217 774 186 q 835 290 835 247 q 804 364 835 333 q 731 394 774 394 l 465 394 q 399 422 426 394 q 372 488 372 449 q 399 553 372 526 q 465 581 426 581 l 733 581 q 805 611 775 581 q 835 683 835 642 q 804 758 835 728 q 731 788 774 788 l 294 788 l 294 186 l 731 186 z "},"c":{"ha":1028,"x_min":63,"x_max":975,"o":"m 550 974 l 882 974 q 948 947 921 974 q 975 881 975 919 q 948 815 975 842 q 882 788 921 788 l 550 788 q 433 765 488 788 q 337 701 378 742 q 272 605 296 660 q 249 488 249 550 q 272 369 249 425 q 336 274 296 314 q 432 210 376 233 q 550 186 488 186 l 882 186 q 948 159 921 186 q 975 93 975 132 q 948 27 975 54 q 882 0 921 0 l 550 0 q 359 38 449 0 q 204 143 269 76 q 101 299 139 210 q 63 488 63 388 q 101 678 63 589 q 206 832 139 767 q 361 935 272 897 q 550 974 450 974 z "},"d":{"ha":1150,"x_min":108,"x_max":1088,"o":"m 108 93 l 108 881 q 135 947 108 919 q 201 974 163 974 l 600 974 q 790 935 701 974 q 945 831 879 897 q 1049 676 1011 764 q 1088 488 1088 588 q 1049 299 1088 388 q 946 143 1011 210 q 792 38 881 76 q 600 0 703 0 l 201 0 q 135 27 163 0 q 108 93 108 54 m 294 788 l 294 186 l 600 186 q 718 210 663 186 q 814 274 774 233 q 878 369 854 314 q 901 488 901 425 q 878 605 901 550 q 813 701 854 660 q 717 765 772 742 q 600 788 663 788 l 294 788 z "},"e":{"ha":1071,"x_min":92,"x_max":994,"o":"m 92 290 l 92 683 q 115 797 92 744 q 176 889 138 850 q 269 951 215 928 q 382 974 322 974 l 703 974 q 817 951 764 974 q 909 888 869 928 q 972 796 949 849 q 994 682 994 743 l 994 660 q 972 546 994 599 q 909 453 949 493 q 817 391 869 414 q 703 368 764 368 l 278 368 l 278 290 q 308 217 278 247 q 382 186 339 186 l 899 186 q 965 159 938 186 q 992 93 992 132 q 965 27 992 54 q 899 0 938 0 l 382 0 q 269 23 322 0 q 176 85 215 46 q 115 177 138 124 q 92 290 92 231 m 278 683 l 278 554 l 703 554 q 778 585 747 554 q 808 660 808 615 l 808 682 q 778 757 808 726 q 703 788 747 788 l 382 788 q 308 758 339 788 q 278 683 278 728 z "},"f":{"ha":1036,"x_min":100,"x_max":988,"o":"m 393 974 l 894 974 q 960 947 933 974 q 988 879 988 919 q 960 814 988 840 q 894 788 933 788 l 393 788 q 351 779 371 788 q 317 756 332 771 q 294 722 303 742 q 286 679 286 701 l 286 551 l 856 551 q 922 524 894 551 q 949 458 949 497 q 922 392 949 419 q 856 365 894 365 l 286 365 l 286 93 q 259 27 286 54 q 193 0 232 0 q 127 27 154 0 q 100 93 100 54 l 100 679 q 123 794 100 740 q 185 888 146 849 q 278 951 225 928 q 393 974 332 974 z "},"g":{"ha":1064,"x_min":49,"x_max":976,"o":"m 550 974 l 883 974 q 949 947 922 974 q 976 881 976 919 q 949 815 976 842 q 883 788 922 788 l 550 788 q 433 764 488 788 q 337 700 378 740 q 272 605 296 660 q 249 488 249 550 q 272 370 249 425 q 337 274 296 315 q 433 210 378 233 q 550 186 488 186 l 790 186 l 790 421 q 817 487 790 460 q 883 514 844 514 q 949 487 922 514 q 976 421 976 460 l 976 93 q 949 27 976 54 q 883 0 922 0 l 550 0 q 406 22 475 0 q 279 83 338 43 q 175 178 221 122 q 100 300 129 233 q 64 540 49 419 q 144 756 79 660 q 314 913 208 853 q 550 974 419 974 z "},"h":{"ha":1100,"x_min":75,"x_max":1019,"o":"m 353 506 q 381 575 353 546 q 449 604 410 604 l 824 604 l 824 878 q 853 946 824 918 q 922 974 882 974 q 991 946 963 974 q 1019 878 1019 918 l 1019 94 q 991 26 1019 54 q 922 -3 963 -3 q 853 26 882 -3 q 824 94 824 54 l 824 408 l 449 408 q 381 437 410 408 q 353 506 353 465 m 172 974 q 242 946 213 974 q 271 878 271 918 l 271 94 q 242 26 271 54 q 172 -3 213 -3 q 103 26 132 -3 q 75 94 75 54 l 75 878 q 103 946 75 918 q 172 974 132 974 z "},"i":{"ha":692,"x_min":51,"x_max":639,"o":"m 144 186 l 253 186 l 253 788 l 144 788 q 78 815 106 788 q 51 882 51 842 q 78 947 51 921 q 144 974 106 974 l 546 974 q 612 947 585 974 q 639 882 639 921 q 612 815 639 842 q 546 788 585 788 l 439 788 l 439 186 l 546 186 q 612 159 585 186 q 639 93 639 132 q 612 27 639 54 q 546 0 585 0 l 144 0 q 78 27 106 0 q 51 93 51 54 q 78 159 51 132 q 144 186 106 186 z "},"j":{"ha":967,"x_min":25,"x_max":867,"o":"m 25 93 q 52 159 25 132 q 118 186 79 186 l 578 186 q 651 216 621 186 q 681 289 681 246 l 681 882 q 708 948 681 921 q 774 975 735 975 q 840 948 813 975 q 867 882 867 921 l 867 289 q 844 176 867 229 q 782 85 821 124 q 690 23 743 46 q 578 0 638 0 l 118 0 q 52 27 79 0 q 25 93 25 54 z "},"k":{"ha":1133,"x_min":108,"x_max":1082,"o":"m 447 576 l 554 576 l 915 946 q 982 974 942 974 q 1048 947 1021 974 q 1075 881 1075 919 q 1049 817 1075 843 l 724 485 l 1054 160 q 1082 94 1082 132 q 1054 28 1082 56 q 989 0 1026 0 q 924 26 953 0 l 554 390 l 447 390 q 381 417 408 390 q 354 483 354 444 q 381 549 354 522 q 447 576 408 576 m 201 975 q 267 948 240 975 q 294 882 294 921 l 294 93 q 267 27 294 54 q 201 0 240 0 q 135 27 163 0 q 108 93 108 54 l 108 882 q 135 948 108 921 q 201 975 163 975 z "},"l":{"ha":967,"x_min":100,"x_max":942,"o":"m 100 289 l 100 882 q 127 948 100 921 q 193 975 154 975 q 259 948 232 975 q 286 882 286 921 l 286 289 q 316 216 286 246 q 389 186 346 186 l 849 186 q 915 159 888 186 q 942 93 942 132 q 915 27 942 54 q 849 0 888 0 l 389 0 q 276 23 329 0 q 185 85 224 46 q 123 176 146 124 q 100 289 100 229 z "},"m":{"ha":1906,"x_min":108,"x_max":1819,"o":"m 108 93 l 108 881 q 135 947 108 919 q 201 974 163 974 l 569 974 q 730 947 653 974 q 871 869 807 919 l 871 881 q 898 947 871 919 q 964 974 925 974 l 1332 974 q 1522 935 1433 974 q 1677 831 1611 897 q 1781 675 1743 764 q 1819 486 1819 586 l 1819 93 q 1792 27 1819 54 q 1726 0 1765 0 q 1660 27 1688 0 q 1633 93 1633 54 l 1633 486 q 1610 603 1633 549 q 1545 699 1586 658 q 1449 764 1504 740 q 1332 788 1394 788 l 1057 788 l 1057 93 q 1030 27 1057 54 q 964 0 1003 0 q 898 27 925 0 q 871 93 871 54 l 871 486 q 847 603 871 549 q 783 699 824 658 q 687 764 742 740 q 569 788 632 788 l 294 788 l 294 93 q 267 27 294 54 q 201 0 240 0 q 135 27 163 0 q 108 93 108 54 z "},"n":{"ha":1171,"x_min":108,"x_max":1083,"o":"m 108 93 l 108 881 q 135 947 108 919 q 201 974 163 974 l 596 974 q 786 935 697 974 q 941 830 875 896 q 1045 675 1007 764 q 1083 486 1083 586 l 1083 93 q 1056 27 1083 54 q 990 0 1029 0 q 924 27 951 0 q 897 93 897 54 l 897 486 q 874 604 897 549 q 810 700 850 660 q 714 764 769 740 q 596 788 658 788 l 294 788 l 294 93 q 267 27 294 54 q 201 0 240 0 q 135 27 163 0 q 108 93 108 54 z "},"o":{"ha":1138,"x_min":64,"x_max":1074,"o":"m 571 992 q 767 952 675 992 q 926 844 858 913 q 1034 683 994 775 q 1074 488 1074 592 q 1034 292 1074 383 q 926 131 994 200 q 765 22 857 63 q 569 -18 674 -18 q 374 22 465 -18 q 213 130 282 61 q 104 290 144 199 q 64 486 64 382 q 104 683 64 590 q 213 844 144 775 q 374 952 282 913 q 571 992 467 992 m 568 168 q 692 193 635 168 q 794 261 750 218 q 863 362 838 304 q 888 486 888 419 q 863 611 888 553 q 794 713 838 669 q 693 781 751 756 q 568 806 635 806 q 444 781 501 806 q 343 712 386 756 q 275 610 300 668 q 250 486 250 553 q 275 363 250 421 q 343 261 300 304 q 444 193 386 218 q 568 168 503 168 z "},"p":{"ha":1106,"x_min":101,"x_max":1018,"o":"m 101 93 l 101 881 q 128 947 101 919 q 194 974 156 974 l 664 974 q 802 946 738 974 q 915 869 867 918 q 990 757 963 821 q 1018 619 1018 693 q 990 483 1018 547 q 914 369 963 418 q 801 293 865 321 q 664 265 738 265 l 513 265 q 447 292 474 265 q 419 358 419 319 q 447 424 419 397 q 513 451 474 451 l 664 451 q 729 465 699 451 q 783 501 760 478 q 819 554 806 524 q 832 619 832 585 q 819 685 832 654 q 783 738 806 715 q 729 774 760 761 q 664 788 699 788 l 288 788 l 288 93 q 260 27 288 54 q 194 0 233 0 q 128 27 156 0 q 101 93 101 54 z "},"q":{"ha":1150,"x_min":63,"x_max":1072,"o":"m 568 990 q 764 951 672 990 q 924 842 856 911 q 1033 681 993 774 q 1072 485 1072 589 q 1051 338 1072 410 q 982 199 1029 265 l 1036 146 q 1064 82 1064 118 q 1038 17 1064 46 q 968 -12 1011 -12 q 903 14 929 -12 l 850 68 q 717 3 789 26 q 565 -19 644 -19 q 365 22 457 -19 q 206 133 274 64 q 101 294 139 203 q 63 485 63 385 q 102 681 63 589 q 210 841 142 772 q 372 950 279 910 q 568 990 464 990 m 249 485 q 274 361 249 419 q 342 260 299 303 q 442 192 385 217 q 567 167 500 167 q 714 203 644 167 l 615 301 q 589 368 589 328 q 616 434 589 407 q 682 461 643 461 q 747 433 719 461 l 847 333 q 886 485 886 407 q 863 605 886 547 q 797 707 839 663 q 696 778 754 751 q 569 804 638 804 q 444 779 503 804 q 342 710 386 754 q 274 609 299 667 q 249 485 249 551 z "},"r":{"ha":896,"x_min":100,"x_max":869,"o":"m 393 974 l 776 974 q 842 947 815 974 q 869 881 869 919 q 842 815 869 842 q 776 788 815 788 l 393 788 q 317 756 349 788 q 286 681 286 725 l 286 93 q 259 27 286 54 q 193 0 232 0 q 127 27 154 0 q 100 93 100 54 l 100 681 q 123 794 100 742 q 186 888 146 847 q 280 951 226 928 q 393 974 333 974 z "},"s":{"ha":1039,"x_min":74,"x_max":964,"o":"m 167 186 l 675 186 q 748 216 718 186 q 778 290 778 246 q 748 363 778 333 q 675 393 718 393 l 364 393 q 251 416 304 393 q 159 478 199 439 q 97 571 119 518 q 74 683 74 624 q 97 796 74 743 q 159 888 119 849 q 251 951 199 928 q 364 974 304 974 l 871 974 q 937 947 910 974 q 964 881 964 919 q 937 815 964 842 q 871 788 910 788 l 364 788 q 290 757 319 788 q 260 683 260 726 q 290 610 260 640 q 364 579 319 579 l 675 579 q 788 556 735 579 q 879 494 840 533 q 941 403 918 456 q 964 290 964 350 q 942 178 964 231 q 880 85 919 125 q 788 23 840 46 q 675 0 736 0 l 167 0 q 101 27 128 0 q 74 93 74 54 q 101 159 74 132 q 167 186 128 186 z "},"t":{"ha":999,"x_min":25,"x_max":974,"o":"m 118 974 l 881 974 q 947 947 919 974 q 974 881 974 919 q 947 815 974 842 q 881 788 919 788 l 592 788 l 592 93 q 565 27 592 54 q 499 0 538 0 q 433 27 460 0 q 406 93 406 54 l 406 788 l 118 788 q 52 815 79 788 q 25 881 25 842 q 52 947 25 919 q 118 974 79 974 z "},"u":{"ha":1169,"x_min":85,"x_max":1060,"o":"m 85 881 q 112 947 85 919 q 178 974 139 974 q 244 947 217 974 q 271 881 271 919 l 271 488 q 294 369 271 425 q 358 274 318 314 q 454 210 399 233 q 572 186 510 186 l 874 186 l 874 881 q 901 947 874 919 q 967 974 928 974 q 1033 947 1006 974 q 1060 881 1060 919 l 1060 93 q 1033 27 1060 54 q 967 0 1006 0 l 572 0 q 382 39 471 0 q 227 144 293 78 q 123 299 161 210 q 85 488 85 388 l 85 881 z "},"v":{"ha":1149,"x_min":22,"x_max":1126,"o":"m 75 963 q 119 975 96 975 q 164 963 143 975 q 197 929 185 951 l 574 272 l 950 929 q 983 963 963 951 q 1028 975 1004 974 q 1074 963 1053 975 q 1116 907 1106 943 q 1107 839 1126 871 l 653 46 q 619 13 640 25 q 574 0 597 0 q 528 13 550 0 q 496 46 507 25 l 42 839 q 33 907 22 871 q 75 963 43 943 z "},"w":{"ha":1293,"x_min":108,"x_max":1183,"o":"m 108 93 l 108 881 q 135 947 108 919 q 201 974 163 974 q 267 947 240 974 q 294 881 294 919 l 294 313 l 581 590 q 646 617 607 617 q 711 590 685 617 l 997 313 l 997 881 q 1024 947 997 919 q 1090 974 1051 974 q 1156 947 1129 974 q 1183 881 1183 919 l 1183 93 q 1157 27 1183 54 q 1092 0 1131 0 q 1026 26 1053 0 l 646 393 l 265 26 q 201 0 239 0 q 135 27 163 0 q 108 93 108 54 z "},"x":{"ha":1081,"x_min":53,"x_max":1028,"o":"m 53 93 q 81 158 53 131 l 408 488 l 81 815 q 53 881 53 843 q 81 946 53 918 q 146 974 108 974 q 211 946 181 974 l 540 618 l 868 946 q 933 974 896 974 q 999 946 971 974 q 1026 881 1026 918 q 999 815 1026 843 l 671 488 l 999 158 q 1026 93 1026 128 q 999 28 1028 56 q 933 0 971 0 q 868 28 896 0 l 540 356 l 211 28 q 146 0 183 0 q 81 28 108 0 q 53 93 53 56 z "},"y":{"ha":1094,"x_min":78,"x_max":994,"o":"m 78 881 q 105 947 78 919 q 171 974 132 974 q 237 947 210 974 q 264 881 264 919 l 264 672 q 296 594 264 626 q 374 563 328 563 l 699 563 q 776 594 743 563 q 808 672 808 626 l 808 881 q 835 947 808 919 q 901 974 863 974 q 967 947 940 974 q 994 881 994 919 l 994 296 q 971 181 994 235 q 907 88 947 128 q 813 24 867 47 q 699 0 760 0 l 196 0 q 130 27 157 0 q 103 93 103 54 q 130 159 103 132 q 196 186 157 186 l 699 186 q 776 218 743 186 q 808 296 808 250 l 808 397 q 699 376 757 376 l 374 376 q 258 399 313 376 q 164 463 204 422 q 101 557 124 503 q 78 672 78 611 l 78 881 z "},"z":{"ha":1024,"x_min":46,"x_max":976,"o":"m 139 974 l 856 974 q 906 959 883 974 q 940 919 929 944 q 948 867 951 894 q 926 819 944 840 l 371 186 l 883 186 q 949 159 922 186 q 976 93 976 132 q 949 27 976 54 q 883 0 922 0 l 165 0 q 115 15 138 0 q 81 54 92 29 q 73 106 69 79 q 96 154 76 133 l 651 788 l 139 788 q 73 815 100 788 q 46 881 46 842 q 73 947 46 919 q 139 974 100 974 z "}," ":{"ha":450,"x_min":0,"x_max":0,"o":""},"£":{"ha":922,"x_min":81,"x_max":868,"o":"m 81 460 q 108 526 81 499 q 174 553 135 553 l 214 553 l 214 683 q 237 796 214 743 q 299 888 260 849 q 390 951 338 928 q 503 974 443 974 q 569 947 542 974 q 596 881 596 919 q 569 815 596 842 q 501 788 542 788 q 430 758 460 788 q 400 683 400 728 l 400 553 l 594 553 q 660 526 633 553 q 688 460 688 499 q 660 394 688 421 q 594 367 633 367 l 400 367 l 400 186 l 775 186 q 841 159 814 186 q 868 93 868 132 q 841 27 868 54 q 775 0 814 0 l 174 0 q 108 27 135 0 q 81 93 81 54 q 108 159 81 132 q 174 186 135 186 l 214 186 l 214 367 l 174 367 q 108 394 135 367 q 81 460 81 421 z "},"¥":{"ha":1083,"x_min":54,"x_max":1028,"o":"m 147 974 q 219 939 192 974 l 542 542 l 863 939 q 935 974 890 974 q 1000 947 972 974 q 1028 881 1028 919 q 1007 822 1028 850 l 633 361 l 633 328 l 692 328 q 758 301 731 328 q 785 236 785 274 q 758 170 785 197 q 692 143 731 143 l 633 143 l 633 93 q 606 27 633 54 q 542 0 579 0 q 476 27 503 0 q 449 93 449 54 l 449 143 l 390 143 q 324 170 351 143 q 297 236 297 197 q 324 301 297 274 q 390 328 351 328 l 449 328 l 449 361 l 75 822 q 54 881 54 850 q 82 947 54 919 q 147 974 110 974 z "},"­":{"ha":0,"x_min":0,"x_max":0,"o":""},"Æ":{"ha":1650,"x_min":28,"x_max":1569,"o":"m 28 94 q 58 165 28 135 l 833 944 q 864 965 844 957 q 907 974 883 974 l 1476 974 q 1542 947 1515 974 q 1569 881 1569 919 q 1542 816 1569 843 q 1476 789 1515 789 l 996 789 l 996 568 l 1476 568 q 1542 541 1515 568 q 1569 475 1569 514 q 1542 409 1569 436 q 1476 382 1515 382 l 996 382 l 996 186 l 1476 186 q 1542 159 1515 186 q 1569 93 1569 132 q 1542 27 1569 54 q 1476 0 1515 0 l 903 0 q 837 27 864 0 q 810 93 810 54 l 810 146 l 301 146 l 185 29 q 119 3 158 3 q 56 28 83 3 q 28 89 28 53 l 28 94 m 810 332 l 810 657 l 486 332 l 810 332 z "},"Ø":{"ha":1283,"x_min":86,"x_max":1197,"o":"m 425 974 l 858 974 q 991 947 929 974 q 1099 875 1053 921 q 1171 767 1144 829 q 1197 635 1197 706 l 1197 339 q 1171 206 1197 268 q 1099 99 1144 144 q 991 26 1053 53 q 858 0 929 0 l 425 0 q 292 26 354 0 q 185 99 231 53 q 113 206 139 144 q 86 339 86 268 l 86 635 q 113 767 86 706 q 185 875 139 829 q 292 947 231 921 q 425 974 354 974 m 858 186 q 918 198 890 186 q 967 231 946 210 q 999 279 988 251 q 1011 339 1011 307 l 1011 635 q 984 722 1011 683 q 914 778 957 761 l 542 186 l 858 186 m 272 635 l 272 339 q 290 266 272 299 q 339 213 308 233 l 700 788 l 425 788 q 365 776 393 788 q 317 743 338 764 q 284 694 296 722 q 272 635 272 667 z "},"æ":{"ha":1842,"x_min":111,"x_max":1731,"o":"m 111 343 q 135 457 111 404 q 198 549 158 510 q 292 611 238 589 q 406 633 346 633 l 828 633 l 828 685 q 798 759 828 729 q 724 789 768 789 l 208 789 q 142 816 169 789 q 114 882 114 843 q 142 948 114 921 q 208 975 169 975 l 724 975 q 830 955 779 975 q 921 897 881 935 q 1012 955 961 935 q 1118 975 1063 975 l 1439 975 q 1553 952 1500 975 q 1645 890 1606 929 q 1708 797 1685 850 q 1731 683 1731 744 l 1731 660 q 1708 547 1731 600 q 1645 453 1685 493 q 1553 391 1606 414 q 1439 368 1500 368 l 1014 368 l 1014 290 q 1044 217 1014 247 q 1118 186 1075 186 l 1636 186 q 1702 159 1675 186 q 1729 93 1729 132 q 1702 27 1729 54 q 1636 0 1675 0 l 1118 0 q 932 68 1013 0 q 854 18 899 36 q 761 0 810 0 l 406 0 q 291 23 344 0 q 197 85 238 46 q 134 178 157 125 q 111 292 111 231 l 111 343 m 406 186 l 761 186 q 808 206 789 186 q 828 254 828 226 l 828 447 l 406 447 q 331 417 361 447 q 300 343 300 386 l 300 292 q 331 217 300 247 q 406 186 361 186 m 1439 554 q 1514 585 1483 554 q 1544 660 1544 615 l 1544 683 q 1514 758 1544 728 q 1439 789 1483 789 l 1118 789 q 1044 759 1075 789 q 1014 685 1014 729 l 1014 554 l 1439 554 z "},"ø":{"ha":1138,"x_min":64,"x_max":1074,"o":"m 64 506 q 104 701 64 610 q 213 862 144 793 q 374 970 282 931 q 568 1010 465 1010 q 765 969 669 1010 q 811 982 786 982 q 876 956 849 982 q 903 890 903 929 l 903 882 q 975 810 943 856 q 1028 713 1007 765 q 1062 605 1050 660 q 1074 504 1074 550 q 1033 307 1074 399 q 924 147 993 215 q 764 40 856 79 q 568 0 672 0 q 372 39 469 0 q 326 28 350 28 q 262 54 289 28 q 235 118 235 81 l 235 126 l 211 147 q 103 311 142 218 q 64 506 64 404 m 250 504 q 328 296 250 386 l 653 813 q 568 824 608 824 q 444 799 501 824 q 343 730 386 774 q 275 628 300 686 q 250 504 250 571 m 569 186 q 693 211 635 186 q 794 279 751 236 q 863 381 838 322 q 888 504 888 439 q 810 714 888 624 l 485 197 q 569 186 529 186 z "},"Œ":{"ha":1493,"x_min":63,"x_max":1414,"o":"m 63 492 q 72 584 63 536 q 107 694 81 632 q 167 806 132 754 q 252 894 203 857 q 367 953 301 932 q 522 974 433 974 l 1321 974 q 1387 947 1360 974 q 1414 881 1414 919 q 1387 815 1414 842 q 1321 788 1360 788 l 893 788 l 893 568 l 1321 568 q 1387 541 1360 568 q 1414 475 1414 514 q 1387 409 1414 436 q 1321 382 1360 382 l 893 382 l 893 186 l 1321 186 q 1387 159 1360 186 q 1414 93 1414 132 q 1387 27 1414 54 q 1321 0 1360 0 l 522 0 q 335 40 419 0 q 190 149 250 81 q 96 306 129 217 q 63 492 63 394 m 522 186 l 707 186 l 707 786 l 522 786 q 397 763 449 786 q 312 699 344 739 q 264 604 279 658 q 249 488 249 550 q 264 370 249 425 q 312 274 279 315 q 397 210 344 233 q 522 186 449 186 z "},"œ":{"ha":1943,"x_min":111,"x_max":1832,"o":"m 450 975 l 776 975 q 902 951 843 975 q 1008 883 961 928 l 1010 885 q 1105 952 1049 929 q 1219 975 1161 975 l 1542 975 q 1656 952 1603 975 q 1747 890 1708 929 q 1809 797 1786 850 q 1832 683 1832 744 l 1832 660 q 1809 547 1832 600 q 1747 453 1786 493 q 1656 391 1708 414 q 1542 368 1603 368 l 1115 368 l 1115 290 q 1146 217 1115 247 q 1219 186 1176 186 l 1736 186 q 1802 159 1775 186 q 1829 93 1829 132 q 1802 27 1829 54 q 1736 0 1775 0 l 1219 0 q 1013 88 1100 0 l 1011 89 q 1007 92 1008 92 q 901 24 960 47 q 776 1 842 1 l 450 1 q 317 28 379 1 q 210 100 256 54 q 138 208 164 146 q 111 340 111 269 l 111 636 q 138 769 111 707 q 210 876 164 831 q 317 949 256 922 q 450 975 379 975 m 297 636 l 297 340 q 309 281 297 308 q 342 232 321 253 q 390 199 363 211 q 450 188 418 188 l 776 188 q 836 199 808 188 q 885 232 864 211 q 917 281 906 253 q 929 340 929 308 l 929 636 q 917 696 929 668 q 885 744 906 724 q 836 777 864 765 q 776 789 808 789 l 450 789 q 390 777 418 789 q 342 744 363 765 q 309 696 321 724 q 297 636 297 668 m 1542 554 q 1615 585 1585 554 q 1646 660 1646 615 l 1646 683 q 1615 758 1646 728 q 1542 789 1585 789 l 1219 789 q 1146 759 1176 789 q 1115 685 1115 729 l 1115 554 l 1542 554 z "},"—":{"ha":892,"x_min":46,"x_max":844,"o":"m 139 599 l 751 599 q 817 572 790 599 q 844 506 844 544 q 817 440 844 467 q 751 413 790 413 l 139 413 q 73 440 100 413 q 46 506 46 467 q 73 572 46 544 q 139 599 100 599 z "},"’":{"ha":464,"x_min":111,"x_max":354,"o":"m 111 740 q 113 756 111 747 q 117 771 114 764 l 172 926 q 208 973 183 956 q 261 990 232 990 q 326 963 297 990 q 354 897 354 935 q 353 881 354 889 q 349 867 351 874 l 292 710 q 256 665 281 682 q 203 647 232 647 q 138 675 164 647 q 111 740 111 703 z "},"€":{"ha":1124,"x_min":74,"x_max":1039,"o":"m 149 456 l 161 456 l 160 492 q 161 503 160 497 l 149 503 q 95 525 117 503 q 74 579 74 547 q 95 633 74 611 q 149 654 117 654 l 189 654 q 258 791 210 729 q 373 897 307 853 q 516 967 439 942 q 671 992 593 992 q 852 958 763 992 q 1010 856 942 924 q 1039 788 1039 826 q 1012 722 1039 749 q 947 694 985 694 q 912 702 929 694 q 874 729 894 710 q 781 785 838 765 q 663 806 725 806 q 508 765 576 806 q 393 654 440 725 l 785 654 q 838 633 817 654 q 860 579 860 611 q 838 525 860 547 q 785 503 817 503 l 347 503 q 346 485 346 497 l 347 456 l 785 456 q 838 433 817 456 q 860 379 860 411 q 838 326 860 347 q 785 304 817 304 l 403 304 q 517 205 449 242 q 665 168 586 168 q 781 189 726 168 q 872 244 836 210 q 910 271 893 264 q 946 278 928 278 q 1011 251 983 278 q 1039 186 1039 225 q 1031 149 1039 167 q 1008 117 1024 131 q 849 18 936 54 q 665 -18 761 -18 q 522 3 592 -18 q 391 64 451 25 q 282 158 331 103 q 204 279 233 213 l 194 304 l 149 304 q 95 326 117 304 q 74 379 74 347 q 95 433 74 411 q 149 456 117 456 z "},"":{"ha":781,"x_min":138,"x_max":817,"o":"m 138 879 q 165 945 138 918 q 231 972 192 972 l 357 972 q 456 952 410 972 q 537 898 503 932 q 591 817 571 864 q 611 718 611 771 l 611 186 l 724 186 q 790 159 763 186 q 817 93 817 132 q 790 27 817 54 q 724 0 763 0 l 311 0 q 245 27 272 0 q 218 93 218 54 q 245 159 218 132 q 311 186 272 186 l 425 186 l 425 718 q 405 766 425 746 q 357 786 385 786 l 231 786 q 165 813 192 786 q 138 879 138 840 z "},"":{"ha":1003,"x_min":68,"x_max":901,"o":"m 100 375 l 750 953 q 784 974 765 968 q 822 981 803 981 q 877 958 854 981 q 901 890 900 936 l 901 93 q 874 27 901 54 q 808 0 847 0 q 742 27 769 0 q 715 93 715 54 l 715 213 l 161 213 q 95 239 122 213 q 68 304 68 265 q 100 375 68 347 m 715 399 l 715 674 l 406 399 l 715 399 z "},"":{"ha":1093,"x_min":99,"x_max":989,"o":"m 99 718 q 119 817 99 771 q 173 898 139 864 q 253 952 207 932 q 351 972 300 972 l 738 972 q 835 952 790 972 q 915 898 881 932 q 969 818 950 864 q 989 719 989 772 l 989 253 q 969 155 989 201 q 915 74 950 108 q 835 20 881 40 q 738 0 790 0 l 351 0 q 253 20 300 0 q 173 74 207 40 q 119 155 139 108 q 99 253 99 201 q 126 319 99 292 q 192 346 153 346 q 258 319 231 346 q 285 253 285 292 q 304 206 285 225 q 351 186 324 186 l 738 186 q 784 206 765 186 q 803 253 803 225 l 803 353 l 351 353 q 253 373 300 353 q 173 427 207 393 q 119 508 139 461 q 99 606 99 554 l 99 718 m 285 718 l 285 606 q 304 558 285 578 q 351 539 324 539 l 803 539 l 803 719 q 784 767 803 747 q 738 786 765 786 l 351 786 q 304 766 324 786 q 285 718 285 746 z "},"":{"ha":1104,"x_min":26,"x_max":996,"o":"m 53 160 l 836 947 q 868 969 851 963 q 901 975 885 975 q 968 948 940 975 q 996 882 996 921 l 996 93 q 969 27 996 54 q 903 0 942 0 q 837 27 864 0 q 810 93 810 54 l 810 146 l 301 146 l 185 29 q 119 3 158 3 q 53 30 81 3 q 26 96 26 57 q 53 160 26 133 m 810 332 l 810 657 l 486 332 l 810 332 z "},"":{"ha":1150,"x_min":24,"x_max":1125,"o":"m 43 139 l 493 926 q 528 961 506 949 q 575 974 550 974 q 622 961 600 974 q 656 926 643 949 l 1106 139 q 1115 69 1125 106 q 1071 13 1104 32 q 1025 0 1050 0 q 979 12 1001 0 q 944 47 957 24 l 874 171 l 275 171 l 204 47 q 169 12 192 24 q 124 0 147 0 q 78 13 99 0 q 35 69 46 32 q 43 139 24 106 m 767 357 l 575 693 l 382 357 l 767 357 z "},"":{"ha":1006,"x_min":64,"x_max":943,"o":"m 568 993 q 754 958 665 993 q 914 856 843 922 q 943 789 943 829 q 916 723 943 750 q 850 696 889 696 q 815 703 832 696 q 776 729 797 710 q 685 785 739 764 q 568 807 631 807 q 444 782 501 807 q 343 713 386 757 q 275 612 300 669 q 250 488 250 554 q 275 364 250 422 q 343 263 300 306 q 444 194 386 219 q 568 169 503 169 q 685 190 631 169 q 776 246 739 211 q 815 272 797 265 q 850 279 832 279 q 915 252 889 279 q 942 186 942 225 q 913 118 942 146 q 754 17 842 51 q 571 -17 667 -17 q 373 23 465 -17 q 212 131 281 63 q 103 292 143 200 q 64 488 64 383 q 103 684 64 592 q 212 845 143 776 q 372 953 281 914 q 568 993 464 993 z "},"":{"ha":1332,"x_min":108,"x_max":1222,"o":"m 108 93 l 108 881 q 136 945 108 918 q 200 974 164 972 q 265 947 236 974 l 665 568 l 1065 947 q 1129 974 1094 974 q 1194 947 1167 974 q 1222 881 1222 919 l 1222 93 q 1195 27 1222 54 q 1129 0 1168 0 q 1063 27 1090 0 q 1036 93 1036 54 l 1036 664 l 729 374 q 665 347 703 347 q 601 374 628 347 l 294 664 l 294 93 q 267 27 294 54 q 201 0 240 0 q 135 27 163 0 q 108 93 108 54 z "},"":{"ha":1104,"x_min":108,"x_max":1033,"o":"m 201 974 l 700 974 q 828 947 768 974 q 935 876 889 921 q 1007 772 981 832 q 1033 642 1033 711 q 1018 542 1033 590 q 974 454 1003 494 q 907 382 946 414 q 821 331 868 350 l 979 154 q 1003 88 1006 125 q 972 22 1000 50 q 944 4 960 10 q 911 -1 928 -1 q 842 29 868 -1 l 590 308 l 482 308 q 416 335 443 308 q 389 401 389 363 q 416 467 389 440 q 482 494 443 494 l 700 494 q 757 506 731 494 q 803 538 783 518 q 835 585 824 558 q 847 642 847 611 q 835 699 847 672 q 803 745 824 725 q 757 776 783 765 q 700 788 731 788 l 294 788 l 294 93 q 267 27 294 54 q 201 0 240 0 q 135 27 163 0 q 108 93 108 54 l 108 881 q 135 947 108 919 q 201 974 163 974 z "},"":{"ha":1028,"x_min":24,"x_max":1003,"o":"m 61 953 q 119 974 89 974 q 159 965 140 974 q 192 939 178 957 l 514 542 l 835 939 q 907 974 863 974 q 965 953 939 974 q 999 891 996 929 q 979 822 1003 853 l 606 361 l 606 93 q 578 27 606 54 q 514 0 551 0 q 448 27 475 0 q 421 93 421 54 l 421 361 l 47 822 q 27 891 24 853 q 61 953 31 929 z "},"":{"ha":1283,"x_min":86,"x_max":1197,"o":"m 86 339 l 86 636 q 113 768 86 707 q 185 875 139 829 q 292 947 231 921 q 425 974 354 974 l 858 974 q 990 947 928 974 q 1097 875 1051 921 q 1170 767 1143 829 q 1197 636 1197 706 l 1197 339 q 1170 208 1197 269 q 1097 100 1143 146 q 990 27 1051 54 q 858 0 928 0 l 735 0 l 735 -94 q 708 -160 735 -133 q 642 -187 681 -187 q 576 -160 603 -187 q 549 -94 549 -133 l 549 0 l 425 0 q 292 26 354 0 q 185 99 231 53 q 113 206 139 144 q 86 339 86 268 m 425 186 l 549 186 l 549 282 q 576 348 549 321 q 642 375 603 375 q 708 348 681 375 q 735 282 735 321 l 735 186 l 858 186 q 918 199 890 186 q 967 232 946 211 q 999 281 988 253 q 1011 339 1011 308 l 1011 636 q 999 696 1011 668 q 967 744 988 724 q 918 777 946 765 q 858 789 890 789 l 425 789 q 365 777 393 789 q 317 744 338 765 q 284 696 296 724 q 272 636 272 668 l 272 339 q 284 281 272 308 q 317 232 296 253 q 365 199 338 211 q 425 186 393 186 z "},"":{"ha":1026,"x_min":26,"x_max":1015,"o":"m 26 883 q 53 947 26 921 q 117 974 79 974 q 153 966 136 974 q 185 943 171 958 l 542 529 l 849 938 q 882 965 863 956 q 922 974 901 974 q 988 947 961 974 q 1015 881 1015 919 q 997 825 1015 849 l 404 38 q 371 9 390 18 q 329 0 351 0 q 264 27 290 0 q 238 93 238 54 q 256 149 238 125 l 431 381 l 49 825 q 26 883 26 849 z "},"":{"ha":1076,"x_min":78,"x_max":981,"o":"m 78 343 q 101 457 78 404 q 165 549 125 510 q 258 611 204 589 q 372 633 313 633 l 636 633 q 701 606 674 633 q 728 540 728 579 q 701 474 728 501 q 636 447 674 447 l 372 447 q 297 417 328 447 q 267 343 267 386 l 267 292 q 297 217 267 247 q 372 186 328 186 l 728 186 q 775 206 756 186 q 794 254 794 226 l 794 685 q 765 759 794 729 q 690 789 735 789 l 175 789 q 108 816 135 789 q 81 882 81 843 q 108 948 81 921 q 175 975 135 975 l 690 975 q 804 952 751 975 q 896 890 857 929 q 958 797 935 850 q 981 685 981 744 l 981 254 q 960 155 981 201 q 906 74 940 108 q 826 20 872 40 q 728 0 781 0 l 372 0 q 258 23 311 0 q 164 85 204 46 q 101 178 124 125 q 78 292 78 231 l 78 343 z "},"":{"ha":1071,"x_min":92,"x_max":994,"o":"m 382 975 l 703 975 q 817 952 764 975 q 909 890 869 929 q 972 797 949 850 q 994 683 994 744 l 994 660 q 972 546 994 599 q 909 453 949 493 q 817 391 869 414 q 703 368 764 368 l 438 368 q 372 395 399 368 q 344 461 344 422 q 372 527 344 500 q 438 554 399 554 l 703 554 q 778 585 747 554 q 808 660 808 615 l 808 683 q 778 758 808 728 q 703 789 747 789 l 382 789 q 308 759 339 789 q 278 685 278 729 l 278 290 q 308 217 278 247 q 382 186 339 186 l 899 186 q 965 159 938 186 q 992 93 992 132 q 965 27 992 54 q 899 0 938 0 l 382 0 q 269 23 322 0 q 176 85 215 46 q 115 177 138 124 q 92 290 92 231 l 92 685 q 115 799 92 746 q 176 890 138 851 q 269 952 215 929 q 382 975 322 975 z "},"":{"ha":1854,"x_min":93,"x_max":1761,"o":"m 479 974 l 633 974 q 783 942 711 974 q 907 856 854 911 l 926 832 l 947 856 q 1071 944 997 914 q 1221 974 1144 974 l 1375 974 q 1528 941 1457 974 q 1651 852 1599 908 q 1732 723 1703 796 q 1761 568 1761 650 l 1761 93 q 1734 27 1761 54 q 1668 0 1707 0 q 1602 27 1629 0 q 1575 93 1575 54 l 1575 568 q 1559 653 1575 614 q 1516 723 1543 693 q 1453 770 1489 753 q 1375 788 1417 788 l 1221 788 q 1143 770 1179 788 q 1080 723 1107 753 q 1037 653 1053 693 q 1021 568 1021 614 l 1021 93 q 994 27 1021 54 q 928 0 967 0 q 862 27 889 0 q 835 93 835 54 l 835 553 q 833 568 833 557 q 817 653 833 614 q 774 723 801 693 q 711 770 747 753 q 633 788 675 788 l 479 788 q 401 770 438 788 q 338 723 365 753 q 295 653 311 693 q 279 568 279 614 l 279 93 q 252 27 279 54 q 186 0 225 0 q 120 27 147 0 q 93 93 93 54 l 93 568 q 122 723 93 650 q 203 852 151 796 q 326 941 256 908 q 479 974 397 974 z "},"":{"ha":1131,"x_min":99,"x_max":1032,"o":"m 99 658 q 122 779 99 722 q 186 879 146 836 q 282 948 226 922 q 401 974 338 974 l 728 974 q 849 948 793 974 q 944 879 904 922 q 1008 779 985 836 q 1032 658 1032 722 l 1032 93 q 1005 27 1032 54 q 939 0 978 0 q 873 27 900 0 q 846 93 846 54 l 846 658 q 837 708 846 685 q 812 749 828 732 q 774 777 796 767 q 728 788 753 788 l 401 788 q 356 777 378 788 q 319 749 335 767 q 294 708 303 732 q 285 658 285 685 l 285 93 q 258 27 285 54 q 192 0 231 0 q 126 27 153 0 q 99 93 99 54 l 99 658 z "},"":{"ha":1139,"x_min":57,"x_max":1074,"o":"m 104 682 q 182 808 133 751 q 291 906 231 865 q 423 968 351 946 q 569 990 494 990 q 760 952 669 990 q 921 847 851 914 q 1032 687 990 779 q 1074 485 1074 594 q 1042 310 1074 393 q 956 161 1011 226 q 825 51 900 96 q 663 -11 750 6 l 663 -101 q 635 -167 663 -140 q 569 -194 608 -194 q 503 -167 531 -194 q 476 -101 476 -140 l 476 -11 q 267 80 358 11 q 124 246 176 149 q 65 457 72 343 q 104 682 57 571 m 476 181 l 476 325 q 503 391 476 364 q 569 418 531 418 q 635 391 608 418 q 663 325 663 364 l 663 181 q 803 268 747 206 q 878 408 858 331 q 879 566 899 485 q 794 711 860 647 q 689 781 747 758 q 568 804 631 804 q 448 781 506 804 q 343 711 390 758 q 277 617 300 668 q 251 512 254 565 q 260 406 247 458 q 303 310 274 354 q 376 231 332 265 q 476 181 419 197 z "},"":{"ha":1079,"x_min":108,"x_max":1025,"o":"m 108 93 l 108 881 q 135 947 108 919 q 201 974 163 974 l 671 974 q 809 946 744 974 q 922 870 874 918 q 997 758 969 822 q 1025 621 1025 694 q 997 483 1025 547 q 921 370 969 418 q 808 294 872 322 q 671 267 744 267 l 475 267 q 409 294 436 267 q 382 360 382 321 q 409 426 382 399 q 475 453 436 453 l 671 453 q 736 466 706 453 q 790 502 767 479 q 826 556 813 525 q 839 621 839 586 q 826 685 839 656 q 790 738 813 715 q 736 774 767 761 q 671 788 706 788 l 294 788 l 294 93 q 267 27 294 54 q 201 0 240 0 q 135 27 163 0 q 108 93 108 54 z "},"":{"ha":925,"x_min":25,"x_max":897,"o":"m 118 975 l 211 975 l 211 1026 q 238 1092 211 1065 q 304 1119 265 1119 q 370 1092 343 1119 q 397 1026 397 1065 l 397 975 l 651 975 q 717 948 690 975 q 744 882 744 921 q 717 816 744 843 q 651 789 690 789 l 397 789 l 397 289 q 428 216 397 246 q 500 186 458 186 l 804 186 q 870 159 843 186 q 897 93 897 132 q 870 27 897 54 q 804 0 843 0 l 500 0 q 388 23 440 0 q 297 85 336 46 q 234 176 257 124 q 211 289 211 229 l 211 789 l 118 789 q 52 816 79 789 q 25 882 25 843 q 52 948 25 921 q 118 975 79 975 z "},"\"":{"ha":567,"x_min":93,"x_max":485,"o":"m 329 903 q 352 958 329 935 q 407 981 375 981 q 462 958 439 981 q 485 903 485 935 l 485 713 q 462 658 485 681 q 407 635 439 635 q 352 658 375 635 q 329 713 329 681 l 329 903 m 93 903 q 116 958 93 935 q 171 981 139 981 q 226 958 203 981 q 249 903 249 935 l 249 713 q 226 658 249 681 q 171 635 203 635 q 116 658 139 635 q 93 713 93 681 l 93 903 z "},"@":{"ha":1167,"x_min":83,"x_max":1047,"o":"m 83 317 l 83 615 q 108 740 83 682 q 176 840 133 797 q 277 908 219 883 q 400 933 335 933 l 729 933 q 853 908 796 933 q 954 840 911 883 q 1022 740 997 797 q 1047 615 1047 682 l 1047 258 q 1026 206 1047 228 q 975 185 1006 185 l 478 185 q 399 201 436 185 q 334 244 361 217 q 291 308 307 271 q 275 388 275 346 l 275 546 q 291 624 275 588 q 334 689 307 661 q 399 733 361 717 q 478 749 436 749 l 653 749 q 731 733 694 749 q 796 689 768 717 q 840 624 824 661 q 856 546 856 588 l 856 331 l 901 331 l 901 615 q 888 683 901 651 q 851 737 874 714 q 797 774 828 760 q 729 788 765 788 l 400 788 q 334 774 365 788 q 280 737 303 760 q 243 683 257 714 q 229 615 229 651 l 229 317 q 243 251 229 282 q 280 197 257 219 q 334 160 303 174 q 400 146 365 146 l 968 146 q 1020 125 999 146 q 1042 74 1042 104 q 1020 22 1042 43 q 968 0 999 0 l 400 0 q 277 25 335 0 q 176 93 219 50 q 108 194 133 136 q 83 317 83 251 m 421 388 q 438 347 421 364 q 478 331 454 331 l 710 331 l 710 546 q 693 586 710 569 q 653 603 676 603 l 478 603 q 438 586 454 603 q 421 546 421 569 l 421 388 z "},"¨":{"ha":806,"x_min":138,"x_max":671,"o":"m 485 1142 q 512 1208 485 1181 q 578 1235 539 1235 q 644 1208 617 1235 q 671 1142 671 1181 l 671 1129 q 644 1063 671 1090 q 578 1036 617 1036 q 512 1063 539 1036 q 485 1129 485 1090 l 485 1142 m 138 1142 q 165 1208 138 1181 q 231 1235 192 1235 q 297 1208 269 1235 q 324 1142 324 1181 l 324 1129 q 297 1063 324 1090 q 231 1036 269 1036 q 165 1063 192 1036 q 138 1129 138 1090 l 138 1142 z "},"ä":{"ha":1076,"x_min":78,"x_max":981,"o":"m 78 292 l 78 343 q 101 457 78 404 q 165 549 125 510 q 258 611 204 589 q 372 633 313 633 l 794 633 l 794 685 q 765 758 794 729 q 690 788 735 788 l 175 788 q 108 815 135 788 q 81 882 81 843 q 108 947 81 921 q 175 974 135 974 l 690 974 q 804 951 751 974 q 896 889 857 928 q 958 797 935 850 q 981 685 981 744 l 981 254 q 960 155 981 201 q 906 74 940 108 q 826 20 872 40 q 728 0 781 0 l 372 0 q 258 23 311 0 q 164 85 204 46 q 101 178 124 125 q 78 292 78 231 m 372 186 l 728 186 q 775 206 756 186 q 794 254 794 226 l 794 447 l 372 447 q 297 417 328 447 q 267 343 267 386 l 267 292 q 297 217 267 247 q 372 186 328 186 m 632 1142 q 659 1208 632 1181 q 725 1235 686 1235 q 791 1208 764 1235 q 818 1142 818 1181 l 818 1129 q 791 1063 818 1090 q 725 1036 764 1036 q 659 1063 686 1036 q 632 1129 632 1090 l 632 1142 m 285 1142 q 312 1208 285 1181 q 378 1235 339 1235 q 444 1208 417 1235 q 471 1142 471 1181 l 471 1129 q 444 1063 471 1090 q 378 1036 417 1036 q 312 1063 339 1036 q 285 1129 285 1090 l 285 1142 z "},"Ä":{"ha":1104,"x_min":26,"x_max":1174,"o":"m 53 160 l 836 947 q 903 975 864 975 q 968 948 940 975 q 996 882 996 921 l 996 93 q 969 27 996 54 q 903 0 942 0 q 837 27 864 0 q 810 93 810 54 l 810 657 l 185 29 q 119 3 158 3 q 53 30 81 3 q 26 96 26 57 q 53 160 26 133 m 988 1143 q 1015 1209 988 1182 q 1081 1236 1042 1236 q 1147 1209 1119 1236 q 1174 1143 1174 1182 l 1174 1131 q 1147 1065 1174 1092 q 1081 1038 1119 1038 q 1015 1065 1042 1038 q 988 1131 988 1092 l 988 1143 m 640 1143 q 667 1209 640 1182 q 733 1236 694 1236 q 799 1209 772 1236 q 826 1143 826 1182 l 826 1131 q 799 1065 826 1092 q 733 1038 772 1038 q 667 1065 694 1038 q 640 1131 640 1092 l 640 1143 z "},"Ë":{"ha":1054,"x_min":92,"x_max":975,"o":"m 92 681 q 115 795 92 742 q 177 888 138 849 q 270 951 217 928 q 385 974 324 974 l 882 974 q 948 947 921 974 q 975 882 975 921 q 948 815 975 842 q 882 788 921 788 l 385 788 q 309 756 340 788 q 278 681 278 725 l 278 576 l 882 576 q 948 549 921 576 q 975 482 975 522 q 948 417 975 444 q 882 390 921 390 l 278 390 l 278 293 q 309 217 278 249 q 385 186 340 186 l 882 186 q 948 159 921 186 q 975 93 975 132 q 948 27 975 54 q 882 0 921 0 l 385 0 q 272 23 325 0 q 178 86 218 46 q 115 180 138 126 q 92 293 92 233 l 92 681 m 608 1143 q 635 1209 608 1182 q 701 1236 663 1236 q 767 1209 740 1236 q 794 1143 794 1182 l 794 1131 q 767 1065 794 1092 q 701 1038 740 1038 q 635 1065 663 1038 q 608 1131 608 1092 l 608 1143 m 261 1143 q 288 1209 261 1182 q 354 1236 315 1236 q 420 1209 393 1236 q 447 1143 447 1182 l 447 1131 q 420 1065 447 1092 q 354 1038 393 1038 q 288 1065 315 1038 q 261 1131 261 1092 l 261 1143 z "},"Ï":{"ha":403,"x_min":-65,"x_max":468,"o":"m 108 94 l 108 882 q 135 947 108 919 q 201 974 163 974 q 267 947 240 974 q 294 882 294 919 l 294 94 q 267 28 294 56 q 201 1 240 1 q 135 28 163 1 q 108 94 108 56 m 282 1143 q 309 1209 282 1182 q 375 1236 336 1236 q 441 1209 414 1236 q 468 1143 468 1182 l 468 1131 q 441 1065 468 1092 q 375 1038 414 1038 q 309 1065 336 1038 q 282 1131 282 1092 l 282 1143 m -65 1143 q -38 1209 -65 1182 q 28 1236 -11 1236 q 94 1209 67 1236 q 121 1143 121 1182 l 121 1131 q 94 1065 121 1092 q 28 1038 67 1038 q -38 1065 -11 1038 q -65 1131 -65 1092 l -65 1143 z "},"Ö":{"ha":1281,"x_min":85,"x_max":1196,"o":"m 424 974 l 857 974 q 988 947 926 974 q 1096 874 1050 919 q 1169 766 1142 828 q 1196 635 1196 704 l 1196 339 q 1169 208 1196 269 q 1096 100 1142 146 q 988 27 1050 54 q 857 0 926 0 l 424 0 q 291 26 353 0 q 183 99 229 53 q 111 206 138 144 q 85 339 85 268 l 85 635 q 111 767 85 706 q 183 875 138 829 q 291 947 229 921 q 424 974 353 974 m 424 186 l 857 186 q 917 199 889 186 q 965 232 944 211 q 998 281 986 253 q 1010 339 1010 308 l 1010 635 q 998 694 1010 667 q 965 743 986 722 q 917 776 944 764 q 857 788 889 788 l 424 788 q 364 776 392 788 q 315 743 336 764 q 283 694 294 722 q 271 635 271 667 l 271 339 q 283 281 271 308 q 315 232 294 253 q 364 199 336 211 q 424 186 392 186 m 721 1143 q 748 1209 721 1182 q 814 1236 775 1236 q 880 1209 853 1236 q 907 1143 907 1182 l 907 1131 q 880 1065 907 1092 q 814 1038 853 1038 q 748 1065 775 1038 q 721 1131 721 1092 l 721 1143 m 374 1143 q 401 1209 374 1182 q 467 1236 428 1236 q 533 1209 506 1236 q 560 1143 560 1182 l 560 1131 q 533 1065 560 1092 q 467 1038 506 1038 q 401 1065 428 1038 q 374 1131 374 1092 l 374 1143 z "},"Ü":{"ha":1131,"x_min":99,"x_max":1032,"o":"m 99 882 q 126 948 99 921 q 192 975 153 975 q 258 948 231 975 q 285 882 285 921 l 285 315 q 294 265 285 289 q 319 224 303 242 q 356 197 335 207 q 401 186 378 186 l 728 186 q 774 197 753 186 q 812 224 796 207 q 837 265 828 242 q 846 315 846 289 l 846 882 q 873 948 846 921 q 939 975 900 975 q 1005 948 978 975 q 1032 882 1032 921 l 1032 315 q 1008 194 1032 251 q 944 94 985 138 q 847 26 903 51 q 728 0 792 0 l 401 0 q 282 26 338 0 q 186 94 226 51 q 122 195 146 138 q 99 315 99 253 l 99 882 m 646 1143 q 673 1209 646 1182 q 739 1236 700 1236 q 805 1209 778 1236 q 832 1143 832 1182 l 832 1131 q 805 1065 832 1092 q 739 1038 778 1038 q 673 1065 700 1038 q 646 1131 646 1092 l 646 1143 m 299 1143 q 326 1209 299 1182 q 392 1236 353 1236 q 458 1209 431 1236 q 485 1143 485 1182 l 485 1131 q 458 1065 485 1092 q 392 1038 431 1038 q 326 1065 353 1038 q 299 1131 299 1092 l 299 1143 z "},"ü":{"ha":1169,"x_min":85,"x_max":1060,"o":"m 85 881 q 112 947 85 919 q 178 974 139 974 q 244 947 217 974 q 271 881 271 919 l 271 488 q 294 369 271 425 q 358 274 318 314 q 454 210 399 233 q 572 186 510 186 l 874 186 l 874 881 q 901 947 874 919 q 967 974 928 974 q 1033 947 1006 974 q 1060 881 1060 919 l 1060 93 q 1033 27 1060 54 q 967 0 1006 0 l 572 0 q 382 39 471 0 q 227 144 293 78 q 123 299 161 210 q 85 488 85 388 l 85 881 m 665 1142 q 692 1208 665 1181 q 758 1235 719 1235 q 824 1208 797 1235 q 851 1142 851 1181 l 851 1129 q 824 1063 851 1090 q 758 1036 797 1036 q 692 1063 719 1036 q 665 1129 665 1090 l 665 1142 m 318 1142 q 345 1208 318 1181 q 411 1235 372 1235 q 477 1208 450 1235 q 504 1142 504 1181 l 504 1129 q 477 1063 504 1090 q 411 1036 450 1036 q 345 1063 372 1036 q 318 1129 318 1090 l 318 1142 z "},"ö":{"ha":1138,"x_min":64,"x_max":1074,"o":"m 571 992 q 767 952 675 992 q 926 844 858 913 q 1034 683 994 775 q 1074 488 1074 592 q 1034 292 1074 383 q 926 131 994 200 q 765 22 857 63 q 569 -18 674 -18 q 374 22 465 -18 q 213 130 282 61 q 104 290 144 199 q 64 486 64 382 q 104 683 64 590 q 213 844 144 775 q 374 952 282 913 q 571 992 467 992 m 568 168 q 692 193 635 168 q 794 261 750 218 q 863 362 838 304 q 888 486 888 419 q 863 611 888 553 q 794 713 838 669 q 693 781 751 756 q 568 806 635 806 q 444 781 501 806 q 343 712 386 756 q 275 610 300 668 q 250 486 250 553 q 275 363 250 421 q 343 261 300 304 q 444 193 386 218 q 568 168 503 168 m 650 1142 q 677 1208 650 1181 q 743 1235 704 1235 q 809 1208 782 1235 q 836 1142 836 1181 l 836 1129 q 809 1063 836 1090 q 743 1036 782 1036 q 677 1063 704 1036 q 650 1129 650 1090 l 650 1142 m 303 1142 q 330 1208 303 1181 q 396 1235 357 1235 q 462 1208 435 1235 q 489 1142 489 1181 l 489 1129 q 462 1063 489 1090 q 396 1036 435 1036 q 330 1063 357 1036 q 303 1129 303 1090 l 303 1142 z "},"ï":{"ha":692,"x_min":51,"x_max":639,"o":"m 144 186 l 253 186 l 253 788 l 144 788 q 78 815 106 788 q 51 882 51 842 q 78 947 51 921 q 144 974 106 974 l 546 974 q 612 947 585 974 q 639 882 639 921 q 612 815 639 842 q 546 788 585 788 l 439 788 l 439 186 l 546 186 q 612 159 585 186 q 639 93 639 132 q 612 27 639 54 q 546 0 585 0 l 144 0 q 78 27 106 0 q 51 93 51 54 q 78 159 51 132 q 144 186 106 186 m 426 1142 q 453 1208 426 1181 q 519 1235 481 1235 q 585 1208 558 1235 q 613 1142 613 1181 l 613 1129 q 585 1063 613 1090 q 519 1036 558 1036 q 453 1063 481 1036 q 426 1129 426 1090 l 426 1142 m 79 1142 q 106 1208 79 1181 q 172 1235 133 1235 q 238 1208 211 1235 q 265 1142 265 1181 l 265 1129 q 238 1063 265 1090 q 172 1036 211 1036 q 106 1063 133 1036 q 79 1129 79 1090 l 79 1142 z "},"ë":{"ha":1071,"x_min":92,"x_max":994,"o":"m 92 290 l 92 683 q 115 797 92 744 q 176 889 138 850 q 269 951 215 928 q 382 974 322 974 l 703 974 q 817 951 764 974 q 909 888 869 928 q 972 796 949 849 q 994 682 994 743 l 994 660 q 972 546 994 599 q 909 453 949 493 q 817 391 869 414 q 703 368 764 368 l 278 368 l 278 290 q 308 217 278 247 q 382 186 339 186 l 899 186 q 965 159 938 186 q 992 93 992 132 q 965 27 992 54 q 899 0 938 0 l 382 0 q 269 23 322 0 q 176 85 215 46 q 115 177 138 124 q 92 290 92 231 m 278 683 l 278 554 l 703 554 q 778 585 747 554 q 808 660 808 615 l 808 682 q 778 757 808 726 q 703 788 747 788 l 382 788 q 308 758 339 788 q 278 683 278 728 m 617 1142 q 644 1208 617 1181 q 710 1235 671 1235 q 776 1208 749 1235 q 803 1142 803 1181 l 803 1129 q 776 1063 803 1090 q 710 1036 749 1036 q 644 1063 671 1036 q 617 1129 617 1090 l 617 1142 m 269 1142 q 297 1208 269 1181 q 363 1235 324 1235 q 428 1208 401 1235 q 456 1142 456 1181 l 456 1129 q 428 1063 456 1090 q 363 1036 401 1036 q 297 1063 324 1036 q 269 1129 269 1090 l 269 1142 z "},"´":{"ha":1033,"x_min":396,"x_max":672,"o":"m 396 1101 q 418 1156 396 1133 l 539 1276 q 594 1300 563 1300 q 649 1276 626 1300 q 672 1221 672 1253 q 649 1165 672 1189 l 529 1046 q 474 1024 507 1024 q 418 1047 440 1024 q 396 1101 396 1069 z "},"é":{"ha":1071,"x_min":92,"x_max":994,"o":"m 92 290 l 92 683 q 115 797 92 744 q 176 889 138 850 q 269 951 215 928 q 382 974 322 974 l 703 974 q 817 951 764 974 q 909 888 869 928 q 972 796 949 849 q 994 682 994 743 l 994 660 q 972 546 994 599 q 909 453 949 493 q 817 391 869 414 q 703 368 764 368 l 278 368 l 278 290 q 308 217 278 247 q 382 186 339 186 l 899 186 q 965 159 938 186 q 992 93 992 132 q 965 27 992 54 q 899 0 938 0 l 382 0 q 269 23 322 0 q 176 85 215 46 q 115 177 138 124 q 92 290 92 231 m 278 683 l 278 554 l 703 554 q 778 585 747 554 q 808 660 808 615 l 808 682 q 778 757 808 726 q 703 788 747 788 l 382 788 q 308 758 339 788 q 278 683 278 728 m 413 1101 q 435 1156 413 1133 l 556 1276 q 611 1300 579 1300 q 666 1276 643 1300 q 689 1221 689 1253 q 665 1165 689 1189 l 546 1046 q 490 1024 524 1024 q 435 1047 457 1024 q 413 1101 413 1069 z "},"É":{"ha":1054,"x_min":92,"x_max":975,"o":"m 92 681 q 115 795 92 742 q 177 888 138 849 q 270 951 217 928 q 385 974 324 974 l 882 974 q 948 947 921 974 q 975 882 975 921 q 948 815 975 842 q 882 788 921 788 l 385 788 q 309 756 340 788 q 278 681 278 725 l 278 576 l 882 576 q 948 549 921 576 q 975 482 975 522 q 948 417 975 444 q 882 390 921 390 l 278 390 l 278 293 q 309 217 278 249 q 385 186 340 186 l 882 186 q 948 159 921 186 q 975 93 975 132 q 948 27 975 54 q 882 0 921 0 l 385 0 q 272 23 325 0 q 178 86 218 46 q 115 180 138 126 q 92 293 92 233 l 92 681 m 389 1103 q 411 1157 389 1135 l 532 1278 q 588 1301 556 1301 q 642 1278 619 1301 q 665 1222 665 1254 q 642 1167 665 1190 l 522 1047 q 467 1025 500 1025 q 411 1048 433 1025 q 389 1103 389 1071 z "},"Í":{"ha":403,"x_min":63,"x_max":340,"o":"m 108 94 l 108 882 q 135 947 108 919 q 201 974 163 974 q 267 947 240 974 q 294 882 294 919 l 294 94 q 267 28 294 56 q 201 1 240 1 q 135 28 163 1 q 108 94 108 56 m 63 1103 q 85 1157 63 1135 l 206 1278 q 261 1301 229 1301 q 316 1278 293 1301 q 339 1222 339 1254 q 315 1167 339 1190 l 196 1047 q 140 1025 174 1025 q 85 1048 107 1025 q 63 1103 63 1071 z "},"Ó":{"ha":1281,"x_min":85,"x_max":1196,"o":"m 424 974 l 857 974 q 988 947 926 974 q 1096 874 1050 919 q 1169 766 1142 828 q 1196 635 1196 704 l 1196 339 q 1169 208 1196 269 q 1096 100 1142 146 q 988 27 1050 54 q 857 0 926 0 l 424 0 q 291 26 353 0 q 183 99 229 53 q 111 206 138 144 q 85 339 85 268 l 85 635 q 111 767 85 706 q 183 875 138 829 q 291 947 229 921 q 424 974 353 974 m 424 186 l 857 186 q 917 199 889 186 q 965 232 944 211 q 998 281 986 253 q 1010 339 1010 308 l 1010 635 q 998 694 1010 667 q 965 743 986 722 q 917 776 944 764 q 857 788 889 788 l 424 788 q 364 776 392 788 q 315 743 336 764 q 283 694 294 722 q 271 635 271 667 l 271 339 q 283 281 271 308 q 315 232 294 253 q 364 199 336 211 q 424 186 392 186 m 503 1103 q 525 1157 503 1135 l 646 1278 q 701 1301 669 1301 q 756 1278 733 1301 q 779 1222 779 1254 q 756 1167 779 1190 l 636 1047 q 581 1025 614 1025 q 525 1048 547 1025 q 503 1103 503 1071 z "},"í":{"ha":692,"x_min":51,"x_max":639,"o":"m 144 186 l 253 186 l 253 788 l 144 788 q 78 815 106 788 q 51 882 51 842 q 78 947 51 921 q 144 974 106 974 l 546 974 q 612 947 585 974 q 639 882 639 921 q 612 815 639 842 q 546 788 585 788 l 439 788 l 439 186 l 546 186 q 612 159 585 186 q 639 93 639 132 q 612 27 639 54 q 546 0 585 0 l 144 0 q 78 27 106 0 q 51 93 51 54 q 78 159 51 132 q 144 186 106 186 m 207 1101 q 229 1156 207 1133 l 350 1276 q 406 1300 374 1300 q 460 1276 438 1300 q 483 1221 483 1253 q 460 1165 483 1189 l 340 1046 q 285 1024 318 1024 q 229 1047 251 1024 q 207 1101 207 1069 z "},"ó":{"ha":1138,"x_min":64,"x_max":1074,"o":"m 571 992 q 767 952 675 992 q 926 844 858 913 q 1034 683 994 775 q 1074 488 1074 592 q 1034 292 1074 383 q 926 131 994 200 q 765 22 857 63 q 569 -18 674 -18 q 374 22 465 -18 q 213 130 282 61 q 104 290 144 199 q 64 486 64 382 q 104 683 64 590 q 213 844 144 775 q 374 952 282 913 q 571 992 467 992 m 568 168 q 692 193 635 168 q 794 261 750 218 q 863 362 838 304 q 888 486 888 419 q 863 611 888 553 q 794 713 838 669 q 693 781 751 756 q 568 806 635 806 q 444 781 501 806 q 343 712 386 756 q 275 610 300 668 q 250 486 250 553 q 275 363 250 421 q 343 261 300 304 q 444 193 386 218 q 568 168 503 168 m 431 1101 q 453 1156 431 1133 l 574 1276 q 629 1300 597 1300 q 684 1276 661 1300 q 707 1221 707 1253 q 683 1165 707 1189 l 564 1046 q 508 1024 542 1024 q 453 1047 475 1024 q 431 1101 431 1069 z "},"ú":{"ha":1169,"x_min":85,"x_max":1060,"o":"m 85 881 q 112 947 85 919 q 178 974 139 974 q 244 947 217 974 q 271 881 271 919 l 271 488 q 294 369 271 425 q 358 274 318 314 q 454 210 399 233 q 572 186 510 186 l 874 186 l 874 881 q 901 947 874 919 q 967 974 928 974 q 1033 947 1006 974 q 1060 881 1060 919 l 1060 93 q 1033 27 1060 54 q 967 0 1006 0 l 572 0 q 382 39 471 0 q 227 144 293 78 q 123 299 161 210 q 85 488 85 388 l 85 881 m 447 1101 q 469 1156 447 1133 l 590 1276 q 646 1300 614 1300 q 701 1276 678 1300 q 724 1221 724 1253 q 700 1165 724 1189 l 581 1046 q 525 1024 558 1024 q 469 1047 492 1024 q 447 1101 447 1069 z "},"ý":{"ha":1094,"x_min":78,"x_max":994,"o":"m 78 881 q 105 947 78 919 q 171 974 132 974 q 237 947 210 974 q 264 881 264 919 l 264 672 q 296 594 264 626 q 374 563 328 563 l 699 563 q 776 594 743 563 q 808 672 808 626 l 808 881 q 835 947 808 919 q 901 974 863 974 q 967 947 940 974 q 994 881 994 919 l 994 296 q 971 181 994 235 q 907 88 947 128 q 813 24 867 47 q 699 0 760 0 l 196 0 q 130 27 157 0 q 103 93 103 54 q 130 159 103 132 q 196 186 157 186 l 699 186 q 776 218 743 186 q 808 296 808 250 l 808 397 q 699 376 757 376 l 374 376 q 258 399 313 376 q 164 463 204 422 q 101 557 124 503 q 78 672 78 611 l 78 881 m 410 1101 q 432 1156 410 1133 l 553 1276 q 608 1300 576 1300 q 663 1276 640 1300 q 686 1221 686 1253 q 663 1165 686 1189 l 543 1046 q 488 1024 521 1024 q 432 1047 454 1024 q 410 1101 410 1069 z "},"ć":{"ha":1028,"x_min":63,"x_max":975,"o":"m 550 974 l 882 974 q 948 947 921 974 q 975 881 975 919 q 948 815 975 842 q 882 788 921 788 l 550 788 q 433 765 488 788 q 337 701 378 742 q 272 605 296 660 q 249 488 249 550 q 272 369 249 425 q 336 274 296 314 q 432 210 376 233 q 550 186 488 186 l 882 186 q 948 159 921 186 q 975 93 975 132 q 948 27 975 54 q 882 0 921 0 l 550 0 q 359 38 449 0 q 204 143 269 76 q 101 299 139 210 q 63 488 63 388 q 101 678 63 589 q 206 832 139 767 q 361 935 272 897 q 550 974 450 974 m 497 1101 q 519 1156 497 1133 l 640 1276 q 696 1300 664 1300 q 751 1276 728 1300 q 774 1221 774 1253 q 750 1165 774 1189 l 631 1046 q 575 1024 608 1024 q 519 1047 542 1024 q 497 1101 497 1069 z "},"`":{"ha":1039,"x_min":396,"x_max":672,"o":"m 396 1221 q 419 1276 396 1253 q 474 1300 442 1300 q 529 1276 506 1300 l 650 1156 q 672 1101 672 1133 q 650 1047 672 1069 q 594 1024 628 1024 q 539 1046 561 1024 l 419 1165 q 396 1221 396 1189 z "},"Á":{"ha":1104,"x_min":26,"x_max":1035,"o":"m 53 160 l 836 947 q 903 975 864 975 q 968 948 940 975 q 996 882 996 921 l 996 93 q 969 27 996 54 q 903 0 942 0 q 837 27 864 0 q 810 93 810 54 l 810 657 l 185 29 q 119 3 158 3 q 53 30 81 3 q 26 96 26 57 q 53 160 26 133 m 758 1103 q 781 1157 758 1135 l 901 1278 q 957 1301 925 1301 q 1012 1278 989 1301 q 1035 1222 1035 1254 q 1011 1167 1035 1190 l 892 1047 q 836 1025 869 1025 q 781 1048 803 1025 q 758 1103 758 1071 z "},"à":{"ha":1076,"x_min":78,"x_max":981,"o":"m 78 292 l 78 343 q 101 457 78 404 q 165 549 125 510 q 258 611 204 589 q 372 633 313 633 l 794 633 l 794 685 q 765 758 794 729 q 690 788 735 788 l 175 788 q 108 815 135 788 q 81 882 81 843 q 108 947 81 921 q 175 974 135 974 l 690 974 q 804 951 751 974 q 896 889 857 928 q 958 797 935 850 q 981 685 981 744 l 981 254 q 960 155 981 201 q 906 74 940 108 q 826 20 872 40 q 728 0 781 0 l 372 0 q 258 23 311 0 q 164 85 204 46 q 101 178 124 125 q 78 292 78 231 m 372 186 l 728 186 q 775 206 756 186 q 794 254 794 226 l 794 447 l 372 447 q 297 417 328 447 q 267 343 267 386 l 267 292 q 297 217 267 247 q 372 186 328 186 m 400 1221 q 423 1276 400 1253 q 478 1300 446 1300 q 533 1276 510 1300 l 654 1156 q 676 1101 676 1133 q 654 1047 676 1069 q 599 1024 632 1024 q 543 1046 565 1024 l 424 1165 q 400 1221 400 1189 z "},"á":{"ha":1076,"x_min":78,"x_max":981,"o":"m 78 292 l 78 343 q 101 457 78 404 q 165 549 125 510 q 258 611 204 589 q 372 633 313 633 l 794 633 l 794 685 q 765 758 794 729 q 690 788 735 788 l 175 788 q 108 815 135 788 q 81 882 81 843 q 108 947 81 921 q 175 974 135 974 l 690 974 q 804 951 751 974 q 896 889 857 928 q 958 797 935 850 q 981 685 981 744 l 981 254 q 960 155 981 201 q 906 74 940 108 q 826 20 872 40 q 728 0 781 0 l 372 0 q 258 23 311 0 q 164 85 204 46 q 101 178 124 125 q 78 292 78 231 m 372 186 l 728 186 q 775 206 756 186 q 794 254 794 226 l 794 447 l 372 447 q 297 417 328 447 q 267 343 267 386 l 267 292 q 297 217 267 247 q 372 186 328 186 m 400 1101 q 422 1156 400 1133 l 543 1276 q 599 1300 567 1300 q 653 1276 631 1300 q 676 1221 676 1253 q 653 1165 676 1189 l 533 1046 q 478 1024 511 1024 q 422 1047 444 1024 q 400 1101 400 1069 z "},"À":{"ha":1104,"x_min":26,"x_max":996,"o":"m 53 160 l 836 947 q 903 975 864 975 q 968 948 940 975 q 996 882 996 921 l 996 93 q 969 27 996 54 q 903 0 942 0 q 837 27 864 0 q 810 93 810 54 l 810 657 l 185 29 q 119 3 158 3 q 53 30 81 3 q 26 96 26 57 q 53 160 26 133 m 719 1225 q 742 1281 719 1257 q 797 1304 765 1304 q 853 1281 829 1304 l 974 1160 q 996 1106 996 1138 q 974 1051 996 1074 q 918 1028 951 1028 q 863 1050 885 1028 l 743 1169 q 719 1225 719 1193 z "},"Ò":{"ha":1281,"x_min":85,"x_max":1196,"o":"m 424 974 l 857 974 q 988 947 926 974 q 1096 874 1050 919 q 1169 766 1142 828 q 1196 635 1196 704 l 1196 339 q 1169 208 1196 269 q 1096 100 1142 146 q 988 27 1050 54 q 857 0 926 0 l 424 0 q 291 26 353 0 q 183 99 229 53 q 111 206 138 144 q 85 339 85 268 l 85 635 q 111 767 85 706 q 183 875 138 829 q 291 947 229 921 q 424 974 353 974 m 424 186 l 857 186 q 917 199 889 186 q 965 232 944 211 q 998 281 986 253 q 1010 339 1010 308 l 1010 635 q 998 694 1010 667 q 965 743 986 722 q 917 776 944 764 q 857 788 889 788 l 424 788 q 364 776 392 788 q 315 743 336 764 q 283 694 294 722 q 271 635 271 667 l 271 339 q 283 281 271 308 q 315 232 294 253 q 364 199 336 211 q 424 186 392 186 m 503 1222 q 526 1278 503 1254 q 581 1301 549 1301 q 636 1278 613 1301 l 757 1157 q 779 1103 779 1135 q 757 1048 779 1071 q 701 1025 735 1025 q 646 1047 668 1025 l 526 1167 q 503 1222 503 1190 z "},"Ù":{"ha":1131,"x_min":99,"x_max":1032,"o":"m 99 882 q 126 948 99 921 q 192 975 153 975 q 258 948 231 975 q 285 882 285 921 l 285 315 q 294 265 285 289 q 319 224 303 242 q 356 197 335 207 q 401 186 378 186 l 728 186 q 774 197 753 186 q 812 224 796 207 q 837 265 828 242 q 846 315 846 289 l 846 882 q 873 948 846 921 q 939 975 900 975 q 1005 948 978 975 q 1032 882 1032 921 l 1032 315 q 1008 194 1032 251 q 944 94 985 138 q 847 26 903 51 q 728 0 792 0 l 401 0 q 282 26 338 0 q 186 94 226 51 q 122 195 146 138 q 99 315 99 253 l 99 882 m 428 1208 q 451 1264 428 1240 q 506 1288 474 1288 q 561 1264 538 1288 l 682 1143 q 704 1089 704 1121 q 682 1034 704 1057 q 626 1011 660 1011 q 571 1033 593 1011 l 451 1153 q 428 1208 428 1176 z "},"Ú":{"ha":1131,"x_min":99,"x_max":1032,"o":"m 99 882 q 126 948 99 921 q 192 975 153 975 q 258 948 231 975 q 285 882 285 921 l 285 315 q 294 265 285 289 q 319 224 303 242 q 356 197 335 207 q 401 186 378 186 l 728 186 q 774 197 753 186 q 812 224 796 207 q 837 265 828 242 q 846 315 846 289 l 846 882 q 873 948 846 921 q 939 975 900 975 q 1005 948 978 975 q 1032 882 1032 921 l 1032 315 q 1008 194 1032 251 q 944 94 985 138 q 847 26 903 51 q 728 0 792 0 l 401 0 q 282 26 338 0 q 186 94 226 51 q 122 195 146 138 q 99 315 99 253 l 99 882 m 428 1103 q 450 1157 428 1135 l 571 1278 q 626 1301 594 1301 q 681 1278 658 1301 q 704 1222 704 1254 q 681 1167 704 1190 l 561 1047 q 506 1025 539 1025 q 450 1048 472 1025 q 428 1103 428 1071 z "},"Ÿ":{"ha":1044,"x_min":33,"x_max":1000,"o":"m 33 94 q 40 128 33 111 q 60 158 46 144 l 194 293 l 194 881 q 222 947 194 919 q 288 974 249 974 q 353 947 326 974 q 381 881 381 919 l 381 481 l 840 946 q 908 974 868 974 q 973 947 946 974 q 1000 882 1000 919 q 972 815 1000 843 l 193 28 q 162 6 179 13 q 126 0 144 0 q 60 27 88 0 q 33 94 33 54 m 672 1143 q 699 1209 672 1182 q 765 1236 726 1236 q 831 1209 804 1236 q 858 1143 858 1182 l 858 1131 q 831 1065 858 1092 q 765 1038 804 1038 q 699 1065 726 1038 q 672 1131 672 1092 l 672 1143 m 325 1143 q 352 1209 325 1182 q 418 1236 379 1236 q 484 1209 457 1236 q 511 1143 511 1182 l 511 1131 q 484 1065 511 1092 q 418 1038 457 1038 q 352 1065 379 1038 q 325 1131 325 1092 l 325 1143 z "},"Ý":{"ha":1044,"x_min":33,"x_max":1000,"o":"m 33 94 q 40 128 33 111 q 60 158 46 144 l 194 293 l 194 881 q 222 947 194 919 q 288 974 249 974 q 353 947 326 974 q 381 881 381 919 l 381 481 l 840 946 q 908 974 868 974 q 973 947 946 974 q 1000 882 1000 919 q 972 815 1000 843 l 193 28 q 162 6 179 13 q 126 0 144 0 q 60 27 88 0 q 33 94 33 54 m 486 1103 q 508 1157 486 1135 l 629 1278 q 685 1301 653 1301 q 740 1278 717 1301 q 763 1222 763 1254 q 739 1167 763 1190 l 619 1047 q 564 1025 597 1025 q 508 1048 531 1025 q 486 1103 486 1071 z "},"è":{"ha":1071,"x_min":92,"x_max":994,"o":"m 92 290 l 92 683 q 115 797 92 744 q 176 889 138 850 q 269 951 215 928 q 382 974 322 974 l 703 974 q 817 951 764 974 q 909 888 869 928 q 972 796 949 849 q 994 682 994 743 l 994 660 q 972 546 994 599 q 909 453 949 493 q 817 391 869 414 q 703 368 764 368 l 278 368 l 278 290 q 308 217 278 247 q 382 186 339 186 l 899 186 q 965 159 938 186 q 992 93 992 132 q 965 27 992 54 q 899 0 938 0 l 382 0 q 269 23 322 0 q 176 85 215 46 q 115 177 138 124 q 92 290 92 231 m 278 683 l 278 554 l 703 554 q 778 585 747 554 q 808 660 808 615 l 808 682 q 778 757 808 726 q 703 788 747 788 l 382 788 q 308 758 339 788 q 278 683 278 728 m 397 1221 q 420 1276 397 1253 q 475 1300 443 1300 q 531 1276 507 1300 l 651 1156 q 674 1101 674 1133 q 651 1047 674 1069 q 596 1024 629 1024 q 540 1046 563 1024 l 421 1165 q 397 1221 397 1189 z "},"ì":{"ha":692,"x_min":51,"x_max":639,"o":"m 144 186 l 253 186 l 253 788 l 144 788 q 78 815 106 788 q 51 882 51 842 q 78 947 51 921 q 144 974 106 974 l 546 974 q 612 947 585 974 q 639 882 639 921 q 612 815 639 842 q 546 788 585 788 l 439 788 l 439 186 l 546 186 q 612 159 585 186 q 639 93 639 132 q 612 27 639 54 q 546 0 585 0 l 144 0 q 78 27 106 0 q 51 93 51 54 q 78 159 51 132 q 144 186 106 186 m 207 1221 q 230 1276 207 1253 q 285 1300 253 1300 q 340 1276 317 1300 l 461 1156 q 483 1101 483 1133 q 461 1047 483 1069 q 406 1024 439 1024 q 350 1046 372 1024 l 231 1165 q 207 1221 207 1189 z "},"ò":{"ha":1138,"x_min":64,"x_max":1074,"o":"m 571 992 q 767 952 675 992 q 926 844 858 913 q 1034 683 994 775 q 1074 488 1074 592 q 1034 292 1074 383 q 926 131 994 200 q 765 22 857 63 q 569 -18 674 -18 q 374 22 465 -18 q 213 130 282 61 q 104 290 144 199 q 64 486 64 382 q 104 683 64 590 q 213 844 144 775 q 374 952 282 913 q 571 992 467 992 m 568 168 q 692 193 635 168 q 794 261 750 218 q 863 362 838 304 q 888 486 888 419 q 863 611 888 553 q 794 713 838 669 q 693 781 751 756 q 568 806 635 806 q 444 781 501 806 q 343 712 386 756 q 275 610 300 668 q 250 486 250 553 q 275 363 250 421 q 343 261 300 304 q 444 193 386 218 q 568 168 503 168 m 431 1221 q 453 1276 431 1253 q 508 1300 476 1300 q 564 1276 540 1300 l 685 1156 q 707 1101 707 1133 q 685 1047 707 1069 q 629 1024 663 1024 q 574 1046 596 1024 l 454 1165 q 431 1221 431 1189 z "},"Ì":{"ha":403,"x_min":63,"x_max":340,"o":"m 108 94 l 108 882 q 135 947 108 919 q 201 974 163 974 q 267 947 240 974 q 294 882 294 919 l 294 94 q 267 28 294 56 q 201 1 240 1 q 135 28 163 1 q 108 94 108 56 m 63 1222 q 85 1278 63 1254 q 140 1301 108 1301 q 196 1278 172 1301 l 317 1157 q 339 1103 339 1135 q 317 1048 339 1071 q 261 1025 294 1025 q 206 1047 228 1025 l 86 1167 q 63 1222 63 1190 z "},"Ć":{"ha":1028,"x_min":63,"x_max":975,"o":"m 550 974 l 882 974 q 948 947 921 974 q 975 881 975 919 q 948 815 975 842 q 882 788 921 788 l 550 788 q 433 765 488 788 q 337 701 378 742 q 272 605 296 660 q 249 488 249 550 q 272 369 249 425 q 336 274 296 314 q 432 210 376 233 q 550 186 488 186 l 882 186 q 948 159 921 186 q 975 93 975 132 q 948 27 975 54 q 882 0 921 0 l 550 0 q 359 38 449 0 q 204 143 269 76 q 101 299 139 210 q 63 488 63 388 q 101 678 63 589 q 206 832 139 767 q 361 935 272 897 q 550 974 450 974 m 488 1103 q 510 1157 488 1135 l 631 1278 q 686 1301 654 1301 q 741 1278 718 1301 q 764 1222 764 1254 q 740 1167 764 1190 l 621 1047 q 565 1025 599 1025 q 510 1048 532 1025 q 488 1103 488 1071 z "},"È":{"ha":1054,"x_min":92,"x_max":975,"o":"m 92 681 q 115 795 92 742 q 177 888 138 849 q 270 951 217 928 q 385 974 324 974 l 882 974 q 948 947 921 974 q 975 882 975 921 q 948 815 975 842 q 882 788 921 788 l 385 788 q 309 756 340 788 q 278 681 278 725 l 278 576 l 882 576 q 948 549 921 576 q 975 482 975 522 q 948 417 975 444 q 882 390 921 390 l 278 390 l 278 293 q 309 217 278 249 q 385 186 340 186 l 882 186 q 948 159 921 186 q 975 93 975 132 q 948 27 975 54 q 882 0 921 0 l 385 0 q 272 23 325 0 q 178 86 218 46 q 115 180 138 126 q 92 293 92 233 l 92 681 m 389 1222 q 412 1278 389 1254 q 467 1301 435 1301 q 522 1278 499 1301 l 643 1157 q 665 1103 665 1135 q 643 1048 665 1071 q 588 1025 621 1025 q 532 1047 554 1025 l 413 1167 q 389 1222 389 1190 z "},"":{"ha":1104,"x_min":24,"x_max":1125,"o":"m 43 139 l 493 926 q 528 961 506 949 q 575 974 550 974 q 622 961 600 974 q 656 926 643 949 l 1106 139 q 1115 69 1125 106 q 1071 13 1104 32 q 1025 0 1050 0 q 979 12 1001 0 q 944 47 957 24 l 874 171 l 275 171 l 204 47 q 169 12 192 24 q 124 0 147 0 q 78 13 99 0 q 35 69 46 32 q 43 139 24 106 m 767 357 l 575 693 l 382 357 l 767 357 m 414 1101 q 436 1156 414 1133 l 557 1276 q 613 1300 581 1300 q 667 1276 644 1300 q 690 1221 690 1253 q 667 1165 690 1189 l 547 1046 q 492 1024 525 1024 q 436 1047 458 1024 q 414 1101 414 1069 z "},"":{"ha":1104,"x_min":26,"x_max":1050,"o":"m 53 160 l 836 947 q 868 969 851 963 q 901 975 885 975 q 968 948 940 975 q 996 882 996 921 l 996 93 q 969 27 996 54 q 903 0 942 0 q 837 27 864 0 q 810 93 810 54 l 810 146 l 301 146 l 185 29 q 119 3 158 3 q 53 30 81 3 q 26 96 26 57 q 53 160 26 133 m 810 332 l 810 657 l 486 332 l 810 332 m 774 1101 q 796 1156 774 1133 l 917 1276 q 972 1300 940 1300 q 1027 1276 1004 1300 q 1050 1221 1050 1253 q 1026 1165 1050 1189 l 907 1046 q 851 1024 885 1024 q 796 1047 818 1024 q 774 1101 774 1069 z "},"ń":{"ha":1171,"x_min":108,"x_max":1083,"o":"m 108 93 l 108 881 q 135 947 108 919 q 201 974 163 974 l 596 974 q 786 935 697 974 q 941 830 875 896 q 1045 675 1007 764 q 1083 486 1083 586 l 1083 93 q 1056 27 1083 54 q 990 0 1029 0 q 924 27 951 0 q 897 93 897 54 l 897 486 q 874 604 897 549 q 810 700 850 660 q 714 764 769 740 q 596 788 658 788 l 294 788 l 294 93 q 267 27 294 54 q 201 0 240 0 q 135 27 163 0 q 108 93 108 54 m 447 1101 q 469 1156 447 1133 l 590 1276 q 646 1300 614 1300 q 701 1276 678 1300 q 724 1221 724 1253 q 700 1165 724 1189 l 581 1046 q 525 1024 558 1024 q 469 1047 492 1024 q 447 1101 447 1069 z "},"Ń":{"ha":1181,"x_min":108,"x_max":1072,"o":"m 200 972 q 237 966 219 972 q 268 944 254 960 l 886 319 l 886 879 q 913 945 886 918 q 979 972 940 972 q 1045 945 1018 972 q 1072 879 1072 918 l 1072 93 q 1045 27 1072 54 q 979 0 1018 0 q 944 6 961 0 q 913 28 926 13 l 294 653 l 294 93 q 267 27 294 54 q 201 0 240 0 q 135 27 163 0 q 108 93 108 54 l 108 879 q 135 944 108 917 q 200 972 163 972 m 453 1103 q 475 1157 453 1135 l 596 1278 q 651 1301 619 1301 q 706 1278 683 1301 q 729 1222 729 1254 q 706 1167 729 1190 l 586 1047 q 531 1025 564 1025 q 475 1048 497 1025 q 453 1103 453 1071 z "},"Ś":{"ha":1039,"x_min":74,"x_max":964,"o":"m 364 975 l 871 975 q 937 948 910 975 q 964 882 964 921 q 937 816 964 843 q 871 789 910 789 l 364 789 q 290 758 319 789 q 260 685 260 728 q 290 610 260 640 q 364 581 319 581 l 675 581 q 788 558 735 581 q 879 496 840 535 q 941 404 918 457 q 964 292 964 351 q 941 178 964 232 q 879 86 918 125 q 788 24 840 47 q 675 1 735 1 l 167 1 q 101 28 128 1 q 74 93 74 54 q 101 160 74 133 q 167 188 128 188 l 675 188 q 748 218 718 188 q 778 292 778 249 q 748 364 778 333 q 675 394 718 394 l 364 394 q 251 417 304 394 q 158 479 197 440 q 97 572 119 518 q 74 685 74 625 q 97 797 74 744 q 159 890 119 850 q 251 952 199 929 q 364 975 304 975 m 381 1103 q 403 1157 381 1135 l 524 1278 q 579 1301 547 1301 q 634 1278 611 1301 q 657 1222 657 1254 q 633 1167 657 1190 l 514 1047 q 458 1025 492 1025 q 403 1048 425 1025 q 381 1103 381 1071 z "},"ś":{"ha":1039,"x_min":74,"x_max":964,"o":"m 167 186 l 675 186 q 748 216 718 186 q 778 290 778 246 q 748 363 778 333 q 675 393 718 393 l 364 393 q 251 416 304 393 q 159 478 199 439 q 97 571 119 518 q 74 683 74 624 q 97 796 74 743 q 159 888 119 849 q 251 951 199 928 q 364 974 304 974 l 871 974 q 937 947 910 974 q 964 881 964 919 q 937 815 964 842 q 871 788 910 788 l 364 788 q 290 757 319 788 q 260 683 260 726 q 290 610 260 640 q 364 579 319 579 l 675 579 q 788 556 735 579 q 879 494 840 533 q 941 403 918 456 q 964 290 964 350 q 942 178 964 231 q 880 85 919 125 q 788 23 840 46 q 675 0 736 0 l 167 0 q 101 27 128 0 q 74 93 74 54 q 101 159 74 132 q 167 186 128 186 m 381 1101 q 403 1156 381 1133 l 524 1276 q 579 1300 547 1300 q 634 1276 611 1300 q 657 1221 657 1253 q 633 1165 657 1189 l 514 1046 q 458 1024 492 1024 q 403 1047 425 1024 q 381 1101 381 1069 z "},"ù":{"ha":1169,"x_min":85,"x_max":1060,"o":"m 85 881 q 112 947 85 919 q 178 974 139 974 q 244 947 217 974 q 271 881 271 919 l 271 488 q 294 369 271 425 q 358 274 318 314 q 454 210 399 233 q 572 186 510 186 l 874 186 l 874 881 q 901 947 874 919 q 967 974 928 974 q 1033 947 1006 974 q 1060 881 1060 919 l 1060 93 q 1033 27 1060 54 q 967 0 1006 0 l 572 0 q 382 39 471 0 q 227 144 293 78 q 123 299 161 210 q 85 488 85 388 l 85 881 m 447 1221 q 470 1276 447 1253 q 525 1300 493 1300 q 581 1276 557 1300 l 701 1156 q 724 1101 724 1133 q 701 1047 724 1069 q 646 1024 679 1024 q 590 1046 613 1024 l 471 1165 q 447 1221 447 1189 z "},"ˆ":{"ha":1035,"x_min":289,"x_max":758,"o":"m 289 1096 q 294 1123 289 1110 q 310 1147 299 1136 l 476 1313 q 522 1329 496 1329 q 549 1324 538 1329 q 568 1314 560 1319 l 571 1313 l 575 1308 l 738 1147 q 753 1123 749 1136 q 758 1096 758 1110 q 738 1043 758 1064 q 685 1022 717 1022 q 632 1043 653 1022 l 524 1151 l 415 1043 q 363 1022 394 1022 q 310 1043 331 1022 q 289 1096 289 1064 z "},"ˇ":{"ha":1046,"x_min":289,"x_max":758,"o":"m 363 1329 q 415 1308 394 1329 l 524 1200 l 632 1308 q 685 1329 653 1329 q 738 1308 717 1329 q 758 1256 758 1288 q 753 1228 758 1242 q 738 1204 749 1215 l 575 1043 q 550 1028 565 1033 q 521 1022 535 1022 q 476 1039 496 1022 l 310 1204 q 294 1228 299 1215 q 289 1256 289 1242 q 310 1308 289 1288 q 363 1329 331 1329 z "},"Â":{"ha":1104,"x_min":26,"x_max":1136,"o":"m 53 160 l 836 947 q 903 975 864 975 q 968 948 940 975 q 996 882 996 921 l 996 93 q 969 27 996 54 q 903 0 942 0 q 837 27 864 0 q 810 93 810 54 l 810 657 l 185 29 q 119 3 158 3 q 53 30 81 3 q 26 96 26 57 q 53 160 26 133 m 667 1097 q 672 1124 667 1111 q 688 1149 676 1138 l 854 1314 q 900 1331 874 1331 q 926 1326 915 1331 q 946 1315 938 1321 l 949 1314 l 953 1310 l 1115 1149 q 1131 1124 1126 1138 q 1136 1097 1136 1111 q 1115 1044 1136 1065 q 1063 1024 1094 1024 q 1010 1044 1031 1024 l 901 1153 l 793 1044 q 740 1024 772 1024 q 688 1044 708 1024 q 667 1097 667 1065 z "},"Ô":{"ha":1281,"x_min":85,"x_max":1196,"o":"m 424 974 l 857 974 q 988 947 926 974 q 1096 874 1050 919 q 1169 766 1142 828 q 1196 635 1196 704 l 1196 339 q 1169 208 1196 269 q 1096 100 1142 146 q 988 27 1050 54 q 857 0 926 0 l 424 0 q 291 26 353 0 q 183 99 229 53 q 111 206 138 144 q 85 339 85 268 l 85 635 q 111 767 85 706 q 183 875 138 829 q 291 947 229 921 q 424 974 353 974 m 424 186 l 857 186 q 917 199 889 186 q 965 232 944 211 q 998 281 986 253 q 1010 339 1010 308 l 1010 635 q 998 694 1010 667 q 965 743 986 722 q 917 776 944 764 q 857 788 889 788 l 424 788 q 364 776 392 788 q 315 743 336 764 q 283 694 294 722 q 271 635 271 667 l 271 339 q 283 281 271 308 q 315 232 294 253 q 364 199 336 211 q 424 186 392 186 m 406 1097 q 410 1124 406 1111 q 426 1149 415 1138 l 593 1314 q 639 1331 613 1331 q 665 1326 654 1331 q 685 1315 676 1321 l 688 1314 l 692 1310 l 854 1149 q 870 1124 865 1138 q 875 1097 875 1111 q 854 1044 875 1065 q 801 1024 833 1024 q 749 1044 769 1024 l 640 1153 l 532 1044 q 479 1024 511 1024 q 426 1044 447 1024 q 406 1097 406 1065 z "},"ê":{"ha":1071,"x_min":92,"x_max":994,"o":"m 92 290 l 92 683 q 115 797 92 744 q 176 889 138 850 q 269 951 215 928 q 382 974 322 974 l 703 974 q 817 951 764 974 q 909 888 869 928 q 972 796 949 849 q 994 682 994 743 l 994 660 q 972 546 994 599 q 909 453 949 493 q 817 391 869 414 q 703 368 764 368 l 278 368 l 278 290 q 308 217 278 247 q 382 186 339 186 l 899 186 q 965 159 938 186 q 992 93 992 132 q 965 27 992 54 q 899 0 938 0 l 382 0 q 269 23 322 0 q 176 85 215 46 q 115 177 138 124 q 92 290 92 231 m 278 683 l 278 554 l 703 554 q 778 585 747 554 q 808 660 808 615 l 808 682 q 778 757 808 726 q 703 788 747 788 l 382 788 q 308 758 339 788 q 278 683 278 728 m 301 1096 q 306 1123 301 1110 q 322 1147 311 1136 l 489 1313 q 535 1329 508 1329 q 561 1324 550 1329 q 581 1314 572 1319 l 583 1313 l 588 1308 l 750 1147 q 766 1123 761 1136 q 771 1096 771 1110 q 750 1043 771 1064 q 697 1022 729 1022 q 644 1043 665 1022 l 536 1151 l 428 1043 q 375 1022 407 1022 q 322 1043 343 1022 q 301 1096 301 1064 z "},"Ê":{"ha":1054,"x_min":92,"x_max":975,"o":"m 92 681 q 115 795 92 742 q 177 888 138 849 q 270 951 217 928 q 385 974 324 974 l 882 974 q 948 947 921 974 q 975 882 975 921 q 948 815 975 842 q 882 788 921 788 l 385 788 q 309 756 340 788 q 278 681 278 725 l 278 576 l 882 576 q 948 549 921 576 q 975 482 975 522 q 948 417 975 444 q 882 390 921 390 l 278 390 l 278 293 q 309 217 278 249 q 385 186 340 186 l 882 186 q 948 159 921 186 q 975 93 975 132 q 948 27 975 54 q 882 0 921 0 l 385 0 q 272 23 325 0 q 178 86 218 46 q 115 180 138 126 q 92 293 92 233 l 92 681 m 293 1097 q 298 1124 293 1111 q 314 1149 303 1138 l 481 1314 q 526 1331 500 1331 q 553 1326 542 1331 q 572 1315 564 1321 l 575 1314 l 579 1310 l 742 1149 q 758 1124 753 1138 q 763 1097 763 1111 q 742 1044 763 1065 q 689 1024 721 1024 q 636 1044 657 1024 l 528 1153 l 419 1044 q 367 1024 399 1024 q 314 1044 335 1024 q 293 1097 293 1065 z "},"â":{"ha":1076,"x_min":78,"x_max":981,"o":"m 78 292 l 78 343 q 101 457 78 404 q 165 549 125 510 q 258 611 204 589 q 372 633 313 633 l 794 633 l 794 685 q 765 758 794 729 q 690 788 735 788 l 175 788 q 108 815 135 788 q 81 882 81 843 q 108 947 81 921 q 175 974 135 974 l 690 974 q 804 951 751 974 q 896 889 857 928 q 958 797 935 850 q 981 685 981 744 l 981 254 q 960 155 981 201 q 906 74 940 108 q 826 20 872 40 q 728 0 781 0 l 372 0 q 258 23 311 0 q 164 85 204 46 q 101 178 124 125 q 78 292 78 231 m 372 186 l 728 186 q 775 206 756 186 q 794 254 794 226 l 794 447 l 372 447 q 297 417 328 447 q 267 343 267 386 l 267 292 q 297 217 267 247 q 372 186 328 186 m 304 1096 q 309 1123 304 1110 q 325 1147 314 1136 l 492 1313 q 538 1329 511 1329 q 564 1324 553 1329 q 583 1314 575 1319 l 586 1313 l 590 1308 l 753 1147 q 769 1123 764 1136 q 774 1096 774 1110 q 753 1043 774 1064 q 700 1022 732 1022 q 647 1043 668 1022 l 539 1151 l 431 1043 q 378 1022 410 1022 q 325 1043 346 1022 q 304 1096 304 1064 z "},"û":{"ha":1169,"x_min":85,"x_max":1060,"o":"m 85 881 q 112 947 85 919 q 178 974 139 974 q 244 947 217 974 q 271 881 271 919 l 271 488 q 294 369 271 425 q 358 274 318 314 q 454 210 399 233 q 572 186 510 186 l 874 186 l 874 881 q 901 947 874 919 q 967 974 928 974 q 1033 947 1006 974 q 1060 881 1060 919 l 1060 93 q 1033 27 1060 54 q 967 0 1006 0 l 572 0 q 382 39 471 0 q 227 144 293 78 q 123 299 161 210 q 85 488 85 388 l 85 881 m 350 1096 q 355 1123 350 1110 q 371 1147 360 1136 l 538 1313 q 583 1329 557 1329 q 610 1324 599 1329 q 629 1314 621 1319 l 632 1313 l 636 1308 l 799 1147 q 815 1123 810 1136 q 819 1096 819 1110 q 799 1043 819 1064 q 746 1022 778 1022 q 693 1043 714 1022 l 585 1151 l 476 1043 q 424 1022 456 1022 q 371 1043 392 1022 q 350 1096 350 1064 z "},"Û":{"ha":1131,"x_min":99,"x_max":1032,"o":"m 99 882 q 126 948 99 921 q 192 975 153 975 q 258 948 231 975 q 285 882 285 921 l 285 315 q 294 265 285 289 q 319 224 303 242 q 356 197 335 207 q 401 186 378 186 l 728 186 q 774 197 753 186 q 812 224 796 207 q 837 265 828 242 q 846 315 846 289 l 846 882 q 873 948 846 921 q 939 975 900 975 q 1005 948 978 975 q 1032 882 1032 921 l 1032 315 q 1008 194 1032 251 q 944 94 985 138 q 847 26 903 51 q 728 0 792 0 l 401 0 q 282 26 338 0 q 186 94 226 51 q 122 195 146 138 q 99 315 99 253 l 99 882 m 331 1097 q 335 1124 331 1111 q 351 1149 340 1138 l 518 1314 q 564 1331 538 1331 q 590 1326 579 1331 q 610 1315 601 1321 l 613 1314 l 617 1310 l 779 1149 q 795 1124 790 1138 q 800 1097 800 1111 q 779 1044 800 1065 q 726 1024 758 1024 q 674 1044 694 1024 l 565 1153 l 457 1044 q 404 1024 436 1024 q 351 1044 372 1024 q 331 1097 331 1065 z "},"ô":{"ha":1138,"x_min":64,"x_max":1074,"o":"m 571 992 q 767 952 675 992 q 926 844 858 913 q 1034 683 994 775 q 1074 488 1074 592 q 1034 292 1074 383 q 926 131 994 200 q 765 22 857 63 q 569 -18 674 -18 q 374 22 465 -18 q 213 130 282 61 q 104 290 144 199 q 64 486 64 382 q 104 683 64 590 q 213 844 144 775 q 374 952 282 913 q 571 992 467 992 m 568 168 q 692 193 635 168 q 794 261 750 218 q 863 362 838 304 q 888 486 888 419 q 863 611 888 553 q 794 713 838 669 q 693 781 751 756 q 568 806 635 806 q 444 781 501 806 q 343 712 386 756 q 275 610 300 668 q 250 486 250 553 q 275 363 250 421 q 343 261 300 304 q 444 193 386 218 q 568 168 503 168 m 335 1096 q 340 1123 335 1110 q 356 1147 344 1136 l 522 1313 q 568 1329 542 1329 q 594 1324 583 1329 q 614 1314 606 1319 l 617 1313 l 621 1308 l 783 1147 q 799 1123 794 1136 q 804 1096 804 1110 q 783 1043 804 1064 q 731 1022 763 1022 q 678 1043 699 1022 l 569 1151 l 461 1043 q 408 1022 440 1022 q 356 1043 376 1022 q 335 1096 335 1064 z "},"î":{"ha":692,"x_min":51,"x_max":639,"o":"m 144 186 l 253 186 l 253 788 l 144 788 q 78 815 106 788 q 51 882 51 842 q 78 947 51 921 q 144 974 106 974 l 546 974 q 612 947 585 974 q 639 882 639 921 q 612 815 639 842 q 546 788 585 788 l 439 788 l 439 186 l 546 186 q 612 159 585 186 q 639 93 639 132 q 612 27 639 54 q 546 0 585 0 l 144 0 q 78 27 106 0 q 51 93 51 54 q 78 159 51 132 q 144 186 106 186 m 111 1096 q 116 1123 111 1110 q 132 1147 121 1136 l 299 1313 q 344 1329 318 1329 q 371 1324 360 1329 q 390 1314 382 1319 l 393 1313 l 397 1308 l 560 1147 q 576 1123 571 1136 q 581 1096 581 1110 q 560 1043 581 1064 q 507 1022 539 1022 q 454 1043 475 1022 l 346 1151 l 238 1043 q 185 1022 217 1022 q 132 1043 153 1022 q 111 1096 111 1064 z "},"Î":{"ha":403,"x_min":-33,"x_max":436,"o":"m 108 94 l 108 882 q 135 947 108 919 q 201 974 163 974 q 267 947 240 974 q 294 882 294 919 l 294 94 q 267 28 294 56 q 201 1 240 1 q 135 28 163 1 q 108 94 108 56 m -33 1097 q -28 1124 -33 1111 q -12 1149 -24 1138 l 154 1314 q 200 1331 174 1331 q 226 1326 215 1331 q 246 1315 238 1321 l 249 1314 l 253 1310 l 415 1149 q 431 1124 426 1138 q 436 1097 436 1111 q 415 1044 436 1065 q 363 1024 394 1024 q 310 1044 331 1024 l 201 1153 l 93 1044 q 40 1024 72 1024 q -12 1044 8 1024 q -33 1097 -33 1065 z "},"Č":{"ha":1028,"x_min":63,"x_max":975,"o":"m 550 974 l 882 974 q 948 947 921 974 q 975 881 975 919 q 948 815 975 842 q 882 788 921 788 l 550 788 q 433 765 488 788 q 337 701 378 742 q 272 605 296 660 q 249 488 249 550 q 272 369 249 425 q 336 274 296 314 q 432 210 376 233 q 550 186 488 186 l 882 186 q 948 159 921 186 q 975 93 975 132 q 948 27 975 54 q 882 0 921 0 l 550 0 q 359 38 449 0 q 204 143 269 76 q 101 299 139 210 q 63 488 63 388 q 101 678 63 589 q 206 832 139 767 q 361 935 272 897 q 550 974 450 974 m 408 1331 q 461 1310 440 1331 l 569 1201 l 678 1310 q 731 1331 699 1331 q 783 1310 763 1331 q 804 1257 804 1289 q 799 1230 804 1243 q 783 1206 794 1217 l 621 1044 q 596 1029 611 1035 q 567 1024 581 1024 q 522 1040 542 1024 l 356 1206 q 340 1230 344 1217 q 335 1257 335 1243 q 356 1310 335 1289 q 408 1331 376 1331 z "},"č":{"ha":1028,"x_min":63,"x_max":975,"o":"m 550 974 l 882 974 q 948 947 921 974 q 975 881 975 919 q 948 815 975 842 q 882 788 921 788 l 550 788 q 433 765 488 788 q 337 701 378 742 q 272 605 296 660 q 249 488 249 550 q 272 369 249 425 q 336 274 296 314 q 432 210 376 233 q 550 186 488 186 l 882 186 q 948 159 921 186 q 975 93 975 132 q 948 27 975 54 q 882 0 921 0 l 550 0 q 359 38 449 0 q 204 143 269 76 q 101 299 139 210 q 63 488 63 388 q 101 678 63 589 q 206 832 139 767 q 361 935 272 897 q 550 974 450 974 m 408 1329 q 461 1308 440 1329 l 569 1200 l 678 1308 q 731 1329 699 1329 q 783 1308 763 1329 q 804 1256 804 1288 q 799 1228 804 1242 q 783 1204 794 1215 l 621 1043 q 596 1028 611 1033 q 567 1022 581 1022 q 522 1039 542 1022 l 356 1204 q 340 1228 344 1215 q 335 1256 335 1242 q 356 1308 335 1288 q 408 1329 376 1329 z "},"Ď":{"ha":1150,"x_min":108,"x_max":1088,"o":"m 108 93 l 108 881 q 135 947 108 919 q 201 974 163 974 l 600 974 q 790 935 701 974 q 945 831 879 897 q 1049 676 1011 764 q 1088 488 1088 588 q 1049 299 1088 388 q 946 143 1011 210 q 792 38 881 76 q 600 0 703 0 l 201 0 q 135 27 163 0 q 108 93 108 54 m 294 788 l 294 186 l 600 186 q 718 210 663 186 q 814 274 774 233 q 878 369 854 314 q 901 488 901 425 q 878 605 901 550 q 813 701 854 660 q 717 765 772 742 q 600 788 663 788 l 294 788 m 317 1331 q 369 1310 349 1331 l 478 1201 l 586 1310 q 639 1331 607 1331 q 692 1310 671 1331 q 713 1257 713 1289 q 708 1230 713 1243 q 692 1206 703 1217 l 529 1044 q 504 1029 519 1035 q 475 1024 489 1024 q 431 1040 450 1024 l 264 1206 q 248 1230 253 1217 q 243 1257 243 1243 q 264 1310 243 1289 q 317 1331 285 1331 z "},"Ĝ":{"ha":1064,"x_min":63,"x_max":976,"o":"m 550 974 l 883 974 q 949 947 922 974 q 976 881 976 919 q 949 815 976 842 q 883 788 922 788 l 550 788 q 433 764 488 788 q 337 700 378 740 q 272 605 296 660 q 249 488 249 550 q 272 370 249 425 q 337 274 296 315 q 433 210 378 233 q 550 186 488 186 l 790 186 l 790 421 q 817 487 790 460 q 883 514 844 514 q 949 487 922 514 q 976 421 976 460 l 976 93 q 949 27 976 54 q 883 0 922 0 l 550 0 q 360 38 449 0 q 205 142 271 76 q 101 297 139 208 q 63 485 63 385 q 99 670 63 582 q 201 826 136 758 q 356 933 267 893 q 550 974 446 974 m 297 1097 q 302 1124 297 1111 q 318 1149 307 1138 l 485 1314 q 531 1331 504 1331 q 557 1326 546 1331 q 576 1315 568 1321 l 579 1314 l 583 1310 l 746 1149 q 762 1124 757 1138 q 767 1097 767 1111 q 746 1044 767 1065 q 693 1024 725 1024 q 640 1044 661 1024 l 532 1153 l 424 1044 q 371 1024 403 1024 q 318 1044 339 1024 q 297 1097 297 1065 z "},"ě":{"ha":1071,"x_min":92,"x_max":994,"o":"m 92 290 l 92 683 q 115 797 92 744 q 176 889 138 850 q 269 951 215 928 q 382 974 322 974 l 703 974 q 817 951 764 974 q 909 888 869 928 q 972 796 949 849 q 994 682 994 743 l 994 660 q 972 546 994 599 q 909 453 949 493 q 817 391 869 414 q 703 368 764 368 l 278 368 l 278 290 q 308 217 278 247 q 382 186 339 186 l 899 186 q 965 159 938 186 q 992 93 992 132 q 965 27 992 54 q 899 0 938 0 l 382 0 q 269 23 322 0 q 176 85 215 46 q 115 177 138 124 q 92 290 92 231 m 278 683 l 278 554 l 703 554 q 778 585 747 554 q 808 660 808 615 l 808 682 q 778 757 808 726 q 703 788 747 788 l 382 788 q 308 758 339 788 q 278 683 278 728 m 375 1329 q 428 1308 407 1329 l 536 1200 l 644 1308 q 697 1329 665 1329 q 750 1308 729 1329 q 771 1256 771 1288 q 766 1228 771 1242 q 750 1204 761 1215 l 588 1043 q 563 1028 578 1033 q 533 1022 547 1022 q 489 1039 508 1022 l 322 1204 q 306 1228 311 1215 q 301 1256 301 1242 q 322 1308 301 1288 q 375 1329 343 1329 z "},"Ě":{"ha":1054,"x_min":92,"x_max":975,"o":"m 92 681 q 115 795 92 742 q 177 888 138 849 q 270 951 217 928 q 385 974 324 974 l 882 974 q 948 947 921 974 q 975 882 975 921 q 948 815 975 842 q 882 788 921 788 l 385 788 q 309 756 340 788 q 278 681 278 725 l 278 576 l 882 576 q 948 549 921 576 q 975 482 975 522 q 948 417 975 444 q 882 390 921 390 l 278 390 l 278 293 q 309 217 278 249 q 385 186 340 186 l 882 186 q 948 159 921 186 q 975 93 975 132 q 948 27 975 54 q 882 0 921 0 l 385 0 q 272 23 325 0 q 178 86 218 46 q 115 180 138 126 q 92 293 92 233 l 92 681 m 367 1331 q 419 1310 399 1331 l 528 1201 l 636 1310 q 689 1331 657 1331 q 742 1310 721 1331 q 763 1257 763 1289 q 758 1230 763 1243 q 742 1206 753 1217 l 579 1044 q 554 1029 569 1035 q 525 1024 539 1024 q 481 1040 500 1024 l 314 1206 q 298 1230 303 1217 q 293 1257 293 1243 q 314 1310 293 1289 q 367 1331 335 1331 z "},"ĝ":{"ha":1064,"x_min":49,"x_max":976,"o":"m 550 974 l 883 974 q 949 947 922 974 q 976 881 976 919 q 949 815 976 842 q 883 788 922 788 l 550 788 q 433 764 488 788 q 337 700 378 740 q 272 605 296 660 q 249 488 249 550 q 272 370 249 425 q 337 274 296 315 q 433 210 378 233 q 550 186 488 186 l 790 186 l 790 421 q 817 487 790 460 q 883 514 844 514 q 949 487 922 514 q 976 421 976 460 l 976 93 q 949 27 976 54 q 883 0 922 0 l 550 0 q 406 22 475 0 q 279 83 338 43 q 175 178 221 122 q 100 300 129 233 q 64 540 49 419 q 144 756 79 660 q 314 913 208 853 q 550 974 419 974 m 297 1096 q 302 1123 297 1110 q 318 1147 307 1136 l 485 1313 q 531 1329 504 1329 q 557 1324 546 1329 q 576 1314 568 1319 l 579 1313 l 583 1308 l 746 1147 q 762 1123 757 1136 q 767 1096 767 1110 q 746 1043 767 1064 q 693 1022 725 1022 q 640 1043 661 1022 l 532 1151 l 424 1043 q 371 1022 403 1022 q 318 1043 339 1022 q 297 1096 297 1064 z "},"Ĥ":{"ha":1107,"x_min":108,"x_max":997,"o":"m 201 975 q 267 948 240 975 q 294 882 294 921 l 294 579 l 811 579 l 811 882 q 838 948 811 921 q 906 975 865 975 q 971 948 944 975 q 997 882 997 921 l 997 94 q 971 28 997 56 q 906 1 944 1 q 838 28 865 1 q 811 94 811 56 l 811 393 l 294 393 l 294 94 q 267 28 294 56 q 201 1 240 1 q 135 28 163 1 q 108 94 108 56 l 108 882 q 135 948 108 921 q 201 975 163 975 m 319 1097 q 324 1124 319 1111 q 340 1149 329 1138 l 507 1314 q 553 1331 526 1331 q 579 1326 568 1331 q 599 1315 590 1321 l 601 1314 l 606 1310 l 768 1149 q 784 1124 779 1138 q 789 1097 789 1111 q 768 1044 789 1065 q 715 1024 747 1024 q 663 1044 683 1024 l 554 1153 l 446 1044 q 393 1024 425 1024 q 340 1044 361 1024 q 319 1097 319 1065 z "},"ĥ":{"ha":1107,"x_min":75,"x_max":1019,"o":"m 353 506 q 381 575 353 546 q 449 604 410 604 l 824 604 l 824 878 q 853 946 824 918 q 922 974 882 974 q 991 946 963 974 q 1019 878 1019 918 l 1019 94 q 991 26 1019 54 q 922 -3 963 -3 q 853 26 882 -3 q 824 94 824 54 l 824 408 l 449 408 q 381 437 410 408 q 353 506 353 465 m 172 974 q 242 946 213 974 q 271 878 271 918 l 271 94 q 242 26 271 54 q 172 -3 213 -3 q 103 26 132 -3 q 75 94 75 54 l 75 878 q 103 946 75 918 q 172 974 132 974 m 319 1096 q 324 1123 319 1110 q 340 1147 329 1136 l 507 1313 q 553 1329 526 1329 q 579 1324 568 1329 q 599 1314 590 1319 l 601 1313 l 606 1308 l 768 1147 q 784 1123 779 1136 q 789 1096 789 1110 q 768 1043 789 1064 q 715 1022 747 1022 q 663 1043 683 1022 l 554 1151 l 446 1043 q 393 1022 425 1022 q 340 1043 361 1022 q 319 1096 319 1064 z "},"ÿ":{"ha":1094,"x_min":78,"x_max":994,"o":"m 78 881 q 105 947 78 919 q 171 974 132 974 q 237 947 210 974 q 264 881 264 919 l 264 672 q 296 594 264 626 q 374 563 328 563 l 699 563 q 776 594 743 563 q 808 672 808 626 l 808 881 q 835 947 808 919 q 901 974 863 974 q 967 947 940 974 q 994 881 994 919 l 994 296 q 971 181 994 235 q 907 88 947 128 q 813 24 867 47 q 699 0 760 0 l 196 0 q 130 27 157 0 q 103 93 103 54 q 130 159 103 132 q 196 186 157 186 l 699 186 q 776 218 743 186 q 808 296 808 250 l 808 397 q 699 376 757 376 l 374 376 q 258 399 313 376 q 164 463 204 422 q 101 557 124 503 q 78 672 78 611 l 78 881 m 628 1142 q 655 1208 628 1181 q 721 1235 682 1235 q 787 1208 760 1235 q 814 1142 814 1181 l 814 1129 q 787 1063 814 1090 q 721 1036 760 1036 q 655 1063 682 1036 q 628 1129 628 1090 l 628 1142 m 281 1142 q 308 1208 281 1181 q 374 1235 335 1235 q 440 1208 413 1235 q 467 1142 467 1181 l 467 1129 q 440 1063 467 1090 q 374 1036 413 1036 q 308 1063 335 1036 q 281 1129 281 1090 l 281 1142 z "},"Ð":{"ha":1150,"x_min":4,"x_max":1088,"o":"m 108 93 l 108 881 q 135 947 108 919 q 201 974 163 974 l 600 974 q 790 935 701 974 q 945 831 879 897 q 1049 676 1011 764 q 1088 488 1088 588 q 1049 299 1088 388 q 946 143 1011 210 q 792 38 881 76 q 600 0 703 0 l 201 0 q 135 27 163 0 q 108 93 108 54 m 294 788 l 294 186 l 600 186 q 718 210 663 186 q 814 274 774 233 q 878 369 854 314 q 901 488 901 425 q 878 605 901 550 q 813 701 854 660 q 717 765 772 742 q 600 788 663 788 l 294 788 m 97 579 l 485 579 q 551 552 524 579 q 578 486 578 525 q 551 420 578 447 q 485 393 524 393 l 97 393 q 31 420 58 393 q 4 486 4 447 q 31 552 4 525 q 97 579 58 579 z "},"Ň":{"ha":1181,"x_min":108,"x_max":1072,"o":"m 200 972 q 237 966 219 972 q 268 944 254 960 l 886 319 l 886 879 q 913 945 886 918 q 979 972 940 972 q 1045 945 1018 972 q 1072 879 1072 918 l 1072 93 q 1045 27 1072 54 q 979 0 1018 0 q 944 6 961 0 q 913 28 926 13 l 294 653 l 294 93 q 267 27 294 54 q 201 0 240 0 q 135 27 163 0 q 108 93 108 54 l 108 879 q 135 944 108 917 q 200 972 163 972 m 429 1331 q 482 1310 461 1331 l 590 1201 l 699 1310 q 751 1331 719 1331 q 804 1310 783 1331 q 825 1257 825 1289 q 820 1230 825 1243 q 804 1206 815 1217 l 642 1044 q 617 1029 632 1035 q 588 1024 601 1024 q 543 1040 563 1024 l 376 1206 q 360 1230 365 1217 q 356 1257 356 1243 q 376 1310 356 1289 q 429 1331 397 1331 z "},"ň":{"ha":1171,"x_min":108,"x_max":1083,"o":"m 108 93 l 108 881 q 135 947 108 919 q 201 974 163 974 l 596 974 q 786 935 697 974 q 941 830 875 896 q 1045 675 1007 764 q 1083 486 1083 586 l 1083 93 q 1056 27 1083 54 q 990 0 1029 0 q 924 27 951 0 q 897 93 897 54 l 897 486 q 874 604 897 549 q 810 700 850 660 q 714 764 769 740 q 596 788 658 788 l 294 788 l 294 93 q 267 27 294 54 q 201 0 240 0 q 135 27 163 0 q 108 93 108 54 m 425 1329 q 478 1308 457 1329 l 586 1200 l 694 1308 q 747 1329 715 1329 q 800 1308 779 1329 q 821 1256 821 1288 q 816 1228 821 1242 q 800 1204 811 1215 l 638 1043 q 613 1028 628 1033 q 583 1022 597 1022 q 539 1039 558 1022 l 372 1204 q 356 1228 361 1215 q 351 1256 351 1242 q 372 1308 351 1288 q 425 1329 393 1329 z "},"Ŕ":{"ha":1104,"x_min":108,"x_max":1033,"o":"m 108 93 l 108 881 q 135 947 108 919 q 201 974 163 974 l 700 974 q 828 947 768 974 q 935 876 889 921 q 1007 772 981 832 q 1033 642 1033 711 q 1018 542 1033 590 q 974 454 1003 494 q 907 382 946 414 q 821 331 868 350 l 979 154 q 1004 90 1004 128 q 977 25 1004 51 q 911 -1 950 -1 q 842 29 868 -1 l 590 308 l 294 308 l 294 93 q 267 27 294 54 q 201 0 240 0 q 135 27 163 0 q 108 93 108 54 m 294 494 l 700 494 q 757 506 731 494 q 803 538 783 518 q 835 585 824 558 q 847 642 847 611 q 835 699 847 672 q 803 745 824 725 q 757 776 783 765 q 700 788 731 788 l 294 788 l 294 494 m 414 1103 q 436 1157 414 1135 l 557 1278 q 613 1301 581 1301 q 667 1278 644 1301 q 690 1222 690 1254 q 667 1167 690 1190 l 547 1047 q 492 1025 525 1025 q 436 1048 458 1025 q 414 1103 414 1071 z "},"ŕ":{"ha":896,"x_min":100,"x_max":869,"o":"m 393 974 l 776 974 q 842 947 815 974 q 869 881 869 919 q 842 815 869 842 q 776 788 815 788 l 393 788 q 317 756 349 788 q 286 681 286 725 l 286 93 q 259 27 286 54 q 193 0 232 0 q 127 27 154 0 q 100 93 100 54 l 100 681 q 123 794 100 742 q 186 888 146 847 q 280 951 226 928 q 393 974 333 974 m 310 1101 q 332 1156 310 1133 l 453 1276 q 508 1300 476 1300 q 563 1276 540 1300 q 586 1221 586 1253 q 563 1165 586 1189 l 443 1046 q 388 1024 421 1024 q 332 1047 354 1024 q 310 1101 310 1069 z "},"Ř":{"ha":1104,"x_min":108,"x_max":1033,"o":"m 108 93 l 108 881 q 135 947 108 919 q 201 974 163 974 l 700 974 q 828 947 768 974 q 935 876 889 921 q 1007 772 981 832 q 1033 642 1033 711 q 1018 542 1033 590 q 974 454 1003 494 q 907 382 946 414 q 821 331 868 350 l 979 154 q 1004 90 1004 128 q 977 25 1004 51 q 911 -1 950 -1 q 842 29 868 -1 l 590 308 l 294 308 l 294 93 q 267 27 294 54 q 201 0 240 0 q 135 27 163 0 q 108 93 108 54 m 294 494 l 700 494 q 757 506 731 494 q 803 538 783 518 q 835 585 824 558 q 847 642 847 611 q 835 699 847 672 q 803 745 824 725 q 757 776 783 765 q 700 788 731 788 l 294 788 l 294 494 m 392 1331 q 444 1310 424 1331 l 553 1201 l 661 1310 q 714 1331 682 1331 q 767 1310 746 1331 q 788 1257 788 1289 q 783 1230 788 1243 q 767 1206 778 1217 l 604 1044 q 579 1029 594 1035 q 550 1024 564 1024 q 506 1040 525 1024 l 339 1206 q 323 1230 328 1217 q 318 1257 318 1243 q 339 1310 318 1289 q 392 1331 360 1331 z "},"ř":{"ha":896,"x_min":100,"x_max":869,"o":"m 393 974 l 776 974 q 842 947 815 974 q 869 881 869 919 q 842 815 869 842 q 776 788 815 788 l 393 788 q 317 756 349 788 q 286 681 286 725 l 286 93 q 259 27 286 54 q 193 0 232 0 q 127 27 154 0 q 100 93 100 54 l 100 681 q 123 794 100 742 q 186 888 146 847 q 280 951 226 928 q 393 974 333 974 m 286 1329 q 339 1308 318 1329 l 447 1200 l 556 1308 q 608 1329 576 1329 q 661 1308 640 1329 q 682 1256 682 1288 q 677 1228 682 1242 q 661 1204 672 1215 l 499 1043 q 474 1028 489 1033 q 444 1022 458 1022 q 400 1039 419 1022 l 233 1204 q 217 1228 222 1215 q 213 1256 213 1242 q 233 1308 213 1288 q 286 1329 254 1329 z "},"Ŝ":{"ha":1039,"x_min":74,"x_max":964,"o":"m 364 975 l 871 975 q 937 948 910 975 q 964 882 964 921 q 937 816 964 843 q 871 789 910 789 l 364 789 q 290 758 319 789 q 260 685 260 728 q 290 610 260 640 q 364 581 319 581 l 675 581 q 788 558 735 581 q 879 496 840 535 q 941 404 918 457 q 964 292 964 351 q 941 178 964 232 q 879 86 918 125 q 788 24 840 47 q 675 1 735 1 l 167 1 q 101 28 128 1 q 74 93 74 54 q 101 160 74 133 q 167 188 128 188 l 675 188 q 748 218 718 188 q 778 292 778 249 q 748 364 778 333 q 675 394 718 394 l 364 394 q 251 417 304 394 q 158 479 197 440 q 97 572 119 518 q 74 685 74 625 q 97 797 74 744 q 159 890 119 850 q 251 952 199 929 q 364 975 304 975 m 285 1097 q 290 1124 285 1111 q 306 1149 294 1138 l 472 1314 q 518 1331 492 1331 q 544 1326 533 1331 q 564 1315 556 1321 l 567 1314 l 571 1310 l 733 1149 q 749 1124 744 1138 q 754 1097 754 1111 q 733 1044 754 1065 q 681 1024 713 1024 q 628 1044 649 1024 l 519 1153 l 411 1044 q 358 1024 390 1024 q 306 1044 326 1024 q 285 1097 285 1065 z "},"ŝ":{"ha":1039,"x_min":74,"x_max":964,"o":"m 167 186 l 675 186 q 748 216 718 186 q 778 290 778 246 q 748 363 778 333 q 675 393 718 393 l 364 393 q 251 416 304 393 q 159 478 199 439 q 97 571 119 518 q 74 683 74 624 q 97 796 74 743 q 159 888 119 849 q 251 951 199 928 q 364 974 304 974 l 871 974 q 937 947 910 974 q 964 881 964 919 q 937 815 964 842 q 871 788 910 788 l 364 788 q 290 757 319 788 q 260 683 260 726 q 290 610 260 640 q 364 579 319 579 l 675 579 q 788 556 735 579 q 879 494 840 533 q 941 403 918 456 q 964 290 964 350 q 942 178 964 231 q 880 85 919 125 q 788 23 840 46 q 675 0 736 0 l 167 0 q 101 27 128 0 q 74 93 74 54 q 101 159 74 132 q 167 186 128 186 m 285 1096 q 290 1123 285 1110 q 306 1147 294 1136 l 472 1313 q 518 1329 492 1329 q 544 1324 533 1329 q 564 1314 556 1319 l 567 1313 l 571 1308 l 733 1147 q 749 1123 744 1136 q 754 1096 754 1110 q 733 1043 754 1064 q 681 1022 713 1022 q 628 1043 649 1022 l 519 1151 l 411 1043 q 358 1022 390 1022 q 306 1043 326 1022 q 285 1096 285 1064 z "},"Š":{"ha":1039,"x_min":74,"x_max":964,"o":"m 364 975 l 871 975 q 937 948 910 975 q 964 882 964 921 q 937 816 964 843 q 871 789 910 789 l 364 789 q 290 758 319 789 q 260 685 260 728 q 290 610 260 640 q 364 581 319 581 l 675 581 q 788 558 735 581 q 879 496 840 535 q 941 404 918 457 q 964 292 964 351 q 941 178 964 232 q 879 86 918 125 q 788 24 840 47 q 675 1 735 1 l 167 1 q 101 28 128 1 q 74 93 74 54 q 101 160 74 133 q 167 188 128 188 l 675 188 q 748 218 718 188 q 778 292 778 249 q 748 364 778 333 q 675 394 718 394 l 364 394 q 251 417 304 394 q 158 479 197 440 q 97 572 119 518 q 74 685 74 625 q 97 797 74 744 q 159 890 119 850 q 251 952 199 929 q 364 975 304 975 m 358 1331 q 411 1310 390 1331 l 519 1201 l 628 1310 q 681 1331 649 1331 q 733 1310 713 1331 q 754 1257 754 1289 q 749 1230 754 1243 q 733 1206 744 1217 l 571 1044 q 546 1029 561 1035 q 517 1024 531 1024 q 472 1040 492 1024 l 306 1206 q 290 1230 294 1217 q 285 1257 285 1243 q 306 1310 285 1289 q 358 1331 326 1331 z "},"š":{"ha":1039,"x_min":74,"x_max":964,"o":"m 167 186 l 675 186 q 748 216 718 186 q 778 290 778 246 q 748 363 778 333 q 675 393 718 393 l 364 393 q 251 416 304 393 q 159 478 199 439 q 97 571 119 518 q 74 683 74 624 q 97 796 74 743 q 159 888 119 849 q 251 951 199 928 q 364 974 304 974 l 871 974 q 937 947 910 974 q 964 881 964 919 q 937 815 964 842 q 871 788 910 788 l 364 788 q 290 757 319 788 q 260 683 260 726 q 290 610 260 640 q 364 579 319 579 l 675 579 q 788 556 735 579 q 879 494 840 533 q 941 403 918 456 q 964 290 964 350 q 942 178 964 231 q 880 85 919 125 q 788 23 840 46 q 675 0 736 0 l 167 0 q 101 27 128 0 q 74 93 74 54 q 101 159 74 132 q 167 186 128 186 m 358 1329 q 411 1308 390 1329 l 519 1200 l 628 1308 q 681 1329 649 1329 q 733 1308 713 1329 q 754 1256 754 1288 q 749 1228 754 1242 q 733 1204 744 1215 l 571 1043 q 546 1028 561 1033 q 517 1022 531 1022 q 472 1039 492 1022 l 306 1204 q 290 1228 294 1215 q 285 1256 285 1242 q 306 1308 285 1288 q 358 1329 326 1329 z "},"Ź":{"ha":1024,"x_min":46,"x_max":976,"o":"m 139 974 l 856 974 q 922 947 896 974 q 949 881 949 919 q 943 848 949 864 q 926 819 938 832 l 371 186 l 883 186 q 949 159 922 186 q 976 93 976 132 q 949 27 976 54 q 883 0 922 0 l 165 0 q 99 27 126 0 q 72 93 72 54 q 96 154 72 126 l 651 788 l 139 788 q 73 815 100 788 q 46 881 46 842 q 73 947 46 919 q 139 974 100 974 m 374 1103 q 396 1157 374 1135 l 517 1278 q 572 1301 540 1301 q 627 1278 604 1301 q 650 1222 650 1254 q 626 1167 650 1190 l 507 1047 q 451 1025 485 1025 q 396 1048 418 1025 q 374 1103 374 1071 z "},"ź":{"ha":1024,"x_min":46,"x_max":976,"o":"m 139 974 l 856 974 q 906 959 883 974 q 940 919 929 944 q 948 867 951 894 q 926 819 944 840 l 371 186 l 883 186 q 949 159 922 186 q 976 93 976 132 q 949 27 976 54 q 883 0 922 0 l 165 0 q 115 15 138 0 q 81 54 92 29 q 73 106 69 79 q 96 154 76 133 l 651 788 l 139 788 q 73 815 100 788 q 46 881 46 842 q 73 947 46 919 q 139 974 100 974 m 374 1101 q 396 1156 374 1133 l 517 1276 q 572 1300 540 1300 q 627 1276 604 1300 q 650 1221 650 1253 q 626 1165 650 1189 l 507 1046 q 451 1024 485 1024 q 396 1047 418 1024 q 374 1101 374 1069 z "},"Ť":{"ha":999,"x_min":25,"x_max":974,"o":"m 118 974 l 881 974 q 947 947 919 974 q 974 881 974 919 q 947 815 974 842 q 881 788 919 788 l 592 788 l 592 94 q 565 28 592 56 q 499 1 538 1 q 433 28 460 1 q 406 94 406 56 l 406 788 l 118 788 q 52 815 79 788 q 25 881 25 842 q 52 947 25 919 q 118 974 79 974 m 338 1331 q 390 1310 369 1331 l 499 1201 l 607 1310 q 660 1331 628 1331 q 713 1310 692 1331 q 733 1257 733 1289 q 728 1230 733 1243 q 713 1206 724 1217 l 550 1044 q 525 1029 540 1035 q 496 1024 510 1024 q 451 1040 471 1024 l 285 1206 q 269 1230 274 1217 q 264 1257 264 1243 q 285 1310 264 1289 q 338 1331 306 1331 z "},"ť":{"ha":1463,"x_min":25,"x_max":1353,"o":"m 118 974 l 881 974 q 947 947 919 974 q 974 881 974 919 q 947 815 974 842 q 881 788 919 788 l 592 788 l 592 93 q 565 27 592 54 q 499 0 538 0 q 433 27 460 0 q 406 93 406 54 l 406 788 l 118 788 q 52 815 79 788 q 25 881 25 842 q 52 947 25 919 q 118 974 79 974 m 1110 740 q 1111 756 1110 747 q 1115 771 1113 764 l 1171 926 q 1206 973 1182 956 q 1260 990 1231 990 q 1324 963 1296 990 q 1353 897 1353 935 q 1351 881 1353 889 q 1347 867 1350 874 l 1290 710 q 1255 665 1279 682 q 1201 647 1231 647 q 1136 675 1163 647 q 1110 740 1110 703 z "},"Ŵ":{"ha":1879,"x_min":108,"x_max":1853,"o":"m 201 974 q 267 947 240 974 q 294 881 294 919 l 294 319 l 915 946 q 982 974 943 974 q 1047 947 1019 974 q 1075 881 1075 919 l 1075 319 l 1693 946 q 1760 974 1721 974 q 1826 947 1799 974 q 1853 881 1853 919 q 1826 815 1853 842 l 1049 28 q 982 0 1021 0 q 916 26 943 0 q 889 93 889 53 l 889 654 l 268 28 q 237 6 254 13 q 201 0 219 0 q 135 27 163 0 q 108 93 108 54 l 108 881 q 135 947 108 919 q 201 974 163 974 m 706 1097 q 710 1124 706 1111 q 726 1149 715 1138 l 893 1314 q 939 1331 913 1331 q 965 1326 954 1331 q 985 1315 976 1321 l 988 1314 l 992 1310 l 1154 1149 q 1170 1124 1165 1138 q 1175 1097 1175 1111 q 1154 1044 1175 1065 q 1101 1024 1133 1024 q 1049 1044 1069 1024 l 940 1153 l 832 1044 q 779 1024 811 1024 q 726 1044 747 1024 q 706 1097 706 1065 z "},"ŵ":{"ha":1293,"x_min":108,"x_max":1183,"o":"m 108 93 l 108 881 q 135 947 108 919 q 201 974 163 974 q 267 947 240 974 q 294 881 294 919 l 294 313 l 581 590 q 646 617 607 617 q 711 590 685 617 l 997 313 l 997 881 q 1024 947 997 919 q 1090 974 1051 974 q 1156 947 1129 974 q 1183 881 1183 919 l 1183 93 q 1157 27 1183 54 q 1092 0 1131 0 q 1026 26 1053 0 l 646 393 l 265 26 q 201 0 239 0 q 135 27 163 0 q 108 93 108 54 m 413 1096 q 417 1123 413 1110 q 433 1147 422 1136 l 600 1313 q 646 1329 619 1329 q 672 1324 661 1329 q 692 1314 683 1319 l 694 1313 l 699 1308 l 861 1147 q 877 1123 872 1136 q 882 1096 882 1110 q 861 1043 882 1064 q 808 1022 840 1022 q 756 1043 776 1022 l 647 1151 l 539 1043 q 486 1022 518 1022 q 433 1043 454 1022 q 413 1096 413 1064 z "},"Ŷ":{"ha":1044,"x_min":33,"x_max":1000,"o":"m 33 94 q 40 128 33 111 q 60 158 46 144 l 194 293 l 194 881 q 222 947 194 919 q 288 974 249 974 q 353 947 326 974 q 381 881 381 919 l 381 481 l 840 946 q 908 974 868 974 q 973 947 946 974 q 1000 882 1000 919 q 972 815 1000 843 l 193 28 q 162 6 179 13 q 126 0 144 0 q 60 27 88 0 q 33 94 33 54 m 288 1097 q 292 1124 288 1111 q 308 1149 297 1138 l 475 1314 q 521 1331 494 1331 q 547 1326 536 1331 q 567 1315 558 1321 l 569 1314 l 574 1310 l 736 1149 q 752 1124 747 1138 q 757 1097 757 1111 q 736 1044 757 1065 q 683 1024 715 1024 q 631 1044 651 1024 l 522 1153 l 414 1044 q 361 1024 393 1024 q 308 1044 329 1024 q 288 1097 288 1065 z "},"ŷ":{"ha":1094,"x_min":78,"x_max":994,"o":"m 78 881 q 105 947 78 919 q 171 974 132 974 q 237 947 210 974 q 264 881 264 919 l 264 672 q 296 594 264 626 q 374 563 328 563 l 699 563 q 776 594 743 563 q 808 672 808 626 l 808 881 q 835 947 808 919 q 901 974 863 974 q 967 947 940 974 q 994 881 994 919 l 994 296 q 971 181 994 235 q 907 88 947 128 q 813 24 867 47 q 699 0 760 0 l 196 0 q 130 27 157 0 q 103 93 103 54 q 130 159 103 132 q 196 186 157 186 l 699 186 q 776 218 743 186 q 808 296 808 250 l 808 397 q 699 376 757 376 l 374 376 q 258 399 313 376 q 164 463 204 422 q 101 557 124 503 q 78 672 78 611 l 78 881 m 313 1096 q 317 1123 313 1110 q 333 1147 322 1136 l 500 1313 q 546 1329 519 1329 q 572 1324 561 1329 q 592 1314 583 1319 l 594 1313 l 599 1308 l 761 1147 q 777 1123 772 1136 q 782 1096 782 1110 q 761 1043 782 1064 q 708 1022 740 1022 q 656 1043 676 1022 l 547 1151 l 439 1043 q 386 1022 418 1022 q 333 1043 354 1022 q 313 1096 313 1064 z "},"Ž":{"ha":1024,"x_min":46,"x_max":976,"o":"m 139 974 l 856 974 q 922 947 896 974 q 949 881 949 919 q 943 848 949 864 q 926 819 938 832 l 371 186 l 883 186 q 949 159 922 186 q 976 93 976 132 q 949 27 976 54 q 883 0 922 0 l 165 0 q 99 27 126 0 q 72 93 72 54 q 96 154 72 126 l 651 788 l 139 788 q 73 815 100 788 q 46 881 46 842 q 73 947 46 919 q 139 974 100 974 m 350 1331 q 403 1310 382 1331 l 511 1201 l 619 1310 q 672 1331 640 1331 q 725 1310 704 1331 q 746 1257 746 1289 q 741 1230 746 1243 q 725 1206 736 1217 l 563 1044 q 538 1029 553 1035 q 508 1024 522 1024 q 464 1040 483 1024 l 297 1206 q 281 1230 286 1217 q 276 1257 276 1243 q 297 1310 276 1289 q 350 1331 318 1331 z "},"ž":{"ha":1024,"x_min":46,"x_max":976,"o":"m 139 974 l 856 974 q 906 959 883 974 q 940 919 929 944 q 948 867 951 894 q 926 819 944 840 l 371 186 l 883 186 q 949 159 922 186 q 976 93 976 132 q 949 27 976 54 q 883 0 922 0 l 165 0 q 115 15 138 0 q 81 54 92 29 q 73 106 69 79 q 96 154 76 133 l 651 788 l 139 788 q 73 815 100 788 q 46 881 46 842 q 73 947 46 919 q 139 974 100 974 m 350 1329 q 403 1308 382 1329 l 511 1200 l 619 1308 q 672 1329 640 1329 q 725 1308 704 1329 q 746 1256 746 1288 q 741 1228 746 1242 q 725 1204 736 1215 l 563 1043 q 538 1028 553 1033 q 508 1022 522 1022 q 464 1039 483 1022 l 297 1204 q 281 1228 286 1215 q 276 1256 276 1242 q 297 1308 276 1288 q 350 1329 318 1329 z "},"Ẃ":{"ha":1879,"x_min":108,"x_max":1853,"o":"m 201 974 q 267 947 240 974 q 294 881 294 919 l 294 319 l 915 946 q 982 974 943 974 q 1047 947 1019 974 q 1075 881 1075 919 l 1075 319 l 1693 946 q 1760 974 1721 974 q 1826 947 1799 974 q 1853 881 1853 919 q 1826 815 1853 842 l 1049 28 q 982 0 1021 0 q 916 26 943 0 q 889 93 889 53 l 889 654 l 268 28 q 237 6 254 13 q 201 0 219 0 q 135 27 163 0 q 108 93 108 54 l 108 881 q 135 947 108 919 q 201 974 163 974 m 801 1103 q 824 1157 801 1135 l 944 1278 q 1000 1301 968 1301 q 1055 1278 1032 1301 q 1078 1222 1078 1254 q 1054 1167 1078 1190 l 935 1047 q 879 1025 913 1025 q 824 1048 846 1025 q 801 1103 801 1071 z "},"Ẁ":{"ha":1879,"x_min":108,"x_max":1853,"o":"m 201 974 q 267 947 240 974 q 294 881 294 919 l 294 319 l 915 946 q 982 974 943 974 q 1047 947 1019 974 q 1075 881 1075 919 l 1075 319 l 1693 946 q 1760 974 1721 974 q 1826 947 1799 974 q 1853 881 1853 919 q 1826 815 1853 842 l 1049 28 q 982 0 1021 0 q 916 26 943 0 q 889 93 889 53 l 889 654 l 268 28 q 237 6 254 13 q 201 0 219 0 q 135 27 163 0 q 108 93 108 54 l 108 881 q 135 947 108 919 q 201 974 163 974 m 801 1222 q 824 1278 801 1254 q 879 1301 847 1301 q 935 1278 911 1301 l 1056 1157 q 1078 1103 1078 1135 q 1056 1048 1078 1071 q 1000 1025 1033 1025 q 944 1047 967 1025 l 825 1167 q 801 1222 801 1190 z "},"ẁ":{"ha":1293,"x_min":108,"x_max":1183,"o":"m 108 93 l 108 881 q 135 947 108 919 q 201 974 163 974 q 267 947 240 974 q 294 881 294 919 l 294 313 l 581 590 q 646 617 607 617 q 711 590 685 617 l 997 313 l 997 881 q 1024 947 997 919 q 1090 974 1051 974 q 1156 947 1129 974 q 1183 881 1183 919 l 1183 93 q 1157 27 1183 54 q 1092 0 1131 0 q 1026 26 1053 0 l 646 393 l 265 26 q 201 0 239 0 q 135 27 163 0 q 108 93 108 54 m 508 1221 q 531 1276 508 1253 q 586 1300 554 1300 q 642 1276 618 1300 l 763 1156 q 785 1101 785 1133 q 763 1047 785 1069 q 707 1024 740 1024 q 651 1046 674 1024 l 532 1165 q 508 1221 508 1189 z "},"ẃ":{"ha":1293,"x_min":108,"x_max":1183,"o":"m 108 93 l 108 881 q 135 947 108 919 q 201 974 163 974 q 267 947 240 974 q 294 881 294 919 l 294 313 l 581 590 q 646 617 607 617 q 711 590 685 617 l 997 313 l 997 881 q 1024 947 997 919 q 1090 974 1051 974 q 1156 947 1129 974 q 1183 881 1183 919 l 1183 93 q 1157 27 1183 54 q 1092 0 1131 0 q 1026 26 1053 0 l 646 393 l 265 26 q 201 0 239 0 q 135 27 163 0 q 108 93 108 54 m 508 1101 q 531 1156 508 1133 l 651 1276 q 707 1300 675 1300 q 762 1276 739 1300 q 785 1221 785 1253 q 761 1165 785 1189 l 642 1046 q 586 1024 619 1024 q 531 1047 553 1024 q 508 1101 508 1069 z "},"Ẅ":{"ha":1879,"x_min":108,"x_max":1853,"o":"m 201 974 q 267 947 240 974 q 294 881 294 919 l 294 319 l 915 946 q 982 974 943 974 q 1047 947 1019 974 q 1075 881 1075 919 l 1075 319 l 1693 946 q 1760 974 1721 974 q 1826 947 1799 974 q 1853 881 1853 919 q 1826 815 1853 842 l 1049 28 q 982 0 1021 0 q 916 26 943 0 q 889 93 889 53 l 889 654 l 268 28 q 237 6 254 13 q 201 0 219 0 q 135 27 163 0 q 108 93 108 54 l 108 881 q 135 947 108 919 q 201 974 163 974 m 1021 1143 q 1048 1209 1021 1182 q 1114 1236 1075 1236 q 1180 1209 1153 1236 q 1207 1143 1207 1182 l 1207 1131 q 1180 1065 1207 1092 q 1114 1038 1153 1038 q 1048 1065 1075 1038 q 1021 1131 1021 1092 l 1021 1143 m 674 1143 q 701 1209 674 1182 q 767 1236 728 1236 q 833 1209 806 1236 q 860 1143 860 1182 l 860 1131 q 833 1065 860 1092 q 767 1038 806 1038 q 701 1065 728 1038 q 674 1131 674 1092 l 674 1143 z "},"ẅ":{"ha":1293,"x_min":108,"x_max":1183,"o":"m 108 93 l 108 881 q 135 947 108 919 q 201 974 163 974 q 267 947 240 974 q 294 881 294 919 l 294 313 l 581 590 q 646 617 607 617 q 711 590 685 617 l 997 313 l 997 881 q 1024 947 997 919 q 1090 974 1051 974 q 1156 947 1129 974 q 1183 881 1183 919 l 1183 93 q 1157 27 1183 54 q 1092 0 1131 0 q 1026 26 1053 0 l 646 393 l 265 26 q 201 0 239 0 q 135 27 163 0 q 108 93 108 54 m 728 1142 q 755 1208 728 1181 q 821 1235 782 1235 q 887 1208 860 1235 q 914 1142 914 1181 l 914 1129 q 887 1063 914 1090 q 821 1036 860 1036 q 755 1063 782 1036 q 728 1129 728 1090 l 728 1142 m 381 1142 q 408 1208 381 1181 q 474 1235 435 1235 q 540 1208 513 1235 q 567 1142 567 1181 l 567 1129 q 540 1063 567 1090 q 474 1036 513 1036 q 408 1063 435 1036 q 381 1129 381 1090 l 381 1142 z "},"˜":{"ha":1086,"x_min":263,"x_max":847,"o":"m 263 1096 q 285 1146 263 1126 q 338 1176 307 1165 q 403 1192 369 1188 q 461 1196 438 1196 q 517 1190 489 1196 q 574 1175 546 1185 q 613 1165 593 1168 q 653 1161 633 1161 q 739 1181 701 1161 q 781 1190 760 1190 q 828 1172 808 1190 q 847 1125 847 1153 q 828 1078 847 1097 q 778 1048 808 1060 q 712 1031 747 1036 q 644 1026 676 1026 q 597 1029 626 1026 q 535 1044 568 1032 q 494 1056 514 1053 q 456 1060 475 1060 l 444 1060 q 403 1053 424 1060 q 369 1040 383 1047 q 329 1029 347 1029 q 282 1049 301 1029 q 263 1096 263 1068 z "},"Ñ":{"ha":1181,"x_min":108,"x_max":1072,"o":"m 200 972 q 237 966 219 972 q 268 944 254 960 l 886 319 l 886 879 q 913 945 886 918 q 979 972 940 972 q 1045 945 1018 972 q 1072 879 1072 918 l 1072 93 q 1045 27 1072 54 q 979 0 1018 0 q 944 6 961 0 q 913 28 926 13 l 294 653 l 294 93 q 267 27 294 54 q 201 0 240 0 q 135 27 163 0 q 108 93 108 54 l 108 879 q 135 944 108 917 q 200 972 163 972 m 299 1097 q 321 1147 299 1128 q 374 1178 343 1167 q 440 1193 406 1189 q 497 1197 474 1197 q 553 1192 525 1197 q 610 1176 582 1186 q 649 1166 629 1169 q 689 1163 669 1163 q 775 1182 738 1163 q 817 1192 796 1192 q 864 1173 844 1192 q 883 1126 883 1154 q 864 1080 883 1099 q 814 1049 844 1061 q 748 1033 783 1038 q 681 1028 713 1028 q 633 1031 663 1028 q 571 1046 604 1033 q 531 1058 550 1054 q 492 1061 511 1061 l 481 1061 q 440 1055 460 1061 q 406 1042 419 1049 q 365 1031 383 1031 q 318 1050 338 1031 q 299 1097 299 1069 z "},"Ĩ":{"ha":403,"x_min":-92,"x_max":494,"o":"m 108 94 l 108 882 q 135 947 108 919 q 201 974 163 974 q 267 947 240 974 q 294 882 294 919 l 294 94 q 267 28 294 56 q 201 1 240 1 q 135 28 163 1 q 108 94 108 56 m -90 1097 q -68 1147 -90 1128 q -15 1178 -46 1167 q 51 1193 17 1189 q 108 1197 85 1197 q 165 1192 136 1197 q 221 1176 193 1186 q 260 1166 240 1169 q 300 1163 281 1163 q 386 1182 349 1163 q 428 1192 407 1192 q 475 1173 456 1192 q 494 1126 494 1154 q 475 1080 494 1099 q 425 1049 456 1061 q 359 1033 394 1038 q 292 1028 324 1028 q 244 1031 274 1028 q 182 1046 215 1033 q 142 1058 161 1054 q 103 1061 122 1061 l 92 1061 q 51 1055 71 1061 q 17 1042 31 1049 q -24 1031 -6 1031 q -71 1050 -51 1031 q -90 1097 -90 1069 z "},"ĩ":{"ha":692,"x_min":51,"x_max":639,"o":"m 144 186 l 253 186 l 253 788 l 144 788 q 78 815 106 788 q 51 882 51 842 q 78 947 51 921 q 144 974 106 974 l 546 974 q 612 947 585 974 q 639 882 639 921 q 612 815 639 842 q 546 788 585 788 l 439 788 l 439 186 l 546 186 q 612 159 585 186 q 639 93 639 132 q 612 27 639 54 q 546 0 585 0 l 144 0 q 78 27 106 0 q 51 93 51 54 q 78 159 51 132 q 144 186 106 186 m 54 1096 q 76 1146 54 1126 q 130 1176 99 1165 q 195 1192 161 1188 q 253 1196 229 1196 q 309 1190 281 1196 q 365 1175 338 1185 q 405 1165 385 1168 q 444 1161 425 1161 q 531 1181 493 1161 q 572 1190 551 1190 q 619 1172 600 1190 q 639 1125 639 1153 q 619 1078 639 1097 q 569 1048 600 1060 q 503 1031 539 1036 q 436 1026 468 1026 q 389 1029 418 1026 q 326 1044 360 1032 q 286 1056 306 1053 q 247 1060 267 1060 l 236 1060 q 195 1053 215 1060 q 161 1040 175 1047 q 121 1029 139 1029 q 74 1049 93 1029 q 54 1096 54 1068 z "},"Ĵ":{"ha":988,"x_min":39,"x_max":1028,"o":"m 39 290 q 66 356 39 329 q 132 383 93 383 q 198 356 171 383 q 225 290 225 329 q 255 216 225 246 q 329 186 285 186 l 597 186 q 670 216 640 186 q 700 290 700 246 l 700 881 q 727 947 700 919 q 793 974 754 974 q 859 947 832 974 q 886 881 886 919 l 886 290 q 863 177 886 231 q 801 85 840 124 q 710 23 763 46 q 597 0 657 0 l 329 0 q 217 23 269 0 q 124 85 164 46 q 62 177 85 124 q 39 290 39 231 m 558 1097 q 563 1124 558 1111 q 579 1149 568 1138 l 746 1314 q 792 1331 765 1331 q 818 1326 807 1331 q 838 1315 829 1321 l 840 1314 l 844 1310 l 1007 1149 q 1023 1124 1018 1138 q 1028 1097 1028 1111 q 1007 1044 1028 1065 q 954 1024 986 1024 q 901 1044 922 1024 l 793 1153 l 685 1044 q 632 1024 664 1024 q 579 1044 600 1024 q 558 1097 558 1065 z "},"ĵ":{"ha":967,"x_min":25,"x_max":1010,"o":"m 25 93 q 52 159 25 132 q 118 186 79 186 l 578 186 q 651 216 621 186 q 681 289 681 246 l 681 882 q 708 948 681 921 q 774 975 735 975 q 840 948 813 975 q 867 882 867 921 l 867 289 q 844 176 867 229 q 782 85 821 124 q 690 23 743 46 q 578 0 638 0 l 118 0 q 52 27 79 0 q 25 93 25 54 m 540 1096 q 545 1123 540 1110 q 561 1147 550 1136 l 728 1313 q 774 1329 747 1329 q 800 1324 789 1329 q 819 1314 811 1319 l 822 1313 l 826 1308 l 989 1147 q 1005 1123 1000 1136 q 1010 1096 1010 1110 q 989 1043 1010 1064 q 936 1022 968 1022 q 883 1043 904 1022 l 775 1151 l 667 1043 q 614 1022 646 1022 q 561 1043 582 1022 q 540 1096 540 1064 z "},"Ũ":{"ha":1131,"x_min":99,"x_max":1032,"o":"m 99 882 q 126 948 99 921 q 192 975 153 975 q 258 948 231 975 q 285 882 285 921 l 285 315 q 294 265 285 289 q 319 224 303 242 q 356 197 335 207 q 401 186 378 186 l 728 186 q 774 197 753 186 q 812 224 796 207 q 837 265 828 242 q 846 315 846 289 l 846 882 q 873 948 846 921 q 939 975 900 975 q 1005 948 978 975 q 1032 882 1032 921 l 1032 315 q 1008 194 1032 251 q 944 94 985 138 q 847 26 903 51 q 728 0 792 0 l 401 0 q 282 26 338 0 q 186 94 226 51 q 122 195 146 138 q 99 315 99 253 l 99 882 m 274 1097 q 296 1147 274 1128 q 349 1178 318 1167 q 415 1193 381 1189 q 472 1197 449 1197 q 528 1192 500 1197 q 585 1176 557 1186 q 624 1166 604 1169 q 664 1163 644 1163 q 750 1182 713 1163 q 792 1192 771 1192 q 839 1173 819 1192 q 858 1126 858 1154 q 839 1080 858 1099 q 789 1049 819 1061 q 723 1033 758 1038 q 656 1028 688 1028 q 608 1031 638 1028 q 546 1046 579 1033 q 506 1058 525 1054 q 467 1061 486 1061 l 456 1061 q 415 1055 435 1061 q 381 1042 394 1049 q 340 1031 358 1031 q 293 1050 313 1031 q 274 1097 274 1069 z "},"ũ":{"ha":1169,"x_min":85,"x_max":1060,"o":"m 85 881 q 112 947 85 919 q 178 974 139 974 q 244 947 217 974 q 271 881 271 919 l 271 488 q 294 369 271 425 q 358 274 318 314 q 454 210 399 233 q 572 186 510 186 l 874 186 l 874 881 q 901 947 874 919 q 967 974 928 974 q 1033 947 1006 974 q 1060 881 1060 919 l 1060 93 q 1033 27 1060 54 q 967 0 1006 0 l 572 0 q 382 39 471 0 q 227 144 293 78 q 123 299 161 210 q 85 488 85 388 l 85 881 m 293 1096 q 315 1146 293 1126 q 369 1176 338 1165 q 434 1192 400 1188 q 492 1196 468 1196 q 548 1190 519 1196 q 604 1175 576 1185 q 644 1165 624 1168 q 683 1161 664 1161 q 769 1181 732 1161 q 811 1190 790 1190 q 858 1172 839 1190 q 878 1125 878 1153 q 858 1078 878 1097 q 808 1048 839 1060 q 742 1031 778 1036 q 675 1026 707 1026 q 628 1029 657 1026 q 565 1044 599 1032 q 525 1056 544 1053 q 486 1060 506 1060 l 475 1060 q 434 1053 454 1060 q 400 1040 414 1047 q 360 1029 378 1029 q 313 1049 332 1029 q 293 1096 293 1068 z "},"ñ":{"ha":1171,"x_min":108,"x_max":1083,"o":"m 108 93 l 108 881 q 135 947 108 919 q 201 974 163 974 l 596 974 q 786 935 697 974 q 941 830 875 896 q 1045 675 1007 764 q 1083 486 1083 586 l 1083 93 q 1056 27 1083 54 q 990 0 1029 0 q 924 27 951 0 q 897 93 897 54 l 897 486 q 874 604 897 549 q 810 700 850 660 q 714 764 769 740 q 596 788 658 788 l 294 788 l 294 93 q 267 27 294 54 q 201 0 240 0 q 135 27 163 0 q 108 93 108 54 m 196 1096 q 218 1146 196 1126 q 272 1176 240 1165 q 337 1192 303 1188 q 394 1196 371 1196 q 451 1190 422 1196 q 507 1175 479 1185 q 547 1165 526 1168 q 586 1161 567 1161 q 672 1181 635 1161 q 714 1190 693 1190 q 761 1172 742 1190 q 781 1125 781 1153 q 761 1078 781 1097 q 711 1048 742 1060 q 645 1031 681 1036 q 578 1026 610 1026 q 531 1029 560 1026 q 468 1044 501 1032 q 428 1056 447 1053 q 389 1060 408 1060 l 378 1060 q 337 1053 357 1060 q 303 1040 317 1047 q 263 1029 281 1029 q 215 1049 235 1029 q 196 1096 196 1068 z "},"Õ":{"ha":1281,"x_min":85,"x_max":1196,"o":"m 424 974 l 857 974 q 988 947 926 974 q 1096 874 1050 919 q 1169 766 1142 828 q 1196 635 1196 704 l 1196 339 q 1169 208 1196 269 q 1096 100 1142 146 q 988 27 1050 54 q 857 0 926 0 l 424 0 q 291 26 353 0 q 183 99 229 53 q 111 206 138 144 q 85 339 85 268 l 85 635 q 111 767 85 706 q 183 875 138 829 q 291 947 229 921 q 424 974 353 974 m 424 186 l 857 186 q 917 199 889 186 q 965 232 944 211 q 998 281 986 253 q 1010 339 1010 308 l 1010 635 q 998 694 1010 667 q 965 743 986 722 q 917 776 944 764 q 857 788 889 788 l 424 788 q 364 776 392 788 q 315 743 336 764 q 283 694 294 722 q 271 635 271 667 l 271 339 q 283 281 271 308 q 315 232 294 253 q 364 199 336 211 q 424 186 392 186 m 349 1097 q 371 1147 349 1128 q 424 1178 393 1167 q 490 1193 456 1189 q 547 1197 524 1197 q 603 1192 575 1197 q 660 1176 632 1186 q 699 1166 679 1169 q 739 1163 719 1163 q 825 1182 788 1163 q 867 1192 846 1192 q 914 1173 894 1192 q 933 1126 933 1154 q 914 1080 933 1099 q 864 1049 894 1061 q 798 1033 833 1038 q 731 1028 763 1028 q 683 1031 713 1028 q 621 1046 654 1033 q 581 1058 600 1054 q 542 1061 561 1061 l 531 1061 q 490 1055 510 1061 q 456 1042 469 1049 q 415 1031 433 1031 q 368 1050 388 1031 q 349 1097 349 1069 z "},"":{"ha":1054,"x_min":92,"x_max":979,"o":"m 92 293 l 92 681 q 115 795 92 742 q 177 888 138 849 q 270 951 217 928 q 385 974 324 974 l 882 974 q 948 947 921 974 q 975 882 975 921 q 948 815 975 842 q 882 788 921 788 l 385 788 q 309 756 340 788 q 278 681 278 725 l 278 293 q 309 217 278 249 q 385 186 340 186 l 882 186 q 948 159 921 186 q 975 93 975 132 q 948 27 975 54 q 882 0 921 0 l 385 0 q 272 23 325 0 q 178 86 218 46 q 115 180 138 126 q 92 293 92 233 m 396 488 q 423 553 396 526 q 488 581 450 581 l 886 581 q 952 553 925 581 q 979 488 979 526 q 952 422 979 449 q 886 394 925 394 l 488 394 q 423 422 450 394 q 396 488 396 449 z "},"–":{"ha":694,"x_min":46,"x_max":619,"o":"m 139 575 l 526 575 q 592 548 565 575 q 619 482 619 521 q 592 416 619 443 q 526 389 565 389 l 139 389 q 73 416 100 389 q 46 482 46 443 q 73 548 46 521 q 139 575 100 575 z "},"¯":{"ha":1033,"x_min":207,"x_max":833,"o":"m 281 1168 l 760 1168 q 812 1147 790 1168 q 833 1096 833 1126 q 812 1044 833 1065 q 760 1022 790 1022 l 281 1022 q 228 1044 250 1022 q 207 1096 207 1065 q 228 1147 207 1126 q 281 1168 250 1168 z "},"Ū":{"ha":1131,"x_min":99,"x_max":1032,"o":"m 99 882 q 126 948 99 921 q 192 975 153 975 q 258 948 231 975 q 285 882 285 921 l 285 315 q 294 265 285 289 q 319 224 303 242 q 356 197 335 207 q 401 186 378 186 l 728 186 q 774 197 753 186 q 812 224 796 207 q 837 265 828 242 q 846 315 846 289 l 846 882 q 873 948 846 921 q 939 975 900 975 q 1005 948 978 975 q 1032 882 1032 921 l 1032 315 q 1008 194 1032 251 q 944 94 985 138 q 847 26 903 51 q 728 0 792 0 l 401 0 q 282 26 338 0 q 186 94 226 51 q 122 195 146 138 q 99 315 99 253 l 99 882 m 326 1169 l 806 1169 q 858 1149 836 1169 q 879 1097 879 1128 q 858 1045 879 1067 q 806 1024 836 1024 l 326 1024 q 274 1045 296 1024 q 253 1097 253 1067 q 274 1149 253 1128 q 326 1169 296 1169 z "},"ū":{"ha":1169,"x_min":85,"x_max":1060,"o":"m 85 881 q 112 947 85 919 q 178 974 139 974 q 244 947 217 974 q 271 881 271 919 l 271 488 q 294 369 271 425 q 358 274 318 314 q 454 210 399 233 q 572 186 510 186 l 874 186 l 874 881 q 901 947 874 919 q 967 974 928 974 q 1033 947 1006 974 q 1060 881 1060 919 l 1060 93 q 1033 27 1060 54 q 967 0 1006 0 l 572 0 q 382 39 471 0 q 227 144 293 78 q 123 299 161 210 q 85 488 85 388 l 85 881 m 346 1168 l 825 1168 q 877 1147 856 1168 q 899 1096 899 1126 q 877 1044 899 1065 q 825 1022 856 1022 l 346 1022 q 294 1044 315 1022 q 272 1096 272 1065 q 294 1147 272 1126 q 346 1168 315 1168 z "},"Ē":{"ha":1054,"x_min":92,"x_max":975,"o":"m 92 681 q 115 795 92 742 q 177 888 138 849 q 270 951 217 928 q 385 974 324 974 l 882 974 q 948 947 921 974 q 975 882 975 921 q 948 815 975 842 q 882 788 921 788 l 385 788 q 309 756 340 788 q 278 681 278 725 l 278 576 l 882 576 q 948 549 921 576 q 975 482 975 522 q 948 417 975 444 q 882 390 921 390 l 278 390 l 278 293 q 309 217 278 249 q 385 186 340 186 l 882 186 q 948 159 921 186 q 975 93 975 132 q 948 27 975 54 q 882 0 921 0 l 385 0 q 272 23 325 0 q 178 86 218 46 q 115 180 138 126 q 92 293 92 233 l 92 681 m 329 1169 l 808 1169 q 860 1149 839 1169 q 882 1097 882 1128 q 860 1045 882 1067 q 808 1024 839 1024 l 329 1024 q 277 1045 299 1024 q 256 1097 256 1067 q 277 1149 256 1128 q 329 1169 299 1169 z "},"ē":{"ha":1071,"x_min":92,"x_max":994,"o":"m 92 290 l 92 683 q 115 797 92 744 q 176 889 138 850 q 269 951 215 928 q 382 974 322 974 l 703 974 q 817 951 764 974 q 909 888 869 928 q 972 796 949 849 q 994 682 994 743 l 994 660 q 972 546 994 599 q 909 453 949 493 q 817 391 869 414 q 703 368 764 368 l 278 368 l 278 290 q 308 217 278 247 q 382 186 339 186 l 899 186 q 965 159 938 186 q 992 93 992 132 q 965 27 992 54 q 899 0 938 0 l 382 0 q 269 23 322 0 q 176 85 215 46 q 115 177 138 124 q 92 290 92 231 m 278 683 l 278 554 l 703 554 q 778 585 747 554 q 808 660 808 615 l 808 682 q 778 757 808 726 q 703 788 747 788 l 382 788 q 308 758 339 788 q 278 683 278 728 m 296 1168 l 775 1168 q 827 1147 806 1168 q 849 1096 849 1126 q 827 1044 849 1065 q 775 1022 806 1022 l 296 1022 q 244 1044 265 1022 q 222 1096 222 1065 q 244 1147 222 1126 q 296 1168 265 1168 z "},"Ā":{"ha":1104,"x_min":26,"x_max":1214,"o":"m 53 160 l 836 947 q 903 975 864 975 q 968 948 940 975 q 996 882 996 921 l 996 93 q 969 27 996 54 q 903 0 942 0 q 837 27 864 0 q 810 93 810 54 l 810 657 l 185 29 q 119 3 158 3 q 53 30 81 3 q 26 96 26 57 q 53 160 26 133 m 660 1169 l 1139 1169 q 1191 1149 1169 1169 q 1213 1097 1213 1128 q 1191 1045 1213 1067 q 1139 1024 1169 1024 l 660 1024 q 608 1045 629 1024 q 586 1097 586 1067 q 608 1149 586 1128 q 660 1169 629 1169 z "},"ā":{"ha":1076,"x_min":78,"x_max":981,"o":"m 78 292 l 78 343 q 101 457 78 404 q 165 549 125 510 q 258 611 204 589 q 372 633 313 633 l 794 633 l 794 685 q 765 758 794 729 q 690 788 735 788 l 175 788 q 108 815 135 788 q 81 882 81 843 q 108 947 81 921 q 175 974 135 974 l 690 974 q 804 951 751 974 q 896 889 857 928 q 958 797 935 850 q 981 685 981 744 l 981 254 q 960 155 981 201 q 906 74 940 108 q 826 20 872 40 q 728 0 781 0 l 372 0 q 258 23 311 0 q 164 85 204 46 q 101 178 124 125 q 78 292 78 231 m 372 186 l 728 186 q 775 206 756 186 q 794 254 794 226 l 794 447 l 372 447 q 297 417 328 447 q 267 343 267 386 l 267 292 q 297 217 267 247 q 372 186 328 186 m 299 1168 l 778 1168 q 830 1147 808 1168 q 851 1096 851 1126 q 830 1044 851 1065 q 778 1022 808 1022 l 299 1022 q 247 1044 268 1022 q 225 1096 225 1065 q 247 1147 225 1126 q 299 1168 268 1168 z "},"Ī":{"ha":403,"x_min":-112,"x_max":515,"o":"m 108 94 l 108 882 q 135 947 108 919 q 201 974 163 974 q 267 947 240 974 q 294 882 294 919 l 294 94 q 267 28 294 56 q 201 1 240 1 q 135 28 163 1 q 108 94 108 56 m -37 1169 l 442 1169 q 494 1149 472 1169 q 515 1097 515 1128 q 494 1045 515 1067 q 442 1024 472 1024 l -37 1024 q -90 1045 -68 1024 q -111 1097 -111 1067 q -90 1149 -111 1128 q -37 1169 -68 1169 z "},"ī":{"ha":692,"x_min":32,"x_max":660,"o":"m 144 186 l 253 186 l 253 788 l 144 788 q 78 815 106 788 q 51 882 51 842 q 78 947 51 921 q 144 974 106 974 l 546 974 q 612 947 585 974 q 639 882 639 921 q 612 815 639 842 q 546 788 585 788 l 439 788 l 439 186 l 546 186 q 612 159 585 186 q 639 93 639 132 q 612 27 639 54 q 546 0 585 0 l 144 0 q 78 27 106 0 q 51 93 51 54 q 78 159 51 132 q 144 186 106 186 m 107 1168 l 586 1168 q 638 1147 617 1168 q 660 1096 660 1126 q 638 1044 660 1065 q 586 1022 617 1022 l 107 1022 q 55 1044 76 1022 q 33 1096 33 1065 q 55 1147 33 1126 q 107 1168 76 1168 z "},"Ĉ":{"ha":1028,"x_min":63,"x_max":975,"o":"m 550 974 l 882 974 q 948 947 921 974 q 975 881 975 919 q 948 815 975 842 q 882 788 921 788 l 550 788 q 433 765 488 788 q 337 701 378 742 q 272 605 296 660 q 249 488 249 550 q 272 369 249 425 q 336 274 296 314 q 432 210 376 233 q 550 186 488 186 l 882 186 q 948 159 921 186 q 975 93 975 132 q 948 27 975 54 q 882 0 921 0 l 550 0 q 359 38 449 0 q 204 143 269 76 q 101 299 139 210 q 63 488 63 388 q 101 678 63 589 q 206 832 139 767 q 361 935 272 897 q 550 974 450 974 m 404 1097 q 409 1124 404 1111 q 425 1149 414 1138 l 592 1314 q 638 1331 611 1331 q 664 1326 653 1331 q 683 1315 675 1321 l 686 1314 l 690 1310 l 853 1149 q 869 1124 864 1138 q 874 1097 874 1111 q 853 1044 874 1065 q 800 1024 832 1024 q 747 1044 768 1024 l 639 1153 l 531 1044 q 478 1024 510 1024 q 425 1044 446 1024 q 404 1097 404 1065 z "},"ĉ":{"ha":1028,"x_min":63,"x_max":975,"o":"m 550 974 l 882 974 q 948 947 921 974 q 975 881 975 919 q 948 815 975 842 q 882 788 921 788 l 550 788 q 433 765 488 788 q 337 701 378 742 q 272 605 296 660 q 249 488 249 550 q 272 369 249 425 q 336 274 296 314 q 432 210 376 233 q 550 186 488 186 l 882 186 q 948 159 921 186 q 975 93 975 132 q 948 27 975 54 q 882 0 921 0 l 550 0 q 359 38 449 0 q 204 143 269 76 q 101 299 139 210 q 63 488 63 388 q 101 678 63 589 q 206 832 139 767 q 361 935 272 897 q 550 974 450 974 m 404 1096 q 409 1123 404 1110 q 425 1147 414 1136 l 592 1313 q 638 1329 611 1329 q 664 1324 653 1329 q 683 1314 675 1319 l 686 1313 l 690 1308 l 853 1147 q 869 1123 864 1136 q 874 1096 874 1110 q 853 1043 874 1064 q 800 1022 832 1022 q 747 1043 768 1022 l 639 1151 l 531 1043 q 478 1022 510 1022 q 425 1043 446 1022 q 404 1096 404 1064 z "},"ã":{"ha":1076,"x_min":78,"x_max":981,"o":"m 78 292 l 78 343 q 101 457 78 404 q 165 549 125 510 q 258 611 204 589 q 372 633 313 633 l 794 633 l 794 685 q 765 758 794 729 q 690 788 735 788 l 175 788 q 108 815 135 788 q 81 882 81 843 q 108 947 81 921 q 175 974 135 974 l 690 974 q 804 951 751 974 q 896 889 857 928 q 958 797 935 850 q 981 685 981 744 l 981 254 q 960 155 981 201 q 906 74 940 108 q 826 20 872 40 q 728 0 781 0 l 372 0 q 258 23 311 0 q 164 85 204 46 q 101 178 124 125 q 78 292 78 231 m 372 186 l 728 186 q 775 206 756 186 q 794 254 794 226 l 794 447 l 372 447 q 297 417 328 447 q 267 343 267 386 l 267 292 q 297 217 267 247 q 372 186 328 186 m 246 1096 q 268 1146 246 1126 q 322 1176 290 1165 q 387 1192 353 1188 q 444 1196 421 1196 q 501 1190 472 1196 q 557 1175 529 1185 q 597 1165 576 1168 q 636 1161 617 1161 q 722 1181 685 1161 q 764 1190 743 1190 q 811 1172 792 1190 q 831 1125 831 1153 q 811 1078 831 1097 q 761 1048 792 1060 q 695 1031 731 1036 q 628 1026 660 1026 q 581 1029 610 1026 q 518 1044 551 1032 q 478 1056 497 1053 q 439 1060 458 1060 l 428 1060 q 387 1053 407 1060 q 353 1040 367 1047 q 313 1029 331 1029 q 265 1049 285 1029 q 246 1096 246 1068 z "},"Ã":{"ha":1104,"x_min":26,"x_max":1200,"o":"m 53 160 l 836 947 q 903 975 864 975 q 968 948 940 975 q 996 882 996 921 l 996 93 q 969 27 996 54 q 903 0 942 0 q 837 27 864 0 q 810 93 810 54 l 810 657 l 185 29 q 119 3 158 3 q 53 30 81 3 q 26 96 26 57 q 53 160 26 133 m 614 1097 q 636 1147 614 1128 q 690 1178 658 1167 q 755 1193 721 1189 q 813 1197 789 1197 q 869 1192 840 1197 q 925 1176 897 1186 q 965 1166 944 1169 q 1004 1163 985 1163 q 1090 1182 1053 1163 q 1132 1192 1111 1192 q 1179 1173 1160 1192 q 1199 1126 1199 1154 q 1179 1080 1199 1099 q 1129 1049 1160 1061 q 1063 1033 1099 1038 q 996 1028 1028 1028 q 949 1031 978 1028 q 886 1046 919 1033 q 846 1058 865 1054 q 807 1061 826 1061 l 796 1061 q 755 1055 775 1061 q 721 1042 735 1049 q 681 1031 699 1031 q 633 1050 653 1031 q 614 1097 614 1069 z "},"õ":{"ha":1138,"x_min":64,"x_max":1074,"o":"m 571 992 q 767 952 675 992 q 926 844 858 913 q 1034 683 994 775 q 1074 488 1074 592 q 1034 292 1074 383 q 926 131 994 200 q 765 22 857 63 q 569 -18 674 -18 q 374 22 465 -18 q 213 130 282 61 q 104 290 144 199 q 64 486 64 382 q 104 683 64 590 q 213 844 144 775 q 374 952 282 913 q 571 992 467 992 m 568 168 q 692 193 635 168 q 794 261 750 218 q 863 362 838 304 q 888 486 888 419 q 863 611 888 553 q 794 713 838 669 q 693 781 751 756 q 568 806 635 806 q 444 781 501 806 q 343 712 386 756 q 275 610 300 668 q 250 486 250 553 q 275 363 250 421 q 343 261 300 304 q 444 193 386 218 q 568 168 503 168 m 276 1096 q 299 1146 276 1126 q 352 1176 321 1165 q 417 1192 383 1188 q 475 1196 451 1196 q 531 1190 503 1196 q 588 1175 560 1185 q 627 1165 607 1168 q 667 1161 647 1161 q 753 1181 715 1161 q 794 1190 774 1190 q 842 1172 822 1190 q 861 1125 861 1153 q 842 1078 861 1097 q 792 1048 822 1060 q 726 1031 761 1036 q 658 1026 690 1026 q 611 1029 640 1026 q 549 1044 582 1032 q 508 1056 528 1053 q 469 1060 489 1060 l 458 1060 q 417 1053 438 1060 q 383 1040 397 1047 q 343 1029 361 1029 q 296 1049 315 1029 q 276 1096 276 1068 z "},"":{"ha":1831,"x_min":93,"x_max":1761,"o":"m 186 974 q 252 947 225 974 q 279 881 279 919 l 279 406 q 295 320 279 360 q 338 251 311 281 q 401 203 365 221 q 479 186 438 186 l 633 186 q 711 206 675 186 q 775 258 747 225 q 819 333 803 290 q 835 421 835 375 l 835 881 q 862 947 835 919 q 928 974 889 974 q 994 947 967 974 q 1021 881 1021 919 l 1021 406 q 1037 320 1021 360 q 1080 251 1053 281 q 1143 203 1107 221 q 1221 186 1179 186 l 1375 186 q 1453 203 1417 186 q 1516 251 1489 221 q 1559 320 1543 281 q 1575 406 1575 360 l 1575 881 q 1602 947 1575 919 q 1668 974 1629 974 q 1734 947 1707 974 q 1761 881 1761 919 l 1761 406 q 1732 251 1761 325 q 1651 122 1703 178 q 1528 33 1599 65 q 1375 0 1457 0 l 1221 0 q 1071 30 1144 0 q 947 118 997 60 l 926 142 l 907 118 q 783 31 854 63 q 633 0 711 0 l 479 0 q 326 33 397 0 q 203 122 256 65 q 122 251 151 178 q 93 406 93 325 l 93 881 q 120 947 93 919 q 186 974 147 974 z "},"¸":{"ha":1028,"x_min":403,"x_max":626,"o":"m 403 3 q 423 51 403 31 q 472 72 443 72 q 521 51 500 72 q 542 3 542 31 l 542 -53 q 603 -109 579 -72 q 626 -190 626 -146 q 615 -250 626 -222 q 583 -299 603 -278 q 537 -332 563 -319 q 483 -344 511 -344 q 424 -324 446 -344 q 403 -275 403 -304 q 422 -226 403 -246 q 465 -206 442 -206 q 488 -190 488 -206 q 465 -175 488 -175 q 422 -155 442 -175 q 403 -106 403 -135 l 403 3 z "},"¡":{"ha":374,"x_min":99,"x_max":285,"o":"m 99 -32 q 126 -98 99 -71 q 192 -125 153 -125 q 258 -98 231 -125 q 285 -32 285 -71 l 285 476 q 258 542 285 515 q 192 569 231 569 q 126 542 153 569 q 99 476 99 515 l 99 -32 m 99 756 l 99 743 q 126 677 99 704 q 192 650 153 650 q 258 677 231 650 q 285 743 285 704 l 285 756 q 258 822 285 794 q 192 849 231 849 q 126 822 153 849 q 99 756 99 794 z "},"Ç":{"ha":1028,"x_min":63,"x_max":975,"o":"m 550 974 l 882 974 q 948 947 921 974 q 975 881 975 919 q 948 815 975 842 q 882 788 921 788 l 550 788 q 433 765 488 788 q 337 701 378 742 q 272 605 296 660 q 249 488 249 550 q 272 369 249 425 q 336 274 296 314 q 432 210 376 233 q 550 186 488 186 l 882 186 q 948 159 921 186 q 975 93 975 132 q 948 27 975 54 q 882 0 921 0 l 550 0 q 359 38 449 0 q 204 143 269 76 q 101 299 139 210 q 63 488 63 388 q 101 678 63 589 q 206 832 139 767 q 361 935 272 897 q 550 974 450 974 m 586 3 q 606 51 586 31 q 656 72 626 72 q 704 51 683 72 q 725 3 725 31 l 725 -53 q 786 -109 763 -72 q 810 -190 810 -146 q 798 -250 810 -222 q 766 -299 786 -278 q 720 -332 746 -319 q 667 -344 694 -344 q 608 -324 629 -344 q 586 -275 586 -304 q 606 -226 586 -246 q 649 -206 625 -206 q 671 -190 671 -206 q 649 -175 671 -175 q 606 -155 625 -175 q 586 -106 586 -135 l 586 3 z "},"Ş":{"ha":1039,"x_min":74,"x_max":964,"o":"m 364 975 l 871 975 q 937 948 910 975 q 964 882 964 921 q 937 816 964 843 q 871 789 910 789 l 364 789 q 290 758 319 789 q 260 685 260 728 q 290 610 260 640 q 364 581 319 581 l 675 581 q 788 558 735 581 q 879 496 840 535 q 941 404 918 457 q 964 292 964 351 q 941 178 964 232 q 879 86 918 125 q 788 24 840 47 q 675 1 735 1 l 167 1 q 101 28 128 1 q 74 93 74 54 q 101 160 74 133 q 167 188 128 188 l 675 188 q 748 218 718 188 q 778 292 778 249 q 748 364 778 333 q 675 394 718 394 l 364 394 q 251 417 304 394 q 158 479 197 440 q 97 572 119 518 q 74 685 74 625 q 97 797 74 744 q 159 890 119 850 q 251 952 199 929 q 364 975 304 975 m 408 3 q 428 51 408 31 q 478 72 449 72 q 526 51 506 72 q 547 3 547 31 l 547 -53 q 608 -109 585 -72 q 632 -190 632 -146 q 620 -250 632 -222 q 588 -299 608 -278 q 542 -332 568 -319 q 489 -344 517 -344 q 430 -324 451 -344 q 408 -275 408 -304 q 428 -226 408 -246 q 471 -206 447 -206 q 493 -190 493 -206 q 471 -175 493 -175 q 428 -155 447 -175 q 408 -106 408 -135 l 408 3 z "},"ş":{"ha":1039,"x_min":74,"x_max":964,"o":"m 167 186 l 675 186 q 748 216 718 186 q 778 290 778 246 q 748 363 778 333 q 675 393 718 393 l 364 393 q 251 416 304 393 q 159 478 199 439 q 97 571 119 518 q 74 683 74 624 q 97 796 74 743 q 159 888 119 849 q 251 951 199 928 q 364 974 304 974 l 871 974 q 937 947 910 974 q 964 881 964 919 q 937 815 964 842 q 871 788 910 788 l 364 788 q 290 757 319 788 q 260 683 260 726 q 290 610 260 640 q 364 579 319 579 l 675 579 q 788 556 735 579 q 879 494 840 533 q 941 403 918 456 q 964 290 964 350 q 942 178 964 231 q 880 85 919 125 q 788 23 840 46 q 675 0 736 0 l 167 0 q 101 27 128 0 q 74 93 74 54 q 101 159 74 132 q 167 186 128 186 m 408 3 q 428 51 408 31 q 478 72 449 72 q 526 51 506 72 q 547 3 547 31 l 547 -53 q 608 -109 585 -72 q 632 -190 632 -146 q 620 -250 632 -222 q 588 -299 608 -278 q 542 -332 568 -319 q 489 -344 517 -344 q 430 -324 451 -344 q 408 -275 408 -304 q 428 -226 408 -246 q 471 -206 447 -206 q 493 -190 493 -206 q 471 -175 493 -175 q 428 -155 447 -175 q 408 -106 408 -135 l 408 3 z "},"Ō":{"ha":1281,"x_min":85,"x_max":1196,"o":"m 424 974 l 857 974 q 988 947 926 974 q 1096 874 1050 919 q 1169 766 1142 828 q 1196 635 1196 704 l 1196 339 q 1169 208 1196 269 q 1096 100 1142 146 q 988 27 1050 54 q 857 0 926 0 l 424 0 q 291 26 353 0 q 183 99 229 53 q 111 206 138 144 q 85 339 85 268 l 85 635 q 111 767 85 706 q 183 875 138 829 q 291 947 229 921 q 424 974 353 974 m 424 186 l 857 186 q 917 199 889 186 q 965 232 944 211 q 998 281 986 253 q 1010 339 1010 308 l 1010 635 q 998 694 1010 667 q 965 743 986 722 q 917 776 944 764 q 857 788 889 788 l 424 788 q 364 776 392 788 q 315 743 336 764 q 283 694 294 722 q 271 635 271 667 l 271 339 q 283 281 271 308 q 315 232 294 253 q 364 199 336 211 q 424 186 392 186 m 401 1169 l 881 1169 q 933 1149 911 1169 q 954 1097 954 1128 q 933 1045 954 1067 q 881 1024 911 1024 l 401 1024 q 349 1045 371 1024 q 328 1097 328 1067 q 349 1149 328 1128 q 401 1169 371 1169 z "},"ō":{"ha":1138,"x_min":64,"x_max":1074,"o":"m 571 992 q 767 952 675 992 q 926 844 858 913 q 1034 683 994 775 q 1074 488 1074 592 q 1034 292 1074 383 q 926 131 994 200 q 765 22 857 63 q 569 -18 674 -18 q 374 22 465 -18 q 213 130 282 61 q 104 290 144 199 q 64 486 64 382 q 104 683 64 590 q 213 844 144 775 q 374 952 282 913 q 571 992 467 992 m 568 168 q 692 193 635 168 q 794 261 750 218 q 863 362 838 304 q 888 486 888 419 q 863 611 888 553 q 794 713 838 669 q 693 781 751 756 q 568 806 635 806 q 444 781 501 806 q 343 712 386 756 q 275 610 300 668 q 250 486 250 553 q 275 363 250 421 q 343 261 300 304 q 444 193 386 218 q 568 168 503 168 m 329 1168 l 808 1168 q 860 1147 839 1168 q 882 1096 882 1126 q 860 1044 882 1065 q 808 1022 839 1022 l 329 1022 q 277 1044 299 1022 q 256 1096 256 1065 q 277 1147 256 1126 q 329 1168 299 1168 z "},"*":{"ha":651,"x_min":60,"x_max":583,"o":"m 128 838 q 150 833 140 838 l 251 801 l 251 908 q 272 957 251 936 q 321 978 293 978 q 370 957 350 978 q 390 908 390 936 l 390 801 l 492 833 q 514 838 504 838 q 563 817 542 838 q 583 768 583 796 q 570 727 583 746 q 535 701 557 708 l 433 669 l 496 583 q 510 542 510 565 q 489 493 510 514 q 440 472 468 472 q 383 501 404 472 l 321 588 l 258 501 q 203 472 238 472 q 154 492 175 472 q 133 539 133 511 l 133 542 q 146 583 133 565 l 208 669 l 107 701 q 73 726 86 708 q 60 765 60 744 q 79 815 60 793 q 128 838 99 838 z "},"˘":{"ha":1032,"x_min":201,"x_max":832,"o":"m 271 1253 q 329 1222 307 1253 q 353 1192 340 1206 q 387 1167 367 1178 q 436 1151 407 1157 q 508 1144 465 1144 q 585 1151 554 1144 q 640 1168 617 1157 q 678 1194 663 1179 q 710 1228 694 1210 q 764 1253 731 1253 q 812 1232 792 1253 q 832 1183 832 1211 q 815 1138 832 1158 q 767 1087 794 1111 q 704 1044 740 1063 q 620 1016 668 1026 q 507 1006 572 1006 q 335 1039 404 1006 q 214 1144 267 1072 q 201 1183 201 1161 q 222 1232 201 1211 q 271 1253 243 1253 z "},"Ŏ":{"ha":1281,"x_min":85,"x_max":1196,"o":"m 424 974 l 857 974 q 988 947 926 974 q 1096 874 1050 919 q 1169 766 1142 828 q 1196 635 1196 704 l 1196 339 q 1169 208 1196 269 q 1096 100 1142 146 q 988 27 1050 54 q 857 0 926 0 l 424 0 q 291 26 353 0 q 183 99 229 53 q 111 206 138 144 q 85 339 85 268 l 85 635 q 111 767 85 706 q 183 875 138 829 q 291 947 229 921 q 424 974 353 974 m 424 186 l 857 186 q 917 199 889 186 q 965 232 944 211 q 998 281 986 253 q 1010 339 1010 308 l 1010 635 q 998 694 1010 667 q 965 743 986 722 q 917 776 944 764 q 857 788 889 788 l 424 788 q 364 776 392 788 q 315 743 336 764 q 283 694 294 722 q 271 635 271 667 l 271 339 q 283 281 271 308 q 315 232 294 253 q 364 199 336 211 q 424 186 392 186 m 394 1254 q 453 1224 431 1254 q 477 1193 464 1207 q 510 1169 490 1179 q 560 1152 531 1158 q 632 1146 589 1146 q 709 1152 678 1146 q 763 1169 740 1158 q 802 1196 786 1181 q 833 1229 818 1211 q 888 1254 854 1254 q 935 1233 915 1254 q 956 1185 956 1213 q 939 1139 956 1160 q 891 1088 918 1113 q 828 1046 864 1064 q 744 1017 792 1028 q 631 1007 696 1007 q 459 1040 528 1007 q 338 1146 390 1074 q 325 1185 325 1163 q 346 1233 325 1213 q 394 1254 367 1254 z "},"Ğ":{"ha":1064,"x_min":63,"x_max":976,"o":"m 550 974 l 883 974 q 949 947 922 974 q 976 881 976 919 q 949 815 976 842 q 883 788 922 788 l 550 788 q 433 764 488 788 q 337 700 378 740 q 272 605 296 660 q 249 488 249 550 q 272 370 249 425 q 337 274 296 315 q 433 210 378 233 q 550 186 488 186 l 790 186 l 790 421 q 817 487 790 460 q 883 514 844 514 q 949 487 922 514 q 976 421 976 460 l 976 93 q 949 27 976 54 q 883 0 922 0 l 550 0 q 360 38 449 0 q 205 142 271 76 q 101 297 139 208 q 63 485 63 385 q 99 670 63 582 q 201 826 136 758 q 356 933 267 893 q 550 974 446 974 m 342 1254 q 400 1224 378 1254 q 424 1193 411 1207 q 458 1169 438 1179 q 507 1152 478 1158 q 579 1146 536 1146 q 656 1152 625 1146 q 710 1169 688 1158 q 749 1196 733 1181 q 781 1229 765 1211 q 835 1254 801 1254 q 883 1233 863 1254 q 903 1185 903 1213 q 886 1139 903 1160 q 838 1088 865 1113 q 775 1046 811 1064 q 691 1017 739 1028 q 578 1007 643 1007 q 406 1040 475 1007 q 285 1146 338 1074 q 272 1185 272 1163 q 293 1233 272 1213 q 342 1254 314 1254 z "},"ğ":{"ha":1064,"x_min":49,"x_max":976,"o":"m 550 974 l 883 974 q 949 947 922 974 q 976 881 976 919 q 949 815 976 842 q 883 788 922 788 l 550 788 q 433 764 488 788 q 337 700 378 740 q 272 605 296 660 q 249 488 249 550 q 272 370 249 425 q 337 274 296 315 q 433 210 378 233 q 550 186 488 186 l 790 186 l 790 421 q 817 487 790 460 q 883 514 844 514 q 949 487 922 514 q 976 421 976 460 l 976 93 q 949 27 976 54 q 883 0 922 0 l 550 0 q 406 22 475 0 q 279 83 338 43 q 175 178 221 122 q 100 300 129 233 q 64 540 49 419 q 144 756 79 660 q 314 913 208 853 q 550 974 419 974 m 342 1253 q 400 1222 378 1253 q 424 1192 411 1206 q 458 1167 438 1178 q 507 1151 478 1157 q 579 1144 536 1144 q 656 1151 625 1144 q 710 1168 688 1157 q 749 1194 733 1179 q 781 1228 765 1210 q 835 1253 801 1253 q 883 1232 863 1253 q 903 1183 903 1211 q 886 1138 903 1158 q 838 1087 865 1111 q 775 1044 811 1063 q 691 1016 739 1026 q 578 1006 643 1006 q 406 1039 475 1006 q 285 1144 338 1072 q 272 1183 272 1161 q 293 1232 272 1211 q 342 1253 314 1253 z "},"Ă":{"ha":1104,"x_min":26,"x_max":1215,"o":"m 53 160 l 836 947 q 903 975 864 975 q 968 948 940 975 q 996 882 996 921 l 996 93 q 969 27 996 54 q 903 0 942 0 q 837 27 864 0 q 810 93 810 54 l 810 657 l 185 29 q 119 3 158 3 q 53 30 81 3 q 26 96 26 57 q 53 160 26 133 m 653 1254 q 711 1224 689 1254 q 735 1193 722 1207 q 769 1169 749 1179 q 818 1152 789 1158 q 890 1146 847 1146 q 967 1152 936 1146 q 1022 1169 999 1158 q 1060 1196 1044 1181 q 1092 1229 1076 1211 q 1146 1254 1113 1254 q 1194 1233 1174 1254 q 1214 1185 1214 1213 q 1197 1139 1214 1160 q 1149 1088 1176 1113 q 1086 1046 1122 1064 q 1002 1017 1050 1028 q 889 1007 954 1007 q 717 1040 786 1007 q 596 1146 649 1074 q 583 1185 583 1163 q 604 1233 583 1213 q 653 1254 625 1254 z "},"ă":{"ha":1076,"x_min":78,"x_max":981,"o":"m 78 292 l 78 343 q 101 457 78 404 q 165 549 125 510 q 258 611 204 589 q 372 633 313 633 l 794 633 l 794 685 q 765 758 794 729 q 690 788 735 788 l 175 788 q 108 815 135 788 q 81 882 81 843 q 108 947 81 921 q 175 974 135 974 l 690 974 q 804 951 751 974 q 896 889 857 928 q 958 797 935 850 q 981 685 981 744 l 981 254 q 960 155 981 201 q 906 74 940 108 q 826 20 872 40 q 728 0 781 0 l 372 0 q 258 23 311 0 q 164 85 204 46 q 101 178 124 125 q 78 292 78 231 m 372 186 l 728 186 q 775 206 756 186 q 794 254 794 226 l 794 447 l 372 447 q 297 417 328 447 q 267 343 267 386 l 267 292 q 297 217 267 247 q 372 186 328 186 m 292 1253 q 350 1222 328 1253 q 374 1192 361 1206 q 408 1167 388 1178 q 457 1151 428 1157 q 529 1144 486 1144 q 606 1151 575 1144 q 660 1168 638 1157 q 699 1194 683 1179 q 731 1228 715 1210 q 785 1253 751 1253 q 833 1232 813 1253 q 853 1183 853 1211 q 836 1138 853 1158 q 788 1087 815 1111 q 725 1044 761 1063 q 641 1016 689 1026 q 528 1006 593 1006 q 356 1039 425 1006 q 235 1144 288 1072 q 222 1183 222 1161 q 243 1232 222 1211 q 292 1253 264 1253 z "},"Ĕ":{"ha":1054,"x_min":92,"x_max":975,"o":"m 92 681 q 115 795 92 742 q 177 888 138 849 q 270 951 217 928 q 385 974 324 974 l 882 974 q 948 947 921 974 q 975 882 975 921 q 948 815 975 842 q 882 788 921 788 l 385 788 q 309 756 340 788 q 278 681 278 725 l 278 576 l 882 576 q 948 549 921 576 q 975 482 975 522 q 948 417 975 444 q 882 390 921 390 l 278 390 l 278 293 q 309 217 278 249 q 385 186 340 186 l 882 186 q 948 159 921 186 q 975 93 975 132 q 948 27 975 54 q 882 0 921 0 l 385 0 q 272 23 325 0 q 178 86 218 46 q 115 180 138 126 q 92 293 92 233 l 92 681 m 281 1254 q 339 1224 317 1254 q 363 1193 350 1207 q 397 1169 376 1179 q 446 1152 417 1158 q 518 1146 475 1146 q 595 1152 564 1146 q 649 1169 626 1158 q 688 1196 672 1181 q 719 1229 704 1211 q 774 1254 740 1254 q 822 1233 801 1254 q 842 1185 842 1213 q 825 1139 842 1160 q 777 1088 804 1113 q 714 1046 750 1064 q 630 1017 678 1028 q 517 1007 582 1007 q 345 1040 414 1007 q 224 1146 276 1074 q 211 1185 211 1163 q 232 1233 211 1213 q 281 1254 253 1254 z "},"ĕ":{"ha":1071,"x_min":92,"x_max":994,"o":"m 92 290 l 92 683 q 115 797 92 744 q 176 889 138 850 q 269 951 215 928 q 382 974 322 974 l 703 974 q 817 951 764 974 q 909 888 869 928 q 972 796 949 849 q 994 682 994 743 l 994 660 q 972 546 994 599 q 909 453 949 493 q 817 391 869 414 q 703 368 764 368 l 278 368 l 278 290 q 308 217 278 247 q 382 186 339 186 l 899 186 q 965 159 938 186 q 992 93 992 132 q 965 27 992 54 q 899 0 938 0 l 382 0 q 269 23 322 0 q 176 85 215 46 q 115 177 138 124 q 92 290 92 231 m 278 683 l 278 554 l 703 554 q 778 585 747 554 q 808 660 808 615 l 808 682 q 778 757 808 726 q 703 788 747 788 l 382 788 q 308 758 339 788 q 278 683 278 728 m 289 1253 q 347 1222 325 1253 q 372 1192 358 1206 q 405 1167 385 1178 q 454 1151 425 1157 q 526 1144 483 1144 q 603 1151 572 1144 q 658 1168 635 1157 q 697 1194 681 1179 q 728 1228 713 1210 q 782 1253 749 1253 q 830 1232 810 1253 q 850 1183 850 1211 q 833 1138 850 1158 q 785 1087 813 1111 q 722 1044 758 1063 q 638 1016 686 1026 q 525 1006 590 1006 q 353 1039 422 1006 q 232 1144 285 1072 q 219 1183 219 1161 q 240 1232 219 1211 q 289 1253 261 1253 z "},"Ŭ":{"ha":1131,"x_min":99,"x_max":1032,"o":"m 99 882 q 126 948 99 921 q 192 975 153 975 q 258 948 231 975 q 285 882 285 921 l 285 315 q 294 265 285 289 q 319 224 303 242 q 356 197 335 207 q 401 186 378 186 l 728 186 q 774 197 753 186 q 812 224 796 207 q 837 265 828 242 q 846 315 846 289 l 846 882 q 873 948 846 921 q 939 975 900 975 q 1005 948 978 975 q 1032 882 1032 921 l 1032 315 q 1008 194 1032 251 q 944 94 985 138 q 847 26 903 51 q 728 0 792 0 l 401 0 q 282 26 338 0 q 186 94 226 51 q 122 195 146 138 q 99 315 99 253 l 99 882 m 319 1254 q 378 1224 356 1254 q 402 1193 389 1207 q 435 1169 415 1179 q 485 1152 456 1158 q 557 1146 514 1146 q 634 1152 603 1146 q 688 1169 665 1158 q 727 1196 711 1181 q 758 1229 743 1211 q 813 1254 779 1254 q 860 1233 840 1254 q 881 1185 881 1213 q 864 1139 881 1160 q 816 1088 843 1113 q 753 1046 789 1064 q 669 1017 717 1028 q 556 1007 621 1007 q 384 1040 453 1007 q 263 1146 315 1074 q 250 1185 250 1163 q 271 1233 250 1213 q 319 1254 292 1254 z "},"ŭ":{"ha":1169,"x_min":85,"x_max":1060,"o":"m 85 881 q 112 947 85 919 q 178 974 139 974 q 244 947 217 974 q 271 881 271 919 l 271 488 q 294 369 271 425 q 358 274 318 314 q 454 210 399 233 q 572 186 510 186 l 874 186 l 874 881 q 901 947 874 919 q 967 974 928 974 q 1033 947 1006 974 q 1060 881 1060 919 l 1060 93 q 1033 27 1060 54 q 967 0 1006 0 l 572 0 q 382 39 471 0 q 227 144 293 78 q 123 299 161 210 q 85 488 85 388 l 85 881 m 339 1253 q 397 1222 375 1253 q 422 1192 408 1206 q 455 1167 435 1178 q 504 1151 475 1157 q 576 1144 533 1144 q 653 1151 622 1144 q 708 1168 685 1157 q 747 1194 731 1179 q 778 1228 763 1210 q 832 1253 799 1253 q 880 1232 860 1253 q 900 1183 900 1211 q 883 1138 900 1158 q 835 1087 863 1111 q 772 1044 808 1063 q 688 1016 736 1026 q 575 1006 640 1006 q 403 1039 472 1006 q 282 1144 335 1072 q 269 1183 269 1161 q 290 1232 269 1211 q 339 1253 311 1253 z "}}}
